STARTFONT 2.1
COMMENT
COMMENT Converted from TrueType font "LucidaSansRegular.ttf" by "ttf2bdf 2.6".
COMMENT
FONT -FreeType-Lucida Sans-Medium-R-Normal--33-240-100-100-P-180-ISO10646-1
SIZE 24 100 100
FONTBOUNDINGBOX 74 64 -20 -25
STARTPROPERTIES 22
FOUNDRY "FreeType"
FAMILY_NAME "Lucida Sans"
WEIGHT_NAME "Medium"
SLANT "R"
SETWIDTH_NAME "Normal"
ADD_STYLE_NAME ""
PIXEL_SIZE 33
POINT_SIZE 240
RESOLUTION_X 100
RESOLUTION_Y 100
SPACING "P"
AVERAGE_WIDTH 180
CHARSET_REGISTRY "ISO10646"
CHARSET_ENCODING "1"
FONT_ASCENT 31
FONT_DESCENT 7
COPYRIGHT "Copyright (c) 1999 by Bigelow & Holmes Inc. Pat. Des. 289,420."
_TTF_FONTFILE "LucidaSansRegular.ttf"
_TTF_PSNAME "LucidaSans"
_XFREE86_GLYPH_RANGES "32_126 160_383 402 506_511 536_539 592_680 688_734 736_745 768_837 884_885 890 894 900_906 908 910_929 931_974 976_982 986 988 990 992 994_1011 1025_1036 1038_1103 1105_1116 1118_1158 1168_1220 1223_1224 1227_1228 1232_1259 1262_1269 1272_1273 1425_1441 1443_1465 1467_1476 1488_1514 1520_1524 1548 1563 1567 1569_1594 1600_1618 1632_1645 1648_1719 1722_1726 1728_1742 1744_1773 1776_1785 2305_2307 2309_2361 2364_2381 2384_2388 2392_2416 3585_3642 3647_3675 7808_7813 7922_7923 8192_8238"
_XFREE86_GLYPH_RANGES "8240_8262 8298_8304 8308_8334 8337 8352_8364 8448_8504 8531_8578 8592_8682 8704_8945 8962 8976 8992_8993 9312_9321 9472 9474 9484 9488 9492 9496 9500 9508 9516 9524 9532 9552_9580 9600 9604 9608 9612 9616_9619 9632_9633 9642_9644 9650 9658 9660 9668 9670 9674_9676 9679 9687_9689 9702 9733 9742 9755 9758 9786_9788 9792 9794 9824 9827 9829_9830 9834_9835 9985_9988 9990_9993 9996_10023 10025_10059 10061 10063_10066 10070 10072_10078 10081_10087 10102_10132 10136_10159 10161_10174"
_XFREE86_GLYPH_RANGES "61440_61442 62977_62981 62986_62998 63488_63495 63498_63499 63502_63505 63508_63509 63519_63520 63539 64256_64260 64286_64287 64297_64310 64312_64316 64318 64320_64321 64323_64324 64326_64334 64606_64610 65136_65138 65140 65142_65276 65279"
ENDPROPERTIES
CHARS 2388
STARTCHAR 0020
ENCODING 32
SWIDTH 300 0
DWIDTH 10 0
BBX 1 1 0 0
BITMAP
00
ENDCHAR
STARTCHAR 0021
ENCODING 33
SWIDTH 300 0
DWIDTH 10 0
BBX 3 24 3 0
BITMAP
E0
E0
E0
E0
E0
E0
E0
E0
E0
E0
E0
E0
E0
E0
E0
E0
E0
00
00
00
E0
E0
E0
E0
ENDCHAR
STARTCHAR 0022
ENCODING 34
SWIDTH 360 0
DWIDTH 12 0
BBX 9 8 1 18
BITMAP
E380
E380
E380
E380
E380
E380
E380
E380
ENDCHAR
STARTCHAR 0023
ENCODING 35
SWIDTH 630 0
DWIDTH 21 0
BBX 21 24 0 0
BITMAP
0060C0
0060C0
00C180
00C180
00C180
00C180
018300
3FFFF8
3FFFF8
018300
030600
030600
030600
030600
060C00
FFFFE0
FFFFE0
060C00
0C1800
0C1800
0C1800
0C1800
183000
183000
ENDCHAR
STARTCHAR 0024
ENCODING 36
SWIDTH 630 0
DWIDTH 21 0
BBX 15 28 3 -2
BITMAP
0180
0180
07F0
1FFC
3D9E
7982
7180
7180
7180
7180
3980
3F80
1F80
07C0
03F0
01F8
01BC
019E
018E
018E
018E
018E
819C
F1BC
7FF0
0FE0
0180
0180
ENDCHAR
STARTCHAR 0025
ENCODING 37
SWIDTH 660 0
DWIDTH 22 0
BBX 22 24 0 0
BITMAP
1E000C
7F8018
618030
E1C060
C0C0C0
C0C180
C0C180
C0C300
E0C600
618C00
7F9800
1E3000
0031E0
0067F8
00C618
018E1C
030C0C
060C0C
060C0C
0C0C0C
180E0C
300618
6007F8
C001E0
ENDCHAR
STARTCHAR 0026
ENCODING 38
SWIDTH 690 0
DWIDTH 23 0
BBX 19 24 2 0
BITMAP
01E000
07F800
073C00
0E1C00
0E1C00
0E1C00
0E1C00
073800
077000
07E000
0FC000
3FC000
79C0E0
70E0E0
E0F0E0
E070E0
E078C0
E03DC0
E01F80
701F80
780F00
3C1F80
1FFFC0
07F3E0
ENDCHAR
STARTCHAR 0027
ENCODING 39
SWIDTH 240 0
DWIDTH 8 0
BBX 3 9 2 17
BITMAP
E0
E0
E0
E0
E0
E0
E0
E0
40
ENDCHAR
STARTCHAR 0028
ENCODING 40
SWIDTH 330 0
DWIDTH 11 0
BBX 8 31 2 -5
BITMAP
01
03
07
0E
1C
18
38
30
70
70
60
E0
E0
E0
E0
E0
E0
E0
E0
E0
60
70
70
30
38
18
1C
0E
06
03
01
ENDCHAR
STARTCHAR 0029
ENCODING 41
SWIDTH 330 0
DWIDTH 11 0
BBX 8 31 1 -5
BITMAP
80
C0
E0
70
38
18
1C
0C
0E
0E
06
07
07
07
07
07
07
07
07
07
06
0E
0E
0C
1C
18
38
70
E0
C0
80
ENDCHAR
STARTCHAR 002A
ENCODING 42
SWIDTH 480 0
DWIDTH 16 0
BBX 12 12 2 12
BITMAP
0600
0600
0600
4620
FFF0
39C0
0000
0F00
1980
1980
30C0
1080
ENDCHAR
STARTCHAR 002B
ENCODING 43
SWIDTH 780 0
DWIDTH 26 0
BBX 18 18 4 0
BITMAP
00C000
00C000
00C000
00C000
00C000
00C000
00C000
00C000
FFFFC0
FFFFC0
00C000
00C000
00C000
00C000
00C000
00C000
00C000
00C000
ENDCHAR
STARTCHAR 002C
ENCODING 44
SWIDTH 300 0
DWIDTH 10 0
BBX 4 9 3 -5
BITMAP
F0
F0
F0
F0
30
30
30
60
C0
ENDCHAR
STARTCHAR 002D
ENCODING 45
SWIDTH 570 0
DWIDTH 19 0
BBX 15 2 2 9
BITMAP
FFFE
FFFE
ENDCHAR
STARTCHAR 002E
ENCODING 46
SWIDTH 300 0
DWIDTH 10 0
BBX 4 4 3 0
BITMAP
F0
F0
F0
F0
ENDCHAR
STARTCHAR 002F
ENCODING 47
SWIDTH 510 0
DWIDTH 17 0
BBX 11 29 3 -5
BITMAP
0060
0060
00C0
00C0
00C0
0180
0180
0180
0380
0300
0300
0700
0600
0600
0E00
0C00
0C00
1C00
1800
1800
3800
3000
3000
3000
6000
6000
6000
C000
C000
ENDCHAR
STARTCHAR 0030
ENCODING 48
SWIDTH 630 0
DWIDTH 21 0
BBX 17 24 2 0
BITMAP
03E000
0FF800
1C1C00
380E00
300600
700700
700700
E00300
E00380
E00380
E00380
E00380
E00380
E00380
E00380
E00380
E00380
700700
700700
300600
380E00
1C1C00
0FF800
03E000
ENDCHAR
STARTCHAR 0031
ENCODING 49
SWIDTH 630 0
DWIDTH 21 0
BBX 13 24 5 0
BITMAP
0300
3F00
FF00
C700
0700
0700
0700
0700
0700
0700
0700
0700
0700
0700
0700
0700
0700
0700
0700
0700
0700
0700
FFF8
FFF8
ENDCHAR
STARTCHAR 0032
ENCODING 50
SWIDTH 630 0
DWIDTH 21 0
BBX 15 24 2 0
BITMAP
0FE0
3FF8
703C
401C
000E
000E
000E
000E
000E
001C
0038
0078
00E0
01C0
0380
0600
1C00
3800
3000
7000
E000
FFFE
FFFE
FFFE
ENDCHAR
STARTCHAR 0033
ENCODING 51
SWIDTH 630 0
DWIDTH 21 0
BBX 14 24 3 0
BITMAP
3F80
FFE0
C0F0
0078
0038
0038
0038
0038
0070
0070
01E0
3F80
3FC0
01F0
0038
003C
001C
001C
001C
001C
0038
C0F8
FFE0
3F80
ENDCHAR
STARTCHAR 0034
ENCODING 52
SWIDTH 630 0
DWIDTH 21 0
BBX 17 24 2 0
BITMAP
001C00
003C00
007C00
00FC00
00DC00
019C00
031C00
061C00
061C00
0C1C00
181C00
301C00
301C00
601C00
C01C00
FFFF80
FFFF80
001C00
001C00
001C00
001C00
001C00
001C00
001C00
ENDCHAR
STARTCHAR 0035
ENCODING 53
SWIDTH 630 0
DWIDTH 21 0
BBX 14 24 3 0
BITMAP
FFFC
FFFC
FFFC
C000
C000
C000
C000
C000
C000
FE00
FFC0
01E0
0070
0038
001C
001C
001C
001C
001C
0038
0038
C0F0
FFE0
7F00
ENDCHAR
STARTCHAR 0036
ENCODING 54
SWIDTH 630 0
DWIDTH 21 0
BBX 17 24 2 0
BITMAP
01FC00
07FF00
1E0300
1C0000
380000
700000
700000
600000
E00000
E3F000
EFFC00
FC1E00
F00700
F00780
E00380
E00380
E00380
600380
700380
700700
380700
1C1E00
0FFC00
03F000
ENDCHAR
STARTCHAR 0037
ENCODING 55
SWIDTH 630 0
DWIDTH 21 0
BBX 15 24 4 0
BITMAP
FFFE
FFFE
FFFE
000E
001C
0038
0038
0070
0060
00E0
01C0
0180
0380
0700
0700
0E00
0E00
1C00
1C00
3800
3800
3800
7000
7000
ENDCHAR
STARTCHAR 0038
ENCODING 56
SWIDTH 630 0
DWIDTH 21 0
BBX 17 24 2 0
BITMAP
07F000
1FFC00
3C1E00
380F00
700700
700700
700700
780E00
3C1C00
1F3800
0FF000
0FF000
1FFC00
387E00
701F00
E00780
E00380
E00380
E00380
E00380
700700
7C1E00
1FFC00
07F000
ENDCHAR
STARTCHAR 0039
ENCODING 57
SWIDTH 630 0
DWIDTH 21 0
BBX 17 24 2 0
BITMAP
07E000
1FF800
3C1C00
700E00
700700
E00700
E00300
E00380
E00380
E00380
700780
700780
3C1F80
1FFB80
07E380
000380
000700
000700
000600
000E00
001C00
607800
7FF000
1FC000
ENDCHAR
STARTCHAR 003A
ENCODING 58
SWIDTH 300 0
DWIDTH 10 0
BBX 3 18 3 0
BITMAP
E0
E0
E0
E0
00
00
00
00
00
00
00
00
00
00
E0
E0
E0
E0
ENDCHAR
STARTCHAR 003B
ENCODING 59
SWIDTH 300 0
DWIDTH 10 0
BBX 3 23 3 -5
BITMAP
E0
E0
E0
E0
00
00
00
00
00
00
00
00
00
00
E0
E0
E0
E0
60
60
60
C0
80
ENDCHAR
STARTCHAR 003C
ENCODING 60
SWIDTH 780 0
DWIDTH 26 0
BBX 18 19 4 0
BITMAP
000040
0001C0
000780
001F00
007C00
00F000
03C000
0F0000
3C0000
F00000
3C0000
0F0000
03C000
00F000
007C00
001E00
000780
0001C0
000040
ENDCHAR
STARTCHAR 003D
ENCODING 61
SWIDTH 780 0
DWIDTH 26 0
BBX 18 8 4 6
BITMAP
FFFFC0
FFFFC0
000000
000000
000000
000000
FFFFC0
FFFFC0
ENDCHAR
STARTCHAR 003E
ENCODING 62
SWIDTH 780 0
DWIDTH 26 0
BBX 18 19 4 0
BITMAP
800000
E00000
780000
3E0000
0F8000
03C000
00F000
003C00
000F00
0003C0
000F00
003C00
00F000
03C000
0F8000
1E0000
780000
E00000
800000
ENDCHAR
STARTCHAR 003F
ENCODING 63
SWIDTH 420 0
DWIDTH 14 0
BBX 12 24 1 0
BITMAP
3F00
FFC0
C1E0
00F0
0070
0070
0070
00E0
01E0
01C0
0380
0700
0E00
0C00
1C00
1C00
1C00
0000
0000
0000
1C00
1C00
1C00
1C00
ENDCHAR
STARTCHAR 0040
ENCODING 64
SWIDTH 840 0
DWIDTH 28 0
BBX 25 24 2 0
BITMAP
001FC000
00FFF000
01E07C00
07800E00
0E000600
1C0FE300
183FE300
3070E180
70C0C180
6080C180
6180C180
C101C180
C303C180
C3038300
C3068300
C30D8600
C31D8E00
E3F9FC00
61E0F000
70000000
38000000
1E030000
0FFF0000
01FC0000
ENDCHAR
STARTCHAR 0041
ENCODING 65
SWIDTH 690 0
DWIDTH 23 0
BBX 22 24 0 0
BITMAP
003000
003000
007800
007800
00DC00
00DC00
00DE00
018E00
018E00
030700
030700
060380
060380
0603C0
0C01C0
0FFFC0
1FFFE0
1800E0
3000F0
300070
300078
600038
600038
C0001C
ENDCHAR
STARTCHAR 0042
ENCODING 66
SWIDTH 570 0
DWIDTH 19 0
BBX 14 24 3 0
BITMAP
FF80
FFE0
E0F0
E078
E038
E038
E038
E038
E070
E070
E1E0
FF80
FFC0
E1F0
E078
E038
E01C
E01C
E01C
E01C
E03C
E078
FFF0
FFC0
ENDCHAR
STARTCHAR 0043
ENCODING 67
SWIDTH 690 0
DWIDTH 23 0
BBX 19 24 2 0
BITMAP
00FE00
07FFC0
0F01E0
1C0020
380000
780000
700000
700000
E00000
E00000
E00000
E00000
E00000
E00000
E00000
E00000
700000
700000
780000
380000
1E0020
0F01E0
07FFC0
01FE00
ENDCHAR
STARTCHAR 0044
ENCODING 68
SWIDTH 750 0
DWIDTH 25 0
BBX 20 24 3 0
BITMAP
FFF800
FFFE00
E01F00
E00780
E001C0
E001E0
E000E0
E000F0
E00070
E00070
E00070
E00070
E00070
E00070
E00070
E00070
E000E0
E000E0
E001C0
E001C0
E00380
E01F00
FFFE00
FFF000
ENDCHAR
STARTCHAR 0045
ENCODING 69
SWIDTH 540 0
DWIDTH 18 0
BBX 14 24 3 0
BITMAP
FFF8
FFF8
E000
E000
E000
E000
E000
E000
E000
E000
E000
FFF0
FFF0
E000
E000
E000
E000
E000
E000
E000
E000
E000
FFFC
FFFC
ENDCHAR
STARTCHAR 0046
ENCODING 70
SWIDTH 540 0
DWIDTH 18 0
BBX 13 24 3 0
BITMAP
FFF8
FFF8
E000
E000
E000
E000
E000
E000
E000
E000
E000
FFE0
FFE0
E000
E000
E000
E000
E000
E000
E000
E000
E000
E000
E000
ENDCHAR
STARTCHAR 0047
ENCODING 71
SWIDTH 720 0
DWIDTH 24 0
BBX 19 24 2 0
BITMAP
00FE00
07FFC0
0F01E0
1C0020
380000
780000
700000
700000
E00000
E00000
E00000
E00000
E00000
E00000
E000E0
E000E0
7000E0
7000E0
7800E0
3C00E0
1E00E0
0F80E0
07FFE0
00FF00
ENDCHAR
STARTCHAR 0048
ENCODING 72
SWIDTH 720 0
DWIDTH 24 0
BBX 18 24 3 0
BITMAP
E001C0
E001C0
E001C0
E001C0
E001C0
E001C0
E001C0
E001C0
E001C0
E001C0
E001C0
FFFFC0
FFFFC0
E001C0
E001C0
E001C0
E001C0
E001C0
E001C0
E001C0
E001C0
E001C0
E001C0
E001C0
ENDCHAR
STARTCHAR 0049
ENCODING 73
SWIDTH 300 0
DWIDTH 10 0
BBX 3 24 3 0
BITMAP
E0
E0
E0
E0
E0
E0
E0
E0
E0
E0
E0
E0
E0
E0
E0
E0
E0
E0
E0
E0
E0
E0
E0
E0
ENDCHAR
STARTCHAR 004A
ENCODING 74
SWIDTH 300 0
DWIDTH 10 0
BBX 10 29 -3 -5
BITMAP
01C0
01C0
01C0
01C0
01C0
01C0
01C0
01C0
01C0
01C0
01C0
01C0
01C0
01C0
01C0
01C0
01C0
01C0
01C0
01C0
01C0
01C0
01C0
01C0
01C0
0380
8380
FF00
7C00
ENDCHAR
STARTCHAR 004B
ENCODING 75
SWIDTH 660 0
DWIDTH 22 0
BBX 18 24 3 0
BITMAP
E00300
E00600
E00C00
E01800
E03000
E06000
E0C000
E18000
E30000
E60000
EC0000
FC0000
EE0000
E70000
E38000
E3C000
E1E000
E0F000
E07800
E03C00
E01E00
E00F00
E00780
E003C0
ENDCHAR
STARTCHAR 004C
ENCODING 76
SWIDTH 540 0
DWIDTH 18 0
BBX 14 24 3 0
BITMAP
E000
E000
E000
E000
E000
E000
E000
E000
E000
E000
E000
E000
E000
E000
E000
E000
E000
E000
E000
E000
E000
E000
FFFC
FFFC
ENDCHAR
STARTCHAR 004D
ENCODING 77
SWIDTH 840 0
DWIDTH 28 0
BBX 21 24 3 0
BITMAP
F00038
F00078
F00078
F800F8
F800F8
FC00F8
DC01B8
DC01B8
CE0338
CE0338
CE0338
C70638
C70638
C38C38
C38C38
C38C38
C1D838
C1D838
C0F038
C0F038
C0F038
C06038
C00038
C00038
ENDCHAR
STARTCHAR 004E
ENCODING 78
SWIDTH 720 0
DWIDTH 24 0
BBX 18 24 3 0
BITMAP
E000C0
E000C0
F000C0
F800C0
FC00C0
DC00C0
CE00C0
CF00C0
C700C0
C380C0
C3C0C0
C1C0C0
C0E0C0
C0F0C0
C070C0
C038C0
C03CC0
C01CC0
C00EC0
C00FC0
C007C0
C003C0
C001C0
C001C0
ENDCHAR
STARTCHAR 004F
ENCODING 79
SWIDTH 780 0
DWIDTH 26 0
BBX 22 24 2 0
BITMAP
01FE00
07FF80
0F03C0
1C00E0
380070
780078
700038
700038
E0001C
E0001C
E0001C
E0001C
E0001C
E0001C
E0001C
E0001C
700038
700038
780078
380070
1C00E0
0F03C0
07FF80
01FE00
ENDCHAR
STARTCHAR 0050
ENCODING 80
SWIDTH 540 0
DWIDTH 18 0
BBX 14 24 3 0
BITMAP
FFC0
FFF0
E078
E03C
E01C
E01C
E01C
E01C
E01C
E038
E078
E1F0
FFE0
FF00
E000
E000
E000
E000
E000
E000
E000
E000
E000
E000
ENDCHAR
STARTCHAR 0051
ENCODING 81
SWIDTH 780 0
DWIDTH 26 0
BBX 24 29 2 -5
BITMAP
01FE00
07FF80
0F03C0
1C00E0
380070
780078
700038
700038
E0001C
E0001C
E0001C
E0001C
E0001C
E0001C
E0001C
E0001C
700038
700038
780078
380070
1C00E0
0F03C0
07FF80
01FF80
0003C0
0001F0
00007C
00001F
000004
ENDCHAR
STARTCHAR 0052
ENCODING 82
SWIDTH 630 0
DWIDTH 21 0
BBX 17 24 3 0
BITMAP
FFC000
FFF000
E0F800
E03C00
E01C00
E01C00
E01C00
E01C00
E01C00
E03800
E07800
E0F000
FFC000
FFC000
E1C000
E0E000
E0F000
E07000
E03800
E03C00
E01E00
E00E00
E00F00
E00780
ENDCHAR
STARTCHAR 0053
ENCODING 83
SWIDTH 540 0
DWIDTH 18 0
BBX 14 24 2 0
BITMAP
0FE0
3FF8
7818
7000
E000
E000
E000
F000
7800
7C00
3F00
0FC0
07E0
01F8
0078
003C
001C
001C
001C
001C
8038
F078
7FE0
1F80
ENDCHAR
STARTCHAR 0054
ENCODING 84
SWIDTH 630 0
DWIDTH 21 0
BBX 19 24 1 0
BITMAP
FFFFE0
FFFFE0
00E000
00E000
00E000
00E000
00E000
00E000
00E000
00E000
00E000
00E000
00E000
00E000
00E000
00E000
00E000
00E000
00E000
00E000
00E000
00E000
00E000
00E000
ENDCHAR
STARTCHAR 0055
ENCODING 85
SWIDTH 690 0
DWIDTH 23 0
BBX 17 24 3 0
BITMAP
E00180
E00180
E00180
E00180
E00180
E00180
E00180
E00180
E00180
E00180
E00180
E00180
E00180
E00180
E00180
E00180
E00180
E00180
E00180
700300
780300
3C0E00
1FFC00
07F000
ENDCHAR
STARTCHAR 0056
ENCODING 86
SWIDTH 660 0
DWIDTH 22 0
BBX 22 24 0 0
BITMAP
E0000C
700018
700018
780038
380030
3C0070
1C0060
1C0060
0E00C0
0E00C0
0F01C0
070180
070180
038300
038300
01C700
01C600
01EE00
00EC00
00EC00
007800
007800
007800
003000
ENDCHAR
STARTCHAR 0057
ENCODING 87
SWIDTH 840 0
DWIDTH 28 0
BBX 29 24 0 0
BITMAP
E0030018
F0078038
70078030
70078030
70078070
380FC060
380DC060
380DC060
3C1DE0E0
1C18E0C0
1C18E0C0
1C18E0C0
0E387180
0E307180
0E307180
0F707B80
07603B00
07603B00
07603B00
03E01F00
03C01E00
03C01E00
03C01E00
01800C00
ENDCHAR
STARTCHAR 0058
ENCODING 88
SWIDTH 630 0
DWIDTH 21 0
BBX 19 24 1 0
BITMAP
F00060
7000C0
780180
3C0180
1C0300
1E0600
0F0E00
070C00
079800
03F800
01F000
01E000
00F000
01F000
03F800
033C00
061C00
0C1E00
0C0F00
180700
300780
3003C0
6001C0
C001E0
ENDCHAR
STARTCHAR 0059
ENCODING 89
SWIDTH 630 0
DWIDTH 21 0
BBX 20 24 1 0
BITMAP
F00070
700060
3800C0
380180
1C0380
1E0300
0E0600
070C00
070C00
039800
03F000
01F000
00E000
00E000
00E000
00E000
00E000
00E000
00E000
00E000
00E000
00E000
00E000
00E000
ENDCHAR
STARTCHAR 005A
ENCODING 90
SWIDTH 600 0
DWIDTH 20 0
BBX 16 24 2 0
BITMAP
7FFF
7FFF
000F
000E
001C
003C
0038
0078
00F0
00E0
01E0
01C0
0380
0780
0700
0F00
1E00
1C00
3C00
3800
7000
F000
FFFF
FFFF
ENDCHAR
STARTCHAR 005B
ENCODING 91
SWIDTH 330 0
DWIDTH 11 0
BBX 6 31 3 -5
BITMAP
FC
FC
C0
C0
C0
C0
C0
C0
C0
C0
C0
C0
C0
C0
C0
C0
C0
C0
C0
C0
C0
C0
C0
C0
C0
C0
C0
C0
C0
FC
FC
ENDCHAR
STARTCHAR 005C
ENCODING 92
SWIDTH 510 0
DWIDTH 17 0
BBX 11 29 3 -5
BITMAP
C000
C000
6000
6000
6000
3000
3000
3000
3800
1800
1800
1C00
0C00
0C00
0E00
0600
0600
0700
0300
0300
0380
0180
0180
0180
00C0
00C0
00C0
0060
0060
ENDCHAR
STARTCHAR 005D
ENCODING 93
SWIDTH 330 0
DWIDTH 11 0
BBX 6 31 2 -5
BITMAP
FC
FC
0C
0C
0C
0C
0C
0C
0C
0C
0C
0C
0C
0C
0C
0C
0C
0C
0C
0C
0C
0C
0C
0C
0C
0C
0C
0C
0C
FC
FC
ENDCHAR
STARTCHAR 005E
ENCODING 94
SWIDTH 630 0
DWIDTH 21 0
BBX 17 17 2 7
BITMAP
008000
008000
01C000
01C000
036000
036000
063000
063000
0C1800
0C1800
180C00
180C00
300600
300600
600300
E00300
C00180
ENDCHAR
STARTCHAR 005F
ENCODING 95
SWIDTH 510 0
DWIDTH 17 0
BBX 15 2 1 -2
BITMAP
FFFE
FFFE
ENDCHAR
STARTCHAR 0060
ENCODING 96
SWIDTH 600 0
DWIDTH 20 0
BBX 7 5 7 21
BITMAP
E0
70
38
1C
0E
ENDCHAR
STARTCHAR 0061
ENCODING 97
SWIDTH 540 0
DWIDTH 18 0
BBX 16 18 2 0
BITMAP
07C0
1FF0
3870
2038
0038
0038
0038
07F8
1FF8
7C38
7038
E038
E038
E038
E078
70DC
7F9F
1E0F
ENDCHAR
STARTCHAR 0062
ENCODING 98
SWIDTH 630 0
DWIDTH 21 0
BBX 16 26 3 0
BITMAP
E000
E000
E000
E000
E000
E000
E000
E000
E3F0
EFF8
FC1C
F80E
E00E
E007
E007
E007
E007
E007
E007
E007
E007
E00E
F01E
FC3C
EFF8
E3E0
ENDCHAR
STARTCHAR 0063
ENCODING 99
SWIDTH 510 0
DWIDTH 17 0
BBX 13 18 2 0
BITMAP
07F0
1FF8
3C18
7800
7000
F000
E000
E000
E000
E000
E000
E000
7000
7000
3800
3C08
1FF8
07E0
ENDCHAR
STARTCHAR 0064
ENCODING 100
SWIDTH 630 0
DWIDTH 21 0
BBX 16 26 2 0
BITMAP
0007
0007
0007
0007
0007
0007
0007
0007
07E7
1FF7
3C3F
780F
7007
6007
E007
E007
E007
E007
E007
E007
E007
7007
700F
383F
1FF7
0FC7
ENDCHAR
STARTCHAR 0065
ENCODING 101
SWIDTH 540 0
DWIDTH 18 0
BBX 14 18 2 0
BITMAP
07C0
1FF0
3878
7038
701C
E01C
E01C
FFFC
FFFC
E000
E000
E000
7000
7000
3800
3E0C
0FFC
03F0
ENDCHAR
STARTCHAR 0066
ENCODING 102
SWIDTH 360 0
DWIDTH 12 0
BBX 11 26 2 0
BITMAP
07C0
1FE0
1C20
3800
3800
3800
3800
3800
FF80
FF80
3800
3800
3800
3800
3800
3800
3800
3800
3800
3800
3800
3800
3800
3800
3800
3800
ENDCHAR
STARTCHAR 0067
ENCODING 103
SWIDTH 630 0
DWIDTH 21 0
BBX 16 24 2 -6
BITMAP
07E7
1FF7
3C3F
780F
7007
7007
E007
E007
E007
E007
E007
E007
E007
7007
701F
383F
1FF7
0FC7
0007
0006
000E
603C
7FF8
1FE0
ENDCHAR
STARTCHAR 0068
ENCODING 104
SWIDTH 600 0
DWIDTH 20 0
BBX 14 26 3 0
BITMAP
E000
E000
E000
E000
E000
E000
E000
E000
E3E0
EFF8
FC38
F81C
F01C
E01C
E01C
E01C
E01C
E01C
E01C
E01C
E01C
E01C
E01C
E01C
E01C
E01C
ENDCHAR
STARTCHAR 0069
ENCODING 105
SWIDTH 300 0
DWIDTH 10 0
BBX 3 24 3 0
BITMAP
E0
E0
E0
00
00
00
E0
E0
E0
E0
E0
E0
E0
E0
E0
E0
E0
E0
E0
E0
E0
E0
E0
E0
ENDCHAR
STARTCHAR 006A
ENCODING 106
SWIDTH 300 0
DWIDTH 10 0
BBX 9 30 -2 -6
BITMAP
0380
0380
0380
0000
0000
0000
0380
0380
0380
0380
0380
0380
0380
0380
0380
0380
0380
0380
0380
0380
0380
0380
0380
0380
0380
0380
0300
8700
FE00
7C00
ENDCHAR
STARTCHAR 006B
ENCODING 107
SWIDTH 570 0
DWIDTH 19 0
BBX 16 26 3 0
BITMAP
E000
E000
E000
E000
E000
E000
E000
E000
E006
E01C
E030
E060
E0C0
E180
E300
EE00
FE00
EF00
E780
E3C0
E1E0
E0F0
E078
E03C
E01E
E00F
ENDCHAR
STARTCHAR 006C
ENCODING 108
SWIDTH 300 0
DWIDTH 10 0
BBX 3 26 3 0
BITMAP
E0
E0
E0
E0
E0
E0
E0
E0
E0
E0
E0
E0
E0
E0
E0
E0
E0
E0
E0
E0
E0
E0
E0
E0
E0
E0
ENDCHAR
STARTCHAR 006D
ENCODING 109
SWIDTH 930 0
DWIDTH 31 0
BBX 25 18 3 0
BITMAP
E3E03C00
E7F8FF00
EE39C700
F81F0380
F01E0380
F01E0380
E01C0380
E01C0380
E01C0380
E01C0380
E01C0380
E01C0380
E01C0380
E01C0380
E01C0380
E01C0380
E01C0380
E01C0380
ENDCHAR
STARTCHAR 006E
ENCODING 110
SWIDTH 600 0
DWIDTH 20 0
BBX 14 18 3 0
BITMAP
E3E0
EFF8
FC38
F81C
F01C
E01C
E01C
E01C
E01C
E01C
E01C
E01C
E01C
E01C
E01C
E01C
E01C
E01C
ENDCHAR
STARTCHAR 006F
ENCODING 111
SWIDTH 600 0
DWIDTH 20 0
BBX 16 18 2 0
BITMAP
07E0
1FF8
3C3C
700E
700E
E007
E007
E007
E007
E007
E007
E007
E007
700E
700E
3C3C
1FF8
07E0
ENDCHAR
STARTCHAR 0070
ENCODING 112
SWIDTH 630 0
DWIDTH 21 0
BBX 16 24 3 -6
BITMAP
E3F0
EFF8
FC1C
F80E
E00E
E007
E007
E007
E007
E007
E007
E007
E00E
E00E
F01C
FC3C
EFF8
E7E0
E000
E000
E000
E000
E000
E000
ENDCHAR
STARTCHAR 0071
ENCODING 113
SWIDTH 630 0
DWIDTH 21 0
BBX 16 24 2 -6
BITMAP
07E7
1FF7
3C3F
780F
7007
6007
E007
E007
E007
E007
E007
E007
E007
7007
700F
383F
1FF7
0FC7
0007
0007
0007
0007
0007
0007
ENDCHAR
STARTCHAR 0072
ENCODING 114
SWIDTH 420 0
DWIDTH 14 0
BBX 11 18 3 0
BITMAP
E1E0
E7E0
EFE0
FE00
F800
F000
E000
E000
E000
E000
E000
E000
E000
E000
E000
E000
E000
E000
ENDCHAR
STARTCHAR 0073
ENCODING 115
SWIDTH 510 0
DWIDTH 17 0
BBX 12 18 3 0
BITMAP
1F80
7FE0
7060
E000
E000
E000
F800
7E00
3F80
0FE0
03E0
00F0
0070
0070
8070
E0E0
7FC0
1F00
ENDCHAR
STARTCHAR 0074
ENCODING 116
SWIDTH 360 0
DWIDTH 12 0
BBX 9 21 1 0
BITMAP
3800
3800
3800
FF80
FF80
3800
3800
3800
3800
3800
3800
3800
3800
3800
3800
3800
3800
3800
1C00
1F80
0F80
ENDCHAR
STARTCHAR 0075
ENCODING 117
SWIDTH 600 0
DWIDTH 20 0
BBX 14 18 3 0
BITMAP
E01C
E01C
E01C
E01C
E01C
E01C
E01C
E01C
E01C
E01C
E01C
E01C
E01C
E03C
E07C
70FC
7FDC
1F1C
ENDCHAR
STARTCHAR 0076
ENCODING 118
SWIDTH 510 0
DWIDTH 17 0
BBX 17 18 0 0
BITMAP
E00180
700300
700300
700600
380600
380E00
3C0C00
1C1C00
1C1800
0E1800
0E3000
0F3000
076000
076000
07E000
03C000
03C000
018000
ENDCHAR
STARTCHAR 0077
ENCODING 119
SWIDTH 750 0
DWIDTH 25 0
BBX 23 18 0 0
BITMAP
E03C06
E03C0E
703C0C
707C0C
706E0C
706E1C
386E18
38E718
38C718
38C718
1DC738
1D83B0
1D83B0
1D83B0
0F81F0
0F01E0
0F01E0
0F01E0
ENDCHAR
STARTCHAR 0078
ENCODING 120
SWIDTH 600 0
DWIDTH 20 0
BBX 16 18 2 0
BITMAP
F006
700C
380C
3C18
1C30
0E30
0F60
07C0
03C0
03C0
07E0
0CF0
0C70
1878
303C
701C
600E
C00F
ENDCHAR
STARTCHAR 0079
ENCODING 121
SWIDTH 510 0
DWIDTH 17 0
BBX 17 24 0 -6
BITMAP
E00180
E00180
700300
700300
780600
380600
380600
1C0C00
1C0C00
1C1800
0E1800
0E1800
073000
073000
076000
03E000
03C000
01C000
01C000
018000
018000
030000
030000
070000
ENDCHAR
STARTCHAR 007A
ENCODING 122
SWIDTH 570 0
DWIDTH 19 0
BBX 15 18 2 0
BITMAP
7FFE
7FFE
001E
003C
0078
0070
00E0
01E0
03C0
0780
0F00
0E00
1C00
3C00
7800
F000
FFFE
FFFE
ENDCHAR
STARTCHAR 007B
ENCODING 123
SWIDTH 330 0
DWIDTH 11 0
BBX 8 31 1 -5
BITMAP
07
0F
1C
38
38
38
3C
3C
1C
1C
1C
1C
18
38
F0
F0
38
18
1C
1C
1C
1C
3C
3C
38
38
38
38
1C
0F
07
ENDCHAR
STARTCHAR 007C
ENCODING 124
SWIDTH 360 0
DWIDTH 12 0
BBX 2 31 5 -5
BITMAP
C0
C0
C0
C0
C0
C0
C0
C0
C0
C0
C0
C0
C0
C0
C0
C0
C0
C0
C0
C0
C0
C0
C0
C0
C0
C0
C0
C0
C0
C0
C0
ENDCHAR
STARTCHAR 007D
ENCODING 125
SWIDTH 330 0
DWIDTH 11 0
BBX 8 31 2 -5
BITMAP
E0
F0
38
1C
1C
1C
3C
3C
38
38
38
38
38
1C
0F
0F
1C
18
38
38
38
38
3C
3C
1C
1C
1C
1C
38
F0
E0
ENDCHAR
STARTCHAR 007E
ENCODING 126
SWIDTH 630 0
DWIDTH 21 0
BBX 17 6 2 6
BITMAP
3C0000
7F0180
E3C180
C1E380
C07F00
001E00
ENDCHAR
STARTCHAR 00A0
ENCODING 160
SWIDTH 300 0
DWIDTH 10 0
BBX 1 1 0 0
BITMAP
00
ENDCHAR
STARTCHAR 00A1
ENCODING 161
SWIDTH 300 0
DWIDTH 10 0
BBX 3 24 3 -6
BITMAP
E0
E0
E0
E0
00
00
00
E0
E0
E0
E0
E0
E0
E0
E0
E0
E0
E0
E0
E0
E0
E0
E0
E0
ENDCHAR
STARTCHAR 00A2
ENCODING 162
SWIDTH 630 0
DWIDTH 21 0
BBX 14 24 3 0
BITMAP
00C0
00C0
00C0
03F8
0FFC
3CCC
38C0
70C0
70C0
E0C0
E0C0
E0C0
E0C0
E0C0
E0C0
70C0
70C0
38C0
1EC4
0FFC
03F8
00C0
00C0
00C0
ENDCHAR
STARTCHAR 00A3
ENCODING 163
SWIDTH 630 0
DWIDTH 21 0
BBX 14 24 4 0
BITMAP
01F8
07FC
0E04
0C00
1C00
1C00
1C00
1C00
1C00
1C00
7FC0
7FC0
1C00
1C00
1C00
1C00
1C00
1C00
1800
3800
7000
FFFC
FFFC
FFFC
ENDCHAR
STARTCHAR 00A4
ENCODING 164
SWIDTH 630 0
DWIDTH 21 0
BBX 18 18 1 3
BITMAP
400080
E001C0
73F380
3FFF00
1E1E00
180600
380700
300300
300300
300300
300300
380700
180600
1E1E00
3FFF00
73F380
E001C0
400080
ENDCHAR
STARTCHAR 00A5
ENCODING 165
SWIDTH 630 0
DWIDTH 21 0
BBX 18 24 2 0
BITMAP
F000C0
700180
780300
380300
1C0600
1E0C00
0E0C00
0F1800
073000
03B000
03E000
01C000
3FFE00
3FFE00
01C000
01C000
3FFE00
3FFE00
01C000
01C000
01C000
01C000
01C000
01C000
ENDCHAR
STARTCHAR 00A6
ENCODING 166
SWIDTH 360 0
DWIDTH 12 0
BBX 2 31 5 -5
BITMAP
C0
C0
C0
C0
C0
C0
C0
C0
C0
C0
C0
C0
00
00
00
00
00
00
00
C0
C0
C0
C0
C0
C0
C0
C0
C0
C0
C0
C0
ENDCHAR
STARTCHAR 00A7
ENCODING 167
SWIDTH 630 0
DWIDTH 21 0
BBX 14 29 4 -5
BITMAP
0FE0
3FF8
7818
E000
E000
E000
F000
F800
7F00
3FC0
77F0
61F8
E07C
E03C
E01C
F01C
781C
7E38
3FB0
0FE0
03F8
0078
003C
001C
001C
001C
C078
FFF0
3FC0
ENDCHAR
STARTCHAR 00A8
ENCODING 168
SWIDTH 600 0
DWIDTH 20 0
BBX 10 3 5 21
BITMAP
E1C0
E1C0
E1C0
ENDCHAR
STARTCHAR 00A9
ENCODING 169
SWIDTH 840 0
DWIDTH 28 0
BBX 25 25 1 0
BITMAP
007F0000
03FFC000
0780F000
0E003800
1C001C00
38000E00
703F0600
60FF8300
61E08300
C1800180
C3800180
C3000180
C3000180
C3000180
C3000180
C3000180
61800300
61E08300
70FF8700
383F0E00
1C001C00
0E003800
0780F000
03FFC000
007F0000
ENDCHAR
STARTCHAR 00AA
ENCODING 170
SWIDTH 480 0
DWIDTH 16 0
BBX 12 12 3 13
BITMAP
3F00
7F80
43C0
01C0
01C0
1FC0
7FC0
F1C0
E1C0
E3C0
7FF0
3CF0
ENDCHAR
STARTCHAR 00AB
ENCODING 171
SWIDTH 510 0
DWIDTH 17 0
BBX 14 15 2 1
BITMAP
0208
071C
0E38
1C70
1860
38E0
71C0
E380
71C0
38E0
1860
1C70
0E38
071C
0208
ENDCHAR
STARTCHAR 00AC
ENCODING 172
SWIDTH 780 0
DWIDTH 26 0
BBX 18 9 4 5
BITMAP
FFFFC0
FFFFC0
0000C0
0000C0
0000C0
0000C0
0000C0
0000C0
0000C0
ENDCHAR
STARTCHAR 00AD
ENCODING 173
SWIDTH 570 0
DWIDTH 19 0
BBX 15 2 2 9
BITMAP
FFFE
FFFE
ENDCHAR
STARTCHAR 00AE
ENCODING 174
SWIDTH 630 0
DWIDTH 21 0
BBX 14 14 3 10
BITMAP
0FC0
1FE0
3870
6F18
ED9C
CD8C
CD8C
CF0C
CF0C
ED9C
6D98
3870
1FE0
0FC0
ENDCHAR
STARTCHAR 00AF
ENCODING 175
SWIDTH 510 0
DWIDTH 17 0
BBX 14 2 1 23
BITMAP
FFFC
FFFC
ENDCHAR
STARTCHAR 00B0
ENCODING 176
SWIDTH 420 0
DWIDTH 14 0
BBX 10 10 2 16
BITMAP
1E00
7F80
6180
C0C0
C0C0
C0C0
C0C0
6180
7F80
1E00
ENDCHAR
STARTCHAR 00B1
ENCODING 177
SWIDTH 780 0
DWIDTH 26 0
BBX 18 19 4 0
BITMAP
00C000
00C000
00C000
00C000
00C000
00C000
FFFFC0
FFFFC0
00C000
00C000
00C000
00C000
00C000
00C000
000000
000000
000000
FFFFC0
FFFFC0
ENDCHAR
STARTCHAR 00B2
ENCODING 178
SWIDTH 420 0
DWIDTH 14 0
BBX 10 14 2 10
BITMAP
7E00
FF80
C1C0
00C0
00C0
01C0
0380
0700
0E00
3C00
7000
E000
FFC0
FFC0
ENDCHAR
STARTCHAR 00B3
ENCODING 179
SWIDTH 420 0
DWIDTH 14 0
BBX 8 14 3 10
BITMAP
7C
FE
87
03
03
06
7C
7E
07
03
03
87
FE
7C
ENDCHAR
STARTCHAR 00B4
ENCODING 180
SWIDTH 600 0
DWIDTH 20 0
BBX 7 5 6 21
BITMAP
0E
1C
38
70
E0
ENDCHAR
STARTCHAR 00B5
ENCODING 181
SWIDTH 630 0
DWIDTH 21 0
BBX 15 24 3 -6
BITMAP
E00E
E00E
E00E
E00E
E00E
E00E
E00E
E00E
E00E
E00E
E00E
E00E
E01E
E01E
F03E
F8EE
FFCE
EF8E
E000
E000
E000
E000
E000
E000
ENDCHAR
STARTCHAR 00B6
ENCODING 182
SWIDTH 630 0
DWIDTH 21 0
BBX 13 29 3 -5
BITMAP
1FF8
7FF8
7F98
FF98
FF98
FF98
FF98
FF98
7F98
7F98
3F98
0F98
0198
0198
0198
0198
0198
0198
0198
0198
0198
0198
0198
0198
0198
0198
0198
0198
0198
ENDCHAR
STARTCHAR 00B7
ENCODING 183
SWIDTH 300 0
DWIDTH 10 0
BBX 4 4 3 8
BITMAP
F0
F0
F0
F0
ENDCHAR
STARTCHAR 00B8
ENCODING 184
SWIDTH 600 0
DWIDTH 20 0
BBX 5 7 9 -7
BITMAP
60
40
F0
38
18
18
F0
ENDCHAR
STARTCHAR 00B9
ENCODING 185
SWIDTH 420 0
DWIDTH 14 0
BBX 8 14 3 10
BITMAP
38
F8
D8
18
18
18
18
18
18
18
18
18
FF
FF
ENDCHAR
STARTCHAR 00BA
ENCODING 186
SWIDTH 480 0
DWIDTH 16 0
BBX 12 12 2 13
BITMAP
1F80
3FC0
70E0
E070
E070
E070
E070
E070
E070
70E0
3FC0
1F80
ENDCHAR
STARTCHAR 00BB
ENCODING 187
SWIDTH 510 0
DWIDTH 17 0
BBX 14 15 1 1
BITMAP
4100
E380
71C0
38E0
1860
1C70
0E38
071C
0E38
1C70
1860
38E0
71C0
E380
4100
ENDCHAR
STARTCHAR 00BC
ENCODING 188
SWIDTH 780 0
DWIDTH 26 0
BBX 23 24 1 0
BITMAP
380018
F80030
D80060
180060
1800C0
180180
180300
180700
180600
180C00
181818
183038
183078
1860D8
00C198
018318
018618
030E18
060FFE
0C0FFE
1C0018
180018
300018
600018
ENDCHAR
STARTCHAR 00BD
ENCODING 189
SWIDTH 780 0
DWIDTH 26 0
BBX 23 24 1 0
BITMAP
380018
F80030
D80060
180060
1800C0
180180
180300
180700
180600
180C00
1819F8
1833FC
18320E
186006
00C006
01800E
01801C
030038
060070
0C00E0
1C01C0
180380
3003FE
6003FE
ENDCHAR
STARTCHAR 00BE
ENCODING 190
SWIDTH 780 0
DWIDTH 26 0
BBX 22 24 2 0
BITMAP
7E000C
FF0018
838030
018030
018060
0700C0
7C0180
7E0380
038300
018600
018C30
839870
FF18F0
7E31B0
006330
00C630
00CC30
019C30
031FFC
061FFC
0E0030
0C0030
180030
300030
ENDCHAR
STARTCHAR 00BF
ENCODING 191
SWIDTH 420 0
DWIDTH 14 0
BBX 12 24 1 -6
BITMAP
0380
0380
0380
0380
0000
0000
0000
0380
0380
0380
0300
0700
0E00
1C00
3800
7800
7000
E000
E000
E000
E000
7830
3FF0
0FC0
ENDCHAR
STARTCHAR 00C0
ENCODING 192
SWIDTH 690 0
DWIDTH 23 0
BBX 22 31 0 0
BITMAP
01C000
00E000
007000
003800
001C00
000000
000000
003000
003000
007800
007800
00DC00
00DC00
00DE00
018E00
018E00
030700
030700
060380
060380
0603C0
0C01C0
0FFFC0
1FFFE0
1800E0
3000F0
300070
300078
600038
600038
C0001C
ENDCHAR
STARTCHAR 00C1
ENCODING 193
SWIDTH 690 0
DWIDTH 23 0
BBX 22 31 0 0
BITMAP
000700
000E00
001C00
003800
007000
000000
000000
003000
003000
007800
007800
00DC00
00DC00
00DE00
018E00
018E00
030700
030700
060380
060380
0603C0
0C01C0
0FFFC0
1FFFE0
1800E0
3000F0
300070
300078
600038
600038
C0001C
ENDCHAR
STARTCHAR 00C2
ENCODING 194
SWIDTH 690 0
DWIDTH 23 0
BBX 22 31 0 0
BITMAP
007C00
007C00
00EE00
01C700
030180
000000
000000
003000
003000
007800
007800
00DC00
00DC00
00DE00
018E00
018E00
030700
030700
060380
060380
0603C0
0C01C0
0FFFC0
1FFFE0
1800E0
3000F0
300070
300078
600038
600038
C0001C
ENDCHAR
STARTCHAR 00C3
ENCODING 195
SWIDTH 690 0
DWIDTH 23 0
BBX 22 30 0 0
BITMAP
01E180
01F980
033F00
030F00
000000
000000
003000
003000
007800
007800
00DC00
00DC00
00DE00
018E00
018E00
030700
030700
060380
060380
0603C0
0C01C0
0FFFC0
1FFFE0
1800E0
3000F0
300070
300078
600038
600038
C0001C
ENDCHAR
STARTCHAR 00C4
ENCODING 196
SWIDTH 690 0
DWIDTH 23 0
BBX 22 29 0 0
BITMAP
038700
038700
038700
000000
000000
003000
003000
007800
007800
00DC00
00DC00
00DE00
018E00
018E00
030700
030700
060380
060380
0603C0
0C01C0
0FFFC0
1FFFE0
1800E0
3000F0
300070
300078
600038
600038
C0001C
ENDCHAR
STARTCHAR 00C5
ENCODING 197
SWIDTH 690 0
DWIDTH 23 0
BBX 22 31 0 0
BITMAP
003800
004400
008200
008200
008200
004400
003800
003000
003000
007800
007800
00DC00
00DC00
00DE00
018E00
018E00
030700
030700
060380
060380
0603C0
0C01C0
0FFFC0
1FFFE0
1800E0
3000F0
300070
300078
600038
600038
C0001C
ENDCHAR
STARTCHAR 00C6
ENCODING 198
SWIDTH 900 0
DWIDTH 30 0
BBX 29 24 0 0
BITMAP
0001FFF0
0003FFF0
0003C000
0007C000
000FC000
000DC000
0019C000
0019C000
0031C000
0061C000
0061C000
00C1FFE0
0181FFE0
0181C000
0301C000
07FFC000
07FFC000
0C01C000
1801C000
1801C000
3001C000
6001C000
6001FFF8
C001FFF8
ENDCHAR
STARTCHAR 00C7
ENCODING 199
SWIDTH 690 0
DWIDTH 23 0
BBX 19 31 2 -7
BITMAP
00FE00
07FFC0
0F01E0
1C0020
380000
780000
700000
700000
E00000
E00000
E00000
E00000
E00000
E00000
E00000
E00000
700000
700000
780000
380000
1E0020
0F01E0
07FFC0
01FE00
003000
002000
007800
001C00
000C00
000C00
007800
ENDCHAR
STARTCHAR 00C8
ENCODING 200
SWIDTH 540 0
DWIDTH 18 0
BBX 14 31 3 0
BITMAP
1C00
0E00
0700
0380
01C0
0000
0000
FFF8
FFF8
E000
E000
E000
E000
E000
E000
E000
E000
E000
FFF0
FFF0
E000
E000
E000
E000
E000
E000
E000
E000
E000
FFFC
FFFC
ENDCHAR
STARTCHAR 00C9
ENCODING 201
SWIDTH 540 0
DWIDTH 18 0
BBX 14 31 3 0
BITMAP
00E0
01C0
0380
0700
0E00
0000
0000
FFF8
FFF8
E000
E000
E000
E000
E000
E000
E000
E000
E000
FFF0
FFF0
E000
E000
E000
E000
E000
E000
E000
E000
E000
FFFC
FFFC
ENDCHAR
STARTCHAR 00CA
ENCODING 202
SWIDTH 540 0
DWIDTH 18 0
BBX 14 31 3 0
BITMAP
07C0
07C0
0EE0
1C70
3018
0000
0000
FFF8
FFF8
E000
E000
E000
E000
E000
E000
E000
E000
E000
FFF0
FFF0
E000
E000
E000
E000
E000
E000
E000
E000
E000
FFFC
FFFC
ENDCHAR
STARTCHAR 00CB
ENCODING 203
SWIDTH 540 0
DWIDTH 18 0
BBX 14 29 3 0
BITMAP
3870
3870
3870
0000
0000
FFF8
FFF8
E000
E000
E000
E000
E000
E000
E000
E000
E000
FFF0
FFF0
E000
E000
E000
E000
E000
E000
E000
E000
E000
FFFC
FFFC
ENDCHAR
STARTCHAR 00CC
ENCODING 204
SWIDTH 300 0
DWIDTH 10 0
BBX 7 31 0 0
BITMAP
E0
70
38
1C
0E
00
00
1C
1C
1C
1C
1C
1C
1C
1C
1C
1C
1C
1C
1C
1C
1C
1C
1C
1C
1C
1C
1C
1C
1C
1C
ENDCHAR
STARTCHAR 00CD
ENCODING 205
SWIDTH 300 0
DWIDTH 10 0
BBX 7 31 2 0
BITMAP
0E
1C
38
70
E0
00
00
70
70
70
70
70
70
70
70
70
70
70
70
70
70
70
70
70
70
70
70
70
70
70
70
ENDCHAR
STARTCHAR 00CE
ENCODING 206
SWIDTH 300 0
DWIDTH 10 0
BBX 11 31 -1 0
BITMAP
1F00
1F00
3B80
71C0
C060
0000
0000
0E00
0E00
0E00
0E00
0E00
0E00
0E00
0E00
0E00
0E00
0E00
0E00
0E00
0E00
0E00
0E00
0E00
0E00
0E00
0E00
0E00
0E00
0E00
0E00
ENDCHAR
STARTCHAR 00CF
ENCODING 207
SWIDTH 300 0
DWIDTH 10 0
BBX 10 29 0 0
BITMAP
E1C0
E1C0
E1C0
0000
0000
1C00
1C00
1C00
1C00
1C00
1C00
1C00
1C00
1C00
1C00
1C00
1C00
1C00
1C00
1C00
1C00
1C00
1C00
1C00
1C00
1C00
1C00
1C00
1C00
ENDCHAR
STARTCHAR 00D0
ENCODING 208
SWIDTH 750 0
DWIDTH 25 0
BBX 24 24 -1 0
BITMAP
0FFF80
0FFFE0
0E01F0
0E0078
0E001C
0E001E
0E000E
0E000F
0E0007
0E0007
0E0007
FFF007
FFF007
0E0007
0E0007
0E0007
0E000E
0E000E
0E001C
0E001C
0E0038
0E01F0
0FFFE0
0FFF00
ENDCHAR
STARTCHAR 00D1
ENCODING 209
SWIDTH 720 0
DWIDTH 24 0
BBX 18 30 3 0
BITMAP
078600
07E600
0CFC00
0C3C00
000000
000000
E000C0
E000C0
F000C0
F800C0
FC00C0
DC00C0
CE00C0
CF00C0
C700C0
C380C0
C3C0C0
C1C0C0
C0E0C0
C0F0C0
C070C0
C038C0
C03CC0
C01CC0
C00EC0
C00FC0
C007C0
C003C0
C001C0
C001C0
ENDCHAR
STARTCHAR 00D2
ENCODING 210
SWIDTH 780 0
DWIDTH 26 0
BBX 22 31 2 0
BITMAP
01C000
00E000
007000
003800
001C00
000000
000000
01FE00
07FF80
0F03C0
1C00E0
380070
780078
700038
700038
E0001C
E0001C
E0001C
E0001C
E0001C
E0001C
E0001C
E0001C
700038
700038
780078
380070
1C00E0
0F03C0
07FF80
01FE00
ENDCHAR
STARTCHAR 00D3
ENCODING 211
SWIDTH 780 0
DWIDTH 26 0
BBX 22 31 2 0
BITMAP
000700
000E00
001C00
003800
007000
000000
000000
01FE00
07FF80
0F03C0
1C00E0
380070
780078
700038
700038
E0001C
E0001C
E0001C
E0001C
E0001C
E0001C
E0001C
E0001C
700038
700038
780078
380070
1C00E0
0F03C0
07FF80
01FE00
ENDCHAR
STARTCHAR 00D4
ENCODING 212
SWIDTH 780 0
DWIDTH 26 0
BBX 22 31 2 0
BITMAP
007C00
007C00
00EE00
01C700
030180
000000
000000
01FE00
07FF80
0F03C0
1C00E0
380070
780078
700038
700038
E0001C
E0001C
E0001C
E0001C
E0001C
E0001C
E0001C
E0001C
700038
700038
780078
380070
1C00E0
0F03C0
07FF80
01FE00
ENDCHAR
STARTCHAR 00D5
ENCODING 213
SWIDTH 780 0
DWIDTH 26 0
BBX 22 30 2 0
BITMAP
01E180
01F980
033F00
030F00
000000
000000
01FE00
07FF80
0F03C0
1C00E0
380070
780078
700038
700038
E0001C
E0001C
E0001C
E0001C
E0001C
E0001C
E0001C
E0001C
700038
700038
780078
380070
1C00E0
0F03C0
07FF80
01FE00
ENDCHAR
STARTCHAR 00D6
ENCODING 214
SWIDTH 780 0
DWIDTH 26 0
BBX 22 29 2 0
BITMAP
038700
038700
038700
000000
000000
01FE00
07FF80
0F03C0
1C00E0
380070
780078
700038
700038
E0001C
E0001C
E0001C
E0001C
E0001C
E0001C
E0001C
E0001C
700038
700038
780078
380070
1C00E0
0F03C0
07FF80
01FE00
ENDCHAR
STARTCHAR 00D7
ENCODING 215
SWIDTH 780 0
DWIDTH 26 0
BBX 19 19 3 0
BITMAP
400040
E000E0
7001C0
380380
1C0700
0E0E00
071C00
03B800
01F000
00E000
01F000
03B800
071C00
0E0E00
1C0700
380380
7001C0
E000E0
400040
ENDCHAR
STARTCHAR 00D8
ENCODING 216
SWIDTH 780 0
DWIDTH 26 0
BBX 22 24 2 0
BITMAP
01FC0C
07FF98
0F03F0
1C00E0
3800F0
7801F8
7001B8
700338
E0061C
E00C1C
E0181C
E0301C
E0301C
E0601C
E0C01C
E1801C
730038
760038
7E0078
3C0070
1C00E0
3F03C0
67FF80
C0FE00
ENDCHAR
STARTCHAR 00D9
ENCODING 217
SWIDTH 690 0
DWIDTH 23 0
BBX 17 31 3 0
BITMAP
070000
038000
01C000
00E000
007000
000000
000000
E00180
E00180
E00180
E00180
E00180
E00180
E00180
E00180
E00180
E00180
E00180
E00180
E00180
E00180
E00180
E00180
E00180
E00180
E00180
700300
780300
3C0E00
1FFC00
07F000
ENDCHAR
STARTCHAR 00DA
ENCODING 218
SWIDTH 690 0
DWIDTH 23 0
BBX 17 31 3 0
BITMAP
003800
007000
00E000
01C000
038000
000000
000000
E00180
E00180
E00180
E00180
E00180
E00180
E00180
E00180
E00180
E00180
E00180
E00180
E00180
E00180
E00180
E00180
E00180
E00180
E00180
700300
780300
3C0E00
1FFC00
07F000
ENDCHAR
STARTCHAR 00DB
ENCODING 219
SWIDTH 690 0
DWIDTH 23 0
BBX 17 31 3 0
BITMAP
03E000
03E000
077000
0E3800
180C00
000000
000000
E00180
E00180
E00180
E00180
E00180
E00180
E00180
E00180
E00180
E00180
E00180
E00180
E00180
E00180
E00180
E00180
E00180
E00180
E00180
700300
780300
3C0E00
1FFC00
07F000
ENDCHAR
STARTCHAR 00DC
ENCODING 220
SWIDTH 690 0
DWIDTH 23 0
BBX 17 29 3 0
BITMAP
0E1C00
0E1C00
0E1C00
000000
000000
E00180
E00180
E00180
E00180
E00180
E00180
E00180
E00180
E00180
E00180
E00180
E00180
E00180
E00180
E00180
E00180
E00180
E00180
E00180
700300
780300
3C0E00
1FFC00
07F000
ENDCHAR
STARTCHAR 00DD
ENCODING 221
SWIDTH 630 0
DWIDTH 21 0
BBX 20 31 1 0
BITMAP
000E00
001C00
003800
007000
00E000
000000
000000
F00070
700060
3800C0
380180
1C0380
1E0300
0E0600
070C00
070C00
039800
03F000
01F000
00E000
00E000
00E000
00E000
00E000
00E000
00E000
00E000
00E000
00E000
00E000
00E000
ENDCHAR
STARTCHAR 00DE
ENCODING 222
SWIDTH 540 0
DWIDTH 18 0
BBX 14 24 3 0
BITMAP
E000
E000
E000
E000
E000
FFC0
FFF0
E078
E03C
E01C
E01C
E01C
E01C
E01C
E038
E078
E0F0
FFE0
FF00
E000
E000
E000
E000
E000
ENDCHAR
STARTCHAR 00DF
ENCODING 223
SWIDTH 600 0
DWIDTH 20 0
BBX 16 26 3 0
BITMAP
1F80
3FE0
70F0
E070
E070
E070
E0F0
E0E0
E1E0
E1C0
E380
E380
E380
E3C0
E1E0
E0F0
E07C
E03E
E00E
E007
E007
E007
E007
E30E
E3FE
E1F8
ENDCHAR
STARTCHAR 00E0
ENCODING 224
SWIDTH 540 0
DWIDTH 18 0
BBX 16 26 2 0
BITMAP
0E00
0700
0380
01C0
00E0
0000
0000
0000
07C0
1FF0
3870
2038
0038
0038
0038
07F8
1FF8
7C38
7038
E038
E038
E038
E078
70DC
7F9F
1E0F
ENDCHAR
STARTCHAR 00E1
ENCODING 225
SWIDTH 540 0
DWIDTH 18 0
BBX 16 26 2 0
BITMAP
00E0
01C0
0380
0700
0E00
0000
0000
0000
07C0
1FF0
3870
2038
0038
0038
0038
07F8
1FF8
7C38
7038
E038
E038
E038
E078
70DC
7F9F
1E0F
ENDCHAR
STARTCHAR 00E2
ENCODING 226
SWIDTH 540 0
DWIDTH 18 0
BBX 16 26 2 0
BITMAP
07C0
07C0
0EE0
1C70
3018
0000
0000
0000
07C0
1FF0
3870
2038
0038
0038
0038
07F8
1FF8
7C38
7038
E038
E038
E038
E078
70DC
7F9F
1E0F
ENDCHAR
STARTCHAR 00E3
ENCODING 227
SWIDTH 540 0
DWIDTH 18 0
BBX 16 25 2 0
BITMAP
1E18
1F98
33F0
30F0
0000
0000
0000
07C0
1FF0
3870
2038
0038
0038
0038
07F8
1FF8
7C38
7038
E038
E038
E038
E078
70DC
7F9F
1E0F
ENDCHAR
STARTCHAR 00E4
ENCODING 228
SWIDTH 540 0
DWIDTH 18 0
BBX 16 24 2 0
BITMAP
3870
3870
3870
0000
0000
0000
07C0
1FF0
3870
2038
0038
0038
0038
07F8
1FF8
7C38
7038
E038
E038
E038
E078
70DC
7F9F
1E0F
ENDCHAR
STARTCHAR 00E5
ENCODING 229
SWIDTH 540 0
DWIDTH 18 0
BBX 16 28 2 0
BITMAP
0380
0440
0820
0820
0820
0440
0380
0000
0000
0000
07C0
1FF0
3870
2038
0038
0038
0038
07F8
1FF8
7C38
7038
E038
E038
E038
E078
70DC
7F9F
1E0F
ENDCHAR
STARTCHAR 00E6
ENCODING 230
SWIDTH 840 0
DWIDTH 28 0
BBX 24 18 2 0
BITMAP
07C3F0
1FFFFC
387E1C
203C0E
003C06
003807
003807
07FFFF
1FFFFF
7C3800
703800
E03800
E03C00
E03C00
E03E00
70EF03
7F87FF
1F01FC
ENDCHAR
STARTCHAR 00E7
ENCODING 231
SWIDTH 510 0
DWIDTH 17 0
BBX 13 25 2 -7
BITMAP
07F0
1FF8
3C18
7800
7000
F000
E000
E000
E000
E000
E000
E000
7000
7000
3800
3C08
1FF8
07E0
0180
0100
03C0
00E0
0060
0060
03C0
ENDCHAR
STARTCHAR 00E8
ENCODING 232
SWIDTH 540 0
DWIDTH 18 0
BBX 14 26 2 0
BITMAP
1C00
0E00
0700
0380
01C0
0000
0000
0000
07C0
1FF0
3878
7038
701C
E01C
E01C
FFFC
FFFC
E000
E000
E000
7000
7000
3800
3E0C
0FFC
03F0
ENDCHAR
STARTCHAR 00E9
ENCODING 233
SWIDTH 540 0
DWIDTH 18 0
BBX 14 26 2 0
BITMAP
0070
00E0
01C0
0380
0700
0000
0000
0000
07C0
1FF0
3878
7038
701C
E01C
E01C
FFFC
FFFC
E000
E000
E000
7000
7000
3800
3E0C
0FFC
03F0
ENDCHAR
STARTCHAR 00EA
ENCODING 234
SWIDTH 540 0
DWIDTH 18 0
BBX 14 26 2 0
BITMAP
07C0
07C0
0EE0
1C70
3018
0000
0000
0000
07C0
1FF0
3878
7038
701C
E01C
E01C
FFFC
FFFC
E000
E000
E000
7000
7000
3800
3E0C
0FFC
03F0
ENDCHAR
STARTCHAR 00EB
ENCODING 235
SWIDTH 540 0
DWIDTH 18 0
BBX 14 24 2 0
BITMAP
1C38
1C38
1C38
0000
0000
0000
07C0
1FF0
3878
7038
701C
E01C
E01C
FFFC
FFFC
E000
E000
E000
7000
7000
3800
3E0C
0FFC
03F0
ENDCHAR
STARTCHAR 00EC
ENCODING 236
SWIDTH 300 0
DWIDTH 10 0
BBX 7 26 0 0
BITMAP
E0
70
38
1C
0E
00
00
00
1C
1C
1C
1C
1C
1C
1C
1C
1C
1C
1C
1C
1C
1C
1C
1C
1C
1C
ENDCHAR
STARTCHAR 00ED
ENCODING 237
SWIDTH 300 0
DWIDTH 10 0
BBX 7 26 2 0
BITMAP
0E
1C
38
70
E0
00
00
00
70
70
70
70
70
70
70
70
70
70
70
70
70
70
70
70
70
70
ENDCHAR
STARTCHAR 00EE
ENCODING 238
SWIDTH 300 0
DWIDTH 10 0
BBX 11 26 -1 0
BITMAP
1F00
1F00
3B80
71C0
C060
0000
0000
0000
0E00
0E00
0E00
0E00
0E00
0E00
0E00
0E00
0E00
0E00
0E00
0E00
0E00
0E00
0E00
0E00
0E00
0E00
ENDCHAR
STARTCHAR 00EF
ENCODING 239
SWIDTH 300 0
DWIDTH 10 0
BBX 10 24 0 0
BITMAP
E1C0
E1C0
E1C0
0000
0000
0000
1C00
1C00
1C00
1C00
1C00
1C00
1C00
1C00
1C00
1C00
1C00
1C00
1C00
1C00
1C00
1C00
1C00
1C00
ENDCHAR
STARTCHAR 00F0
ENCODING 240
SWIDTH 600 0
DWIDTH 20 0
BBX 16 27 2 0
BITMAP
00C0
F980
FF00
1F80
0FC0
1BE0
30F0
0078
0038
07FC
1FFE
3C3E
780E
700F
F007
E007
E007
E007
E007
E007
E007
700E
700E
781C
3C3C
1FF8
07E0
ENDCHAR
STARTCHAR 00F1
ENCODING 241
SWIDTH 600 0
DWIDTH 20 0
BBX 14 25 3 0
BITMAP
1E18
1F98
33F0
30F0
0000
0000
0000
E3E0
EFF8
FC38
F81C
F01C
E01C
E01C
E01C
E01C
E01C
E01C
E01C
E01C
E01C
E01C
E01C
E01C
E01C
ENDCHAR
STARTCHAR 00F2
ENCODING 242
SWIDTH 600 0
DWIDTH 20 0
BBX 16 26 2 0
BITMAP
0E00
0700
0380
01C0
00E0
0000
0000
0000
07E0
1FF8
3C3C
700E
700E
E007
E007
E007
E007
E007
E007
E007
E007
700E
700E
3C3C
1FF8
07E0
ENDCHAR
STARTCHAR 00F3
ENCODING 243
SWIDTH 600 0
DWIDTH 20 0
BBX 16 26 2 0
BITMAP
0038
0070
00E0
01C0
0380
0000
0000
0000
07E0
1FF8
3C3C
700E
700E
E007
E007
E007
E007
E007
E007
E007
E007
700E
700E
3C3C
1FF8
07E0
ENDCHAR
STARTCHAR 00F4
ENCODING 244
SWIDTH 600 0
DWIDTH 20 0
BBX 16 26 2 0
BITMAP
03E0
03E0
0770
0E38
180C
0000
0000
0000
07E0
1FF8
3C3C
700E
700E
E007
E007
E007
E007
E007
E007
E007
E007
700E
700E
3C3C
1FF8
07E0
ENDCHAR
STARTCHAR 00F5
ENCODING 245
SWIDTH 600 0
DWIDTH 20 0
BBX 16 25 2 0
BITMAP
0F0C
0FCC
19F8
1878
0000
0000
0000
07E0
1FF8
3C3C
700E
700E
E007
E007
E007
E007
E007
E007
E007
E007
700E
700E
3C3C
1FF8
07E0
ENDCHAR
STARTCHAR 00F6
ENCODING 246
SWIDTH 600 0
DWIDTH 20 0
BBX 16 24 2 0
BITMAP
1C38
1C38
1C38
0000
0000
0000
07E0
1FF8
3C3C
700E
700E
E007
E007
E007
E007
E007
E007
E007
E007
700E
700E
3C3C
1FF8
07E0
ENDCHAR
STARTCHAR 00F7
ENCODING 247
SWIDTH 780 0
DWIDTH 26 0
BBX 20 19 3 0
BITMAP
00F000
00F000
00F000
00F000
000000
000000
000000
000000
000000
FFFFF0
FFFFF0
000000
000000
000000
000000
00F000
00F000
00F000
00F000
ENDCHAR
STARTCHAR 00F8
ENCODING 248
SWIDTH 600 0
DWIDTH 20 0
BBX 16 18 2 0
BITMAP
07E3
1FFE
3C3C
701C
703E
E03E
E067
E0C7
E187
E187
E307
E607
FC07
7C0E
781E
3C3C
7FF8
C7E0
ENDCHAR
STARTCHAR 00F9
ENCODING 249
SWIDTH 600 0
DWIDTH 20 0
BBX 14 26 3 0
BITMAP
1C00
0E00
0700
0380
01C0
0000
0000
0000
E01C
E01C
E01C
E01C
E01C
E01C
E01C
E01C
E01C
E01C
E01C
E01C
E01C
E03C
E07C
70FC
7FDC
1F1C
ENDCHAR
STARTCHAR 00FA
ENCODING 250
SWIDTH 600 0
DWIDTH 20 0
BBX 14 26 3 0
BITMAP
0070
00E0
01C0
0380
0700
0000
0000
0000
E01C
E01C
E01C
E01C
E01C
E01C
E01C
E01C
E01C
E01C
E01C
E01C
E01C
E03C
E07C
70FC
7FDC
1F1C
ENDCHAR
STARTCHAR 00FB
ENCODING 251
SWIDTH 600 0
DWIDTH 20 0
BBX 14 26 3 0
BITMAP
07C0
07C0
0EE0
1C70
3018
0000
0000
0000
E01C
E01C
E01C
E01C
E01C
E01C
E01C
E01C
E01C
E01C
E01C
E01C
E01C
E03C
E07C
70FC
7FDC
1F1C
ENDCHAR
STARTCHAR 00FC
ENCODING 252
SWIDTH 600 0
DWIDTH 20 0
BBX 14 24 3 0
BITMAP
3870
3870
3870
0000
0000
0000
E01C
E01C
E01C
E01C
E01C
E01C
E01C
E01C
E01C
E01C
E01C
E01C
E01C
E03C
E07C
70FC
7FDC
1F1C
ENDCHAR
STARTCHAR 00FD
ENCODING 253
SWIDTH 510 0
DWIDTH 17 0
BBX 17 32 0 -6
BITMAP
003800
007000
00E000
01C000
038000
000000
000000
000000
E00180
E00180
700300
700300
780600
380600
380600
1C0C00
1C0C00
1C1800
0E1800
0E1800
073000
073000
076000
03E000
03C000
01C000
01C000
018000
018000
030000
030000
070000
ENDCHAR
STARTCHAR 00FE
ENCODING 254
SWIDTH 630 0
DWIDTH 21 0
BBX 16 32 3 -6
BITMAP
E000
E000
E000
E000
E000
E000
E000
E000
E3F0
E7F8
EE1C
F80E
F00E
E007
E007
E007
E007
E007
E007
E007
E00E
E00E
F01C
FC3C
EFF8
E7E0
E000
E000
E000
E000
E000
E000
ENDCHAR
STARTCHAR 00FF
ENCODING 255
SWIDTH 510 0
DWIDTH 17 0
BBX 17 30 0 -6
BITMAP
0E1C00
0E1C00
0E1C00
000000
000000
000000
E00180
E00180
700300
700300
780600
380600
380600
1C0C00
1C0C00
1C1800
0E1800
0E1800
073000
073000
076000
03E000
03C000
01C000
01C000
018000
018000
030000
030000
070000
ENDCHAR
STARTCHAR 0100
ENCODING 256
SWIDTH 690 0
DWIDTH 23 0
BBX 22 28 0 0
BITMAP
03FF00
03FF00
000000
000000
003000
003000
007800
007800
00DC00
00DC00
00DE00
018E00
018E00
030700
030700
060380
060380
0603C0
0C01C0
0FFFC0
1FFFE0
1800E0
3000F0
300070
300078
600038
600038
C0001C
ENDCHAR
STARTCHAR 0101
ENCODING 257
SWIDTH 540 0
DWIDTH 18 0
BBX 16 23 2 0
BITMAP
1FF8
1FF8
0000
0000
0000
07C0
1FF0
3870
2038
0038
0038
0038
07F8
1FF8
7C38
7038
E038
E038
E038
E078
70DC
7F9F
1E0F
ENDCHAR
STARTCHAR 0102
ENCODING 258
SWIDTH 690 0
DWIDTH 23 0
BBX 22 31 0 0
BITMAP
030180
038380
018700
00FE00
007C00
000000
000000
003000
003000
007800
007800
00DC00
00DC00
00DE00
018E00
018E00
030700
030700
060380
060380
0603C0
0C01C0
0FFFC0
1FFFE0
1800E0
3000F0
300070
300078
600038
600038
C0001C
ENDCHAR
STARTCHAR 0103
ENCODING 259
SWIDTH 540 0
DWIDTH 18 0
BBX 16 26 2 0
BITMAP
3018
3838
1870
0FE0
07C0
0000
0000
0000
07C0
1FF0
3870
2038
0038
0038
0038
07F8
1FF8
7C38
7038
E038
E038
E038
E078
70DC
7F9F
1E0F
ENDCHAR
STARTCHAR 0104
ENCODING 260
SWIDTH 690 0
DWIDTH 23 0
BBX 22 30 0 -6
BITMAP
003000
003000
007800
007800
00DC00
00DC00
00DE00
018E00
018E00
030700
030700
060380
060380
0603C0
0C01C0
0FFFC0
1FFFE0
1800E0
3000F0
300070
700078
600038
600038
C0001C
000060
000040
0000C0
0000C0
0000FC
000078
ENDCHAR
STARTCHAR 0105
ENCODING 261
SWIDTH 540 0
DWIDTH 18 0
BBX 16 24 2 -6
BITMAP
07C0
1FF0
3870
2038
0038
0038
0038
07F8
1FF8
7C38
7038
E038
E038
E038
E078
70DC
7F9F
1E0F
0018
0010
0030
0030
003F
001E
ENDCHAR
STARTCHAR 0106
ENCODING 262
SWIDTH 690 0
DWIDTH 23 0
BBX 19 31 2 0
BITMAP
000700
000E00
001C00
003800
007000
000000
000000
00FE00
07FFC0
0F01E0
1C0020
380000
780000
700000
700000
E00000
E00000
E00000
E00000
E00000
E00000
E00000
E00000
700000
700000
780000
380000
1E0020
0F01E0
07FFC0
01FE00
ENDCHAR
STARTCHAR 0107
ENCODING 263
SWIDTH 510 0
DWIDTH 17 0
BBX 13 26 2 0
BITMAP
0070
00E0
01C0
0380
0700
0000
0000
0000
07F0
1FF8
3C18
7800
7000
F000
E000
E000
E000
E000
E000
E000
7000
7000
3800
3C08
1FF8
07E0
ENDCHAR
STARTCHAR 0108
ENCODING 264
SWIDTH 690 0
DWIDTH 23 0
BBX 19 31 2 0
BITMAP
007C00
007C00
00EE00
01C700
030180
000000
000000
00FE00
07FFC0
0F01E0
1C0020
380000
780000
700000
700000
E00000
E00000
E00000
E00000
E00000
E00000
E00000
E00000
700000
700000
780000
380000
1E0020
0F01E0
07FFC0
01FE00
ENDCHAR
STARTCHAR 0109
ENCODING 265
SWIDTH 510 0
DWIDTH 17 0
BBX 14 26 2 0
BITMAP
03E0
03E0
0770
0E38
180C
0000
0000
0000
07F0
1FF8
3C18
7800
7000
F000
E000
E000
E000
E000
E000
E000
7000
7000
3800
3C08
1FF8
07E0
ENDCHAR
STARTCHAR 010A
ENCODING 266
SWIDTH 690 0
DWIDTH 23 0
BBX 19 29 2 0
BITMAP
003800
003800
003800
000000
000000
00FE00
07FFC0
0F01E0
1C0020
380000
780000
700000
700000
E00000
E00000
E00000
E00000
E00000
E00000
E00000
E00000
700000
700000
780000
380000
1E0020
0F01E0
07FFC0
01FE00
ENDCHAR
STARTCHAR 010B
ENCODING 267
SWIDTH 510 0
DWIDTH 17 0
BBX 13 24 2 0
BITMAP
01C0
01C0
01C0
0000
0000
0000
07F0
1FF8
3C18
7800
7000
F000
E000
E000
E000
E000
E000
E000
7000
7000
3800
3C08
1FF8
07E0
ENDCHAR
STARTCHAR 010C
ENCODING 268
SWIDTH 690 0
DWIDTH 23 0
BBX 19 31 2 0
BITMAP
030180
01C700
00EE00
007C00
007C00
000000
000000
00FE00
07FFC0
0F01E0
1C0020
380000
780000
700000
700000
E00000
E00000
E00000
E00000
E00000
E00000
E00000
E00000
700000
700000
780000
380000
1E0020
0F01E0
07FFC0
01FE00
ENDCHAR
STARTCHAR 010D
ENCODING 269
SWIDTH 510 0
DWIDTH 17 0
BBX 14 26 2 0
BITMAP
180C
0E38
0770
03E0
03E0
0000
0000
0000
07F0
1FF8
3C18
7800
7000
F000
E000
E000
E000
E000
E000
E000
7000
7000
3800
3C08
1FF8
07E0
ENDCHAR
STARTCHAR 010E
ENCODING 270
SWIDTH 750 0
DWIDTH 25 0
BBX 20 31 3 0
BITMAP
0C0600
071C00
03B800
01F000
01F000
000000
000000
FFF800
FFFE00
E01F00
E00780
E001C0
E001E0
E000E0
E000F0
E00070
E00070
E00070
E00070
E00070
E00070
E00070
E00070
E000E0
E000E0
E001C0
E001C0
E00380
E01F00
FFFE00
FFF000
ENDCHAR
STARTCHAR 010F
ENCODING 271
SWIDTH 720 0
DWIDTH 24 0
BBX 22 26 2 0
BITMAP
00071C
00071C
00071C
00070C
00070C
000708
000718
000700
07E700
1FF700
3C3F00
780F00
700700
600700
E00700
E00700
E00700
E00700
E00700
E00700
E00700
700700
700F00
383F00
1FF700
0FC700
ENDCHAR
STARTCHAR 0110
ENCODING 272
SWIDTH 750 0
DWIDTH 25 0
BBX 24 24 -1 0
BITMAP
0FFF80
0FFFE0
0E01F0
0E0078
0E001C
0E001E
0E000E
0E000F
0E0007
0E0007
0E0007
FFF007
FFF007
0E0007
0E0007
0E0007
0E000E
0E000E
0E001C
0E001C
0E0038
0E01F0
0FFFE0
0FFF00
ENDCHAR
STARTCHAR 0111
ENCODING 273
SWIDTH 630 0
DWIDTH 21 0
BBX 19 26 2 0
BITMAP
000700
000700
000700
00FFE0
00FFE0
000700
000700
000700
07E700
1FF700
3C3F00
780F00
700700
600700
E00700
E00700
E00700
E00700
E00700
E00700
E00700
700700
701F00
383F00
1FF700
0FC700
ENDCHAR
STARTCHAR 0112
ENCODING 274
SWIDTH 540 0
DWIDTH 18 0
BBX 14 28 3 0
BITMAP
3FF0
3FF0
0000
0000
FFF8
FFF8
E000
E000
E000
E000
E000
E000
E000
E000
E000
FFF0
FFF0
E000
E000
E000
E000
E000
E000
E000
E000
E000
FFFC
FFFC
ENDCHAR
STARTCHAR 0113
ENCODING 275
SWIDTH 540 0
DWIDTH 18 0
BBX 14 23 2 0
BITMAP
1FF8
1FF8
0000
0000
0000
07C0
1FF0
3878
7038
701C
E01C
E01C
FFFC
FFFC
E000
E000
E000
7000
7000
3800
3E0C
0FFC
03F0
ENDCHAR
STARTCHAR 0114
ENCODING 276
SWIDTH 540 0
DWIDTH 18 0
BBX 14 31 3 0
BITMAP
3018
3838
1870
0FE0
07C0
0000
0000
FFF8
FFF8
E000
E000
E000
E000
E000
E000
E000
E000
E000
FFF0
FFF0
E000
E000
E000
E000
E000
E000
E000
E000
E000
FFFC
FFFC
ENDCHAR
STARTCHAR 0115
ENCODING 277
SWIDTH 540 0
DWIDTH 18 0
BBX 14 26 2 0
BITMAP
3018
3838
1870
0FE0
07C0
0000
0000
0000
07C0
1FF0
3878
7038
701C
E01C
E01C
FFFC
FFFC
E000
E000
E000
7000
7000
3800
3E0C
0FFC
03F0
ENDCHAR
STARTCHAR 0116
ENCODING 278
SWIDTH 540 0
DWIDTH 18 0
BBX 14 29 3 0
BITMAP
0380
0380
0380
0000
0000
FFF8
FFF8
E000
E000
E000
E000
E000
E000
E000
E000
E000
FFF0
FFF0
E000
E000
E000
E000
E000
E000
E000
E000
E000
FFFC
FFFC
ENDCHAR
STARTCHAR 0117
ENCODING 279
SWIDTH 540 0
DWIDTH 18 0
BBX 14 24 2 0
BITMAP
0380
0380
0380
0000
0000
0000
07C0
1FF0
3878
7038
701C
E01C
E01C
FFFC
FFFC
E000
E000
E000
7000
7000
3800
3E0C
0FFC
03F0
ENDCHAR
STARTCHAR 0118
ENCODING 280
SWIDTH 540 0
DWIDTH 18 0
BBX 14 30 3 -6
BITMAP
FFF8
FFF8
E000
E000
E000
E000
E000
E000
E000
E000
E000
FFF0
FFF0
E000
E000
E000
E000
E000
E000
E000
E000
E000
FFFC
FFFC
0060
0040
00C0
00C0
00FC
0078
ENDCHAR
STARTCHAR 0119
ENCODING 281
SWIDTH 540 0
DWIDTH 18 0
BBX 14 24 2 -6
BITMAP
07C0
1FF0
3878
7038
701C
E01C
E01C
FFFC
FFFC
E000
E000
E000
7000
7000
3800
3E0C
0FFC
03F0
00C0
0080
0180
0180
01F8
00F0
ENDCHAR
STARTCHAR 011A
ENCODING 282
SWIDTH 540 0
DWIDTH 18 0
BBX 14 31 3 0
BITMAP
3018
1C70
0EE0
07C0
07C0
0000
0000
FFF8
FFF8
E000
E000
E000
E000
E000
E000
E000
E000
E000
FFF0
FFF0
E000
E000
E000
E000
E000
E000
E000
E000
E000
FFFC
FFFC
ENDCHAR
STARTCHAR 011B
ENCODING 283
SWIDTH 540 0
DWIDTH 18 0
BBX 14 26 2 0
BITMAP
3018
1C70
0EE0
07C0
07C0
0000
0000
0000
07C0
1FF0
3878
7038
701C
E01C
E01C
FFFC
FFFC
E000
E000
E000
7000
7000
3800
3E0C
0FFC
03F0
ENDCHAR
STARTCHAR 011C
ENCODING 284
SWIDTH 720 0
DWIDTH 24 0
BBX 19 31 2 0
BITMAP
007C00
007C00
00EE00
01C700
030180
000000
000000
00FE00
07FFC0
0F01E0
1C0020
380000
780000
700000
700000
E00000
E00000
E00000
E00000
E00000
E00000
E000E0
E000E0
7000E0
7000E0
7800E0
3C00E0
1E00E0
0F80E0
07FFE0
00FF00
ENDCHAR
STARTCHAR 011D
ENCODING 285
SWIDTH 630 0
DWIDTH 21 0
BBX 16 32 2 -6
BITMAP
03E0
03E0
0770
0E38
180C
0000
0000
0000
07E7
1FF7
3C3F
780F
7007
7007
E007
E007
E007
E007
E007
E007
E007
7007
701F
383F
1FF7
0FC7
0007
0006
000E
603C
7FF8
1FE0
ENDCHAR
STARTCHAR 011E
ENCODING 286
SWIDTH 720 0
DWIDTH 24 0
BBX 19 31 2 0
BITMAP
030180
038380
018700
00FE00
007C00
000000
000000
00FE00
07FFC0
0F01E0
1C0020
380000
780000
700000
700000
E00000
E00000
E00000
E00000
E00000
E00000
E000E0
E000E0
7000E0
7000E0
7800E0
3C00E0
1E00E0
0F80E0
07FFE0
00FF00
ENDCHAR
STARTCHAR 011F
ENCODING 287
SWIDTH 630 0
DWIDTH 21 0
BBX 16 32 2 -6
BITMAP
180C
1C1C
0C38
07F0
03E0
0000
0000
0000
07E7
1FF7
3C3F
780F
7007
7007
E007
E007
E007
E007
E007
E007
E007
7007
701F
383F
1FF7
0FC7
0007
0006
000E
603C
7FF8
1FE0
ENDCHAR
STARTCHAR 0120
ENCODING 288
SWIDTH 720 0
DWIDTH 24 0
BBX 19 29 2 0
BITMAP
003800
003800
003800
000000
000000
00FE00
07FFC0
0F01E0
1C0020
380000
780000
700000
700000
E00000
E00000
E00000
E00000
E00000
E00000
E000E0
E000E0
7000E0
7000E0
7800E0
3C00E0
1E00E0
0F80E0
07FFE0
00FF00
ENDCHAR
STARTCHAR 0121
ENCODING 289
SWIDTH 630 0
DWIDTH 21 0
BBX 16 30 2 -6
BITMAP
01C0
01C0
01C0
0000
0000
0000
07E7
1FF7
3C3F
780F
7007
7007
E007
E007
E007
E007
E007
E007
E007
7007
701F
383F
1FF7
0FC7
0007
0006
000E
603C
7FF8
1FE0
ENDCHAR
STARTCHAR 0122
ENCODING 290
SWIDTH 720 0
DWIDTH 24 0
BBX 19 34 2 -10
BITMAP
00FE00
07FFC0
0F01E0
1C0020
380000
780000
700000
700000
E00000
E00000
E00000
E00000
E00000
E00000
E000E0
E000E0
7000E0
7000E0
7800E0
3C00E0
1E00E0
0F80E0
07FFE0
01FF00
000000
000000
000000
003800
003800
003800
001800
001800
001000
002000
ENDCHAR
STARTCHAR 0123
ENCODING 291
SWIDTH 630 0
DWIDTH 21 0
BBX 16 34 2 -6
BITMAP
0040
0080
0180
0180
01C0
01C0
01C0
0000
0000
0000
07E7
1FF7
3C3F
780F
7007
7007
E007
E007
E007
E007
E007
E007
E007
7007
701F
383F
1FF7
0FC7
0007
0006
000E
603C
7FF8
1FE0
ENDCHAR
STARTCHAR 0124
ENCODING 292
SWIDTH 720 0
DWIDTH 24 0
BBX 18 31 3 0
BITMAP
01F000
01F000
03B800
071C00
0C0600
000000
000000
E001C0
E001C0
E001C0
E001C0
E001C0
E001C0
E001C0
E001C0
E001C0
E001C0
E001C0
FFFFC0
FFFFC0
E001C0
E001C0
E001C0
E001C0
E001C0
E001C0
E001C0
E001C0
E001C0
E001C0
E001C0
ENDCHAR
STARTCHAR 0125
ENCODING 293
SWIDTH 600 0
DWIDTH 20 0
BBX 14 32 3 0
BITMAP
07C0
07C0
0EE0
1C70
3018
0000
E000
E000
E000
E000
E000
E000
E000
E000
E3E0
EFF8
FC38
F81C
F01C
E01C
E01C
E01C
E01C
E01C
E01C
E01C
E01C
E01C
E01C
E01C
E01C
E01C
ENDCHAR
STARTCHAR 0126
ENCODING 294
SWIDTH 780 0
DWIDTH 26 0
BBX 24 24 1 0
BITMAP
1C0038
1C0038
1C0038
1C0038
FFFFFF
FFFFFF
1C0038
1C0038
1C0038
1C0038
1C0038
1FFFF8
1FFFF8
1C0038
1C0038
1C0038
1C0038
1C0038
1C0038
1C0038
1C0038
1C0038
1C0038
1C0038
ENDCHAR
STARTCHAR 0127
ENCODING 295
SWIDTH 600 0
DWIDTH 20 0
BBX 17 26 0 0
BITMAP
1C0000
1C0000
1C0000
FFE000
FFE000
1C0000
1C0000
1C0000
1C7C00
1DFF00
1F8700
1F0380
1E0380
1C0380
1C0380
1C0380
1C0380
1C0380
1C0380
1C0380
1C0380
1C0380
1C0380
1C0380
1C0380
1C0380
ENDCHAR
STARTCHAR 0128
ENCODING 296
SWIDTH 300 0
DWIDTH 10 0
BBX 11 30 -1 0
BITMAP
7860
7E60
CFC0
C3C0
0000
0000
0E00
0E00
0E00
0E00
0E00
0E00
0E00
0E00
0E00
0E00
0E00
0E00
0E00
0E00
0E00
0E00
0E00
0E00
0E00
0E00
0E00
0E00
0E00
0E00
ENDCHAR
STARTCHAR 0129
ENCODING 297
SWIDTH 300 0
DWIDTH 10 0
BBX 11 25 -1 0
BITMAP
7860
7E60
CFC0
C3C0
0000
0000
0000
0E00
0E00
0E00
0E00
0E00
0E00
0E00
0E00
0E00
0E00
0E00
0E00
0E00
0E00
0E00
0E00
0E00
0E00
ENDCHAR
STARTCHAR 012A
ENCODING 298
SWIDTH 300 0
DWIDTH 10 0
BBX 10 28 0 0
BITMAP
FFC0
FFC0
0000
0000
1C00
1C00
1C00
1C00
1C00
1C00
1C00
1C00
1C00
1C00
1C00
1C00
1C00
1C00
1C00
1C00
1C00
1C00
1C00
1C00
1C00
1C00
1C00
1C00
ENDCHAR
STARTCHAR 012B
ENCODING 299
SWIDTH 300 0
DWIDTH 10 0
BBX 10 23 0 0
BITMAP
FFC0
FFC0
0000
0000
0000
1C00
1C00
1C00
1C00
1C00
1C00
1C00
1C00
1C00
1C00
1C00
1C00
1C00
1C00
1C00
1C00
1C00
1C00
ENDCHAR
STARTCHAR 012C
ENCODING 300
SWIDTH 300 0
DWIDTH 10 0
BBX 11 31 -1 0
BITMAP
C060
E0E0
61C0
3F80
1F00
0000
0000
0E00
0E00
0E00
0E00
0E00
0E00
0E00
0E00
0E00
0E00
0E00
0E00
0E00
0E00
0E00
0E00
0E00
0E00
0E00
0E00
0E00
0E00
0E00
0E00
ENDCHAR
STARTCHAR 012D
ENCODING 301
SWIDTH 300 0
DWIDTH 10 0
BBX 11 26 -1 0
BITMAP
C060
E0E0
61C0
3F80
1F00
0000
0000
0000
0E00
0E00
0E00
0E00
0E00
0E00
0E00
0E00
0E00
0E00
0E00
0E00
0E00
0E00
0E00
0E00
0E00
0E00
ENDCHAR
STARTCHAR 012E
ENCODING 302
SWIDTH 300 0
DWIDTH 10 0
BBX 6 30 2 -6
BITMAP
70
70
70
70
70
70
70
70
70
70
70
70
70
70
70
70
70
70
70
70
70
70
70
70
60
40
C0
C0
FC
78
ENDCHAR
STARTCHAR 012F
ENCODING 303
SWIDTH 300 0
DWIDTH 10 0
BBX 6 30 2 -6
BITMAP
70
70
70
00
00
00
70
70
70
70
70
70
70
70
70
70
70
70
70
70
70
70
70
70
60
40
C0
C0
FC
78
ENDCHAR
STARTCHAR 0130
ENCODING 304
SWIDTH 300 0
DWIDTH 10 0
BBX 3 29 3 0
BITMAP
E0
E0
E0
00
00
E0
E0
E0
E0
E0
E0
E0
E0
E0
E0
E0
E0
E0
E0
E0
E0
E0
E0
E0
E0
E0
E0
E0
E0
ENDCHAR
STARTCHAR 0131
ENCODING 305
SWIDTH 300 0
DWIDTH 10 0
BBX 3 18 3 0
BITMAP
E0
E0
E0
E0
E0
E0
E0
E0
E0
E0
E0
E0
E0
E0
E0
E0
E0
E0
ENDCHAR
STARTCHAR 0132
ENCODING 306
SWIDTH 600 0
DWIDTH 20 0
BBX 14 29 3 -5
BITMAP
E01C
E01C
E01C
E01C
E01C
E01C
E01C
E01C
E01C
E01C
E01C
E01C
E01C
E01C
E01C
E01C
E01C
E01C
E01C
E01C
E01C
E01C
E01C
E01C
001C
0038
0838
0FF0
07C0
ENDCHAR
STARTCHAR 0133
ENCODING 307
SWIDTH 570 0
DWIDTH 19 0
BBX 13 30 3 -6
BITMAP
E038
E038
E038
0000
0000
0000
E038
E038
E038
E038
E038
E038
E038
E038
E038
E038
E038
E038
E038
E038
E038
E038
E038
E038
0038
0038
0030
0870
0FE0
07C0
ENDCHAR
STARTCHAR 0134
ENCODING 308
SWIDTH 300 0
DWIDTH 10 0
BBX 14 36 -3 -5
BITMAP
03E0
03E0
0770
0E38
180C
0000
0000
01C0
01C0
01C0
01C0
01C0
01C0
01C0
01C0
01C0
01C0
01C0
01C0
01C0
01C0
01C0
01C0
01C0
01C0
01C0
01C0
01C0
01C0
01C0
01C0
01C0
0380
8380
FF00
7C00
ENDCHAR
STARTCHAR 0135
ENCODING 309
SWIDTH 300 0
DWIDTH 10 0
BBX 13 32 -2 -6
BITMAP
07C0
07C0
0EE0
1C70
3018
0000
0000
0000
0380
0380
0380
0380
0380
0380
0380
0380
0380
0380
0380
0380
0380
0380
0380
0380
0380
0380
0380
0380
0300
8700
FE00
7C00
ENDCHAR
STARTCHAR 0136
ENCODING 310
SWIDTH 660 0
DWIDTH 22 0
BBX 18 34 3 -10
BITMAP
E00300
E00600
E00C00
E01800
E03000
E06000
E0C000
E18000
E30000
E60000
EC0000
FC0000
EE0000
E70000
E38000
E3C000
E1E000
E0F000
E07800
E03C00
E01E00
E00F00
E00780
E003C0
000000
000000
000000
038000
038000
038000
018000
018000
010000
020000
ENDCHAR
STARTCHAR 0137
ENCODING 311
SWIDTH 570 0
DWIDTH 19 0
BBX 16 36 3 -10
BITMAP
E000
E000
E000
E000
E000
E000
E000
E000
E006
E01C
E030
E060
E0C0
E180
E300
EE00
FE00
EF00
E780
E3C0
E1E0
E0F0
E078
E03C
E01E
E00F
0000
0000
0000
0380
0380
0380
0180
0180
0100
0200
ENDCHAR
STARTCHAR 0138
ENCODING 312
SWIDTH 570 0
DWIDTH 19 0
BBX 16 18 3 0
BITMAP
E006
E01C
E030
E060
E0C0
E180
E300
EE00
FE00
EF00
E780
E3C0
E1E0
E0F0
E078
E03C
E01E
E00F
ENDCHAR
STARTCHAR 0139
ENCODING 313
SWIDTH 540 0
DWIDTH 18 0
BBX 14 31 3 0
BITMAP
0E00
1C00
3800
7000
E000
0000
0000
E000
E000
E000
E000
E000
E000
E000
E000
E000
E000
E000
E000
E000
E000
E000
E000
E000
E000
E000
E000
E000
E000
FFFC
FFFC
ENDCHAR
STARTCHAR 013A
ENCODING 314
SWIDTH 300 0
DWIDTH 10 0
BBX 7 32 2 0
BITMAP
0E
1C
38
70
E0
00
70
70
70
70
70
70
70
70
70
70
70
70
70
70
70
70
70
70
70
70
70
70
70
70
70
70
ENDCHAR
STARTCHAR 013B
ENCODING 315
SWIDTH 540 0
DWIDTH 18 0
BBX 14 34 3 -10
BITMAP
E000
E000
E000
E000
E000
E000
E000
E000
E000
E000
E000
E000
E000
E000
E000
E000
E000
E000
E000
E000
E000
E000
FFFC
FFFC
0000
0000
0000
0700
0700
0700
0300
0300
0200
0400
ENDCHAR
STARTCHAR 013C
ENCODING 316
SWIDTH 300 0
DWIDTH 10 0
BBX 3 36 3 -10
BITMAP
E0
E0
E0
E0
E0
E0
E0
E0
E0
E0
E0
E0
E0
E0
E0
E0
E0
E0
E0
E0
E0
E0
E0
E0
E0
E0
00
00
00
E0
E0
E0
60
60
40
80
ENDCHAR
STARTCHAR 013D
ENCODING 317
SWIDTH 540 0
DWIDTH 18 0
BBX 14 24 3 0
BITMAP
E1C0
E1C0
E1C0
E0C0
E0C0
E080
E180
E000
E000
E000
E000
E000
E000
E000
E000
E000
E000
E000
E000
E000
E000
E000
FFFC
FFFC
ENDCHAR
STARTCHAR 013E
ENCODING 318
SWIDTH 360 0
DWIDTH 12 0
BBX 8 26 3 0
BITMAP
E7
E7
E7
E3
E3
E2
E6
E0
E0
E0
E0
E0
E0
E0
E0
E0
E0
E0
E0
E0
E0
E0
E0
E0
E0
E0
ENDCHAR
STARTCHAR 013F
ENCODING 319
SWIDTH 540 0
DWIDTH 18 0
BBX 14 24 3 0
BITMAP
E000
E000
E000
E000
E000
E000
E000
E000
E000
E000
E070
E070
E070
E000
E000
E000
E000
E000
E000
E000
E000
E000
FFFC
FFFC
ENDCHAR
STARTCHAR 0140
ENCODING 320
SWIDTH 390 0
DWIDTH 13 0
BBX 10 26 3 0
BITMAP
E000
E000
E000
E000
E000
E000
E000
E000
E000
E000
E000
E1C0
E1C0
E1C0
E000
E000
E000
E000
E000
E000
E000
E000
E000
E000
E000
E000
ENDCHAR
STARTCHAR 0141
ENCODING 321
SWIDTH 540 0
DWIDTH 18 0
BBX 16 24 1 0
BITMAP
1C00
1C00
1C00
1C00
1C00
1C00
1C40
1CC0
1FC0
1F00
1E00
3C00
FC00
DC00
9C00
1C00
1C00
1C00
1C00
1C00
1C00
1C00
1FFF
1FFF
ENDCHAR
STARTCHAR 0142
ENCODING 322
SWIDTH 330 0
DWIDTH 11 0
BBX 11 26 0 0
BITMAP
0E00
0E00
0E00
0E00
0E00
0E00
0E00
0E00
0E20
0EE0
0FC0
0F80
1E00
7E00
EE00
8E00
0E00
0E00
0E00
0E00
0E00
0E00
0E00
0E00
0E00
0E00
ENDCHAR
STARTCHAR 0143
ENCODING 323
SWIDTH 720 0
DWIDTH 24 0
BBX 18 31 3 0
BITMAP
000E00
001C00
003800
007000
00E000
000000
000000
E000C0
E000C0
F000C0
F800C0
FC00C0
DC00C0
CE00C0
CF00C0
C700C0
C380C0
C3C0C0
C1C0C0
C0E0C0
C0F0C0
C070C0
C038C0
C03CC0
C01CC0
C00EC0
C00FC0
C007C0
C003C0
C001C0
C001C0
ENDCHAR
STARTCHAR 0144
ENCODING 324
SWIDTH 600 0
DWIDTH 20 0
BBX 14 26 3 0
BITMAP
0070
00E0
01C0
0380
0700
0000
0000
0000
E3E0
EFF8
FC38
F81C
F01C
E01C
E01C
E01C
E01C
E01C
E01C
E01C
E01C
E01C
E01C
E01C
E01C
E01C
ENDCHAR
STARTCHAR 0145
ENCODING 325
SWIDTH 720 0
DWIDTH 24 0
BBX 18 34 3 -10
BITMAP
E000C0
E000C0
F000C0
F800C0
FC00C0
DC00C0
CE00C0
CF00C0
C700C0
C380C0
C3C0C0
C1C0C0
C0E0C0
C0F0C0
C070C0
C038C0
C03CC0
C01CC0
C00EC0
C00FC0
C007C0
C003C0
C001C0
C001C0
000000
000000
000000
00E000
00E000
00E000
006000
006000
004000
008000
ENDCHAR
STARTCHAR 0146
ENCODING 326
SWIDTH 600 0
DWIDTH 20 0
BBX 14 28 3 -10
BITMAP
E3E0
EFF8
FC38
F81C
F01C
E01C
E01C
E01C
E01C
E01C
E01C
E01C
E01C
E01C
E01C
E01C
E01C
E01C
0000
0000
0000
0380
0380
0380
0180
0180
0100
0200
ENDCHAR
STARTCHAR 0147
ENCODING 327
SWIDTH 720 0
DWIDTH 24 0
BBX 18 31 3 0
BITMAP
0C0600
071C00
03B800
01F000
01F000
000000
000000
E000C0
E000C0
F000C0
F800C0
FC00C0
DC00C0
CE00C0
CF00C0
C700C0
C380C0
C3C0C0
C1C0C0
C0E0C0
C0F0C0
C070C0
C038C0
C03CC0
C01CC0
C00EC0
C00FC0
C007C0
C003C0
C001C0
C001C0
ENDCHAR
STARTCHAR 0148
ENCODING 328
SWIDTH 600 0
DWIDTH 20 0
BBX 14 26 3 0
BITMAP
3018
1C70
0EE0
07C0
07C0
0000
0000
0000
E3E0
EFF8
FC38
F81C
F01C
E01C
E01C
E01C
E01C
E01C
E01C
E01C
E01C
E01C
E01C
E01C
E01C
E01C
ENDCHAR
STARTCHAR 0149
ENCODING 329
SWIDTH 690 0
DWIDTH 23 0
BBX 19 26 0 0
BITMAP
E00000
E00000
E00000
600000
600000
400000
C00000
000000
071F00
077FC0
07E1C0
07C0E0
0780E0
0700E0
0700E0
0700E0
0700E0
0700E0
0700E0
0700E0
0700E0
0700E0
0700E0
0700E0
0700E0
0700E0
ENDCHAR
STARTCHAR 014A
ENCODING 330
SWIDTH 720 0
DWIDTH 24 0
BBX 18 31 3 -7
BITMAP
E000C0
E000C0
F000C0
F800C0
FC00C0
DC00C0
CE00C0
CF00C0
C700C0
C380C0
C3C0C0
C1C0C0
C0E0C0
C0F0C0
C070C0
C038C0
C03CC0
C01CC0
C00EC0
C00FC0
C007C0
C003C0
C003C0
C001C0
0000C0
0000C0
0000C0
0000C0
000180
003F80
003E00
ENDCHAR
STARTCHAR 014B
ENCODING 331
SWIDTH 600 0
DWIDTH 20 0
BBX 14 25 3 -7
BITMAP
E3E0
EFF8
FC38
F81C
F01C
E01C
E01C
E01C
E01C
E01C
E01C
E01C
E01C
E01C
E01C
E01C
E01C
E01C
001C
001C
001C
001C
0038
03F8
03E0
ENDCHAR
STARTCHAR 014C
ENCODING 332
SWIDTH 780 0
DWIDTH 26 0
BBX 22 28 2 0
BITMAP
03FF00
03FF00
000000
000000
01FE00
07FF80
0F03C0
1C00E0
380070
780078
700038
700038
E0001C
E0001C
E0001C
E0001C
E0001C
E0001C
E0001C
E0001C
700038
700038
780078
380070
1C00E0
0F03C0
07FF80
01FE00
ENDCHAR
STARTCHAR 014D
ENCODING 333
SWIDTH 600 0
DWIDTH 20 0
BBX 16 23 2 0
BITMAP
1FF8
1FF8
0000
0000
0000
07E0
1FF8
3C3C
700E
700E
E007
E007
E007
E007
E007
E007
E007
E007
700E
700E
3C3C
1FF8
07E0
ENDCHAR
STARTCHAR 014E
ENCODING 334
SWIDTH 780 0
DWIDTH 26 0
BBX 22 31 2 0
BITMAP
030180
038380
018700
00FE00
007C00
000000
000000
01FE00
07FF80
0F03C0
1C00E0
380070
780078
700038
700038
E0001C
E0001C
E0001C
E0001C
E0001C
E0001C
E0001C
E0001C
700038
700038
780078
380070
1C00E0
0F03C0
07FF80
01FE00
ENDCHAR
STARTCHAR 014F
ENCODING 335
SWIDTH 600 0
DWIDTH 20 0
BBX 16 26 2 0
BITMAP
180C
1C1C
0C38
07F0
03E0
0000
0000
0000
07E0
1FF8
3C3C
700E
700E
E007
E007
E007
E007
E007
E007
E007
E007
700E
700E
3C3C
1FF8
07E0
ENDCHAR
STARTCHAR 0150
ENCODING 336
SWIDTH 780 0
DWIDTH 26 0
BBX 22 31 2 0
BITMAP
001C70
0038E0
0071C0
00E380
01C700
000000
000000
01FE00
07FF80
0F03C0
1C00E0
380070
780078
700038
700038
E0001C
E0001C
E0001C
E0001C
E0001C
E0001C
E0001C
E0001C
700038
700038
780078
380070
1C00E0
0F03C0
07FF80
01FE00
ENDCHAR
STARTCHAR 0151
ENCODING 337
SWIDTH 600 0
DWIDTH 20 0
BBX 17 26 2 0
BITMAP
00E380
01C700
038E00
071C00
0E3800
000000
000000
000000
07E000
1FF800
3C3C00
700E00
700E00
E00700
E00700
E00700
E00700
E00700
E00700
E00700
E00700
700E00
700E00
3C3C00
1FF800
07E000
ENDCHAR
STARTCHAR 0152
ENCODING 338
SWIDTH 990 0
DWIDTH 33 0
BBX 30 24 2 0
BITMAP
01FCFFF8
07FFFFF8
0F07E000
1C03E000
3801E000
7000E000
7000E000
7000E000
E000E000
E000E000
E000E000
E000FFF0
E000FFF0
E000E000
E000E000
E000E000
7000E000
7000E000
7001E000
3801E000
1C03E000
0F07E000
07FFFFFC
01FCFFFC
ENDCHAR
STARTCHAR 0153
ENCODING 339
SWIDTH 930 0
DWIDTH 31 0
BBX 27 18 2 0
BITMAP
07E07E00
1FF8FF80
3C3DC380
780F81C0
700F80C0
F00700E0
E00700E0
E007FFE0
E007FFE0
E0070000
E0070000
E0070000
70078000
700F8000
780FC000
3C3DE060
1FF8FFE0
07E03F80
ENDCHAR
STARTCHAR 0154
ENCODING 340
SWIDTH 630 0
DWIDTH 21 0
BBX 17 31 3 0
BITMAP
00E000
01C000
038000
070000
0E0000
000000
000000
FFC000
FFF000
E0F800
E03C00
E01C00
E01C00
E01C00
E01C00
E01C00
E03800
E07800
E0F000
FFC000
FFC000
E1C000
E0E000
E0F000
E07000
E03800
E03C00
E01E00
E00E00
E00F00
E00780
ENDCHAR
STARTCHAR 0155
ENCODING 341
SWIDTH 420 0
DWIDTH 14 0
BBX 11 26 3 0
BITMAP
01C0
0380
0700
0E00
1C00
0000
0000
0000
E1E0
E7E0
EFE0
FE00
F800
F000
E000
E000
E000
E000
E000
E000
E000
E000
E000
E000
E000
E000
ENDCHAR
STARTCHAR 0156
ENCODING 342
SWIDTH 630 0
DWIDTH 21 0
BBX 17 34 3 -10
BITMAP
FFC000
FFF000
E0F800
E03C00
E01C00
E01C00
E01C00
E01C00
E01C00
E03800
E07800
E0F000
FFC000
FFC000
E1C000
E0E000
E0F000
E07000
E03800
E03C00
E01E00
E00E00
E00F00
E00780
000000
000000
000000
038000
038000
038000
018000
018000
010000
020000
ENDCHAR
STARTCHAR 0157
ENCODING 343
SWIDTH 420 0
DWIDTH 14 0
BBX 11 28 3 -10
BITMAP
E1E0
E7E0
EFE0
FE00
F800
F000
E000
E000
E000
E000
E000
E000
E000
E000
E000
E000
E000
E000
0000
0000
0000
E000
E000
E000
6000
6000
4000
8000
ENDCHAR
STARTCHAR 0158
ENCODING 344
SWIDTH 630 0
DWIDTH 21 0
BBX 17 31 3 0
BITMAP
603000
38E000
1DC000
0F8000
0F8000
000000
000000
FFC000
FFF000
E0F800
E03C00
E01C00
E01C00
E01C00
E01C00
E01C00
E03800
E07800
E0F000
FFC000
FFC000
E1C000
E0E000
E0F000
E07000
E03800
E03C00
E01E00
E00E00
E00F00
E00780
ENDCHAR
STARTCHAR 0159
ENCODING 345
SWIDTH 420 0
DWIDTH 14 0
BBX 11 26 3 0
BITMAP
C060
71C0
3B80
1F00
1F00
0000
0000
0000
E1E0
E7E0
EFE0
FE00
F800
F000
E000
E000
E000
E000
E000
E000
E000
E000
E000
E000
E000
E000
ENDCHAR
STARTCHAR 015A
ENCODING 346
SWIDTH 540 0
DWIDTH 18 0
BBX 14 31 2 0
BITMAP
0070
00E0
01C0
0380
0700
0000
0000
0FE0
3FF8
7818
7000
E000
E000
E000
F000
7800
7C00
3F00
0FC0
07E0
01F8
0078
003C
001C
001C
001C
001C
8038
F078
7FE0
1F80
ENDCHAR
STARTCHAR 015B
ENCODING 347
SWIDTH 510 0
DWIDTH 17 0
BBX 12 26 3 0
BITMAP
01C0
0380
0700
0E00
1C00
0000
0000
0000
1F80
7FE0
7060
E000
E000
E000
F800
7E00
3F80
0FE0
03E0
00F0
0070
0070
8070
E0E0
7FC0
1F00
ENDCHAR
STARTCHAR 015C
ENCODING 348
SWIDTH 540 0
DWIDTH 18 0
BBX 14 31 2 0
BITMAP
07C0
07C0
0EE0
1C70
3018
0000
0000
0FE0
3FF8
7818
7000
E000
E000
E000
F000
7800
7C00
3F00
0FC0
07E0
01F8
0078
003C
001C
001C
001C
001C
8038
F078
7FE0
1F80
ENDCHAR
STARTCHAR 015D
ENCODING 349
SWIDTH 510 0
DWIDTH 17 0
BBX 12 26 3 0
BITMAP
1F00
1F00
3B80
71C0
C060
0000
0000
0000
1F80
7FE0
7060
E000
E000
E000
F800
7E00
3F80
0FE0
03E0
00F0
0070
0070
8070
E0E0
7FC0
1F00
ENDCHAR
STARTCHAR 015E
ENCODING 350
SWIDTH 540 0
DWIDTH 18 0
BBX 14 31 2 -7
BITMAP
0FE0
3FF8
7818
7000
E000
E000
E000
F000
7800
7C00
3F00
0FC0
07E0
01F8
0078
003C
001C
001C
001C
001C
8038
F078
7FE0
1F80
0300
0200
0780
01C0
00C0
00C0
0780
ENDCHAR
STARTCHAR 015F
ENCODING 351
SWIDTH 510 0
DWIDTH 17 0
BBX 12 25 3 -7
BITMAP
1F80
7FE0
7060
E000
E000
E000
F800
7E00
3F80
0FE0
03E0
00F0
0070
0070
8070
E0E0
7FC0
1F00
0600
0400
0F00
0380
0180
0180
0F00
ENDCHAR
STARTCHAR 0160
ENCODING 352
SWIDTH 540 0
DWIDTH 18 0
BBX 14 31 2 0
BITMAP
3018
1C70
0EE0
07C0
07C0
0000
0000
0FE0
3FF8
7818
7000
E000
E000
E000
F000
7800
7C00
3F00
0FC0
07E0
01F8
0078
003C
001C
001C
001C
001C
8038
F078
7FE0
1F80
ENDCHAR
STARTCHAR 0161
ENCODING 353
SWIDTH 510 0
DWIDTH 17 0
BBX 12 26 3 0
BITMAP
C060
71C0
3B80
1F00
1F00
0000
0000
0000
1F80
7FE0
7060
E000
E000
E000
F800
7E00
3F80
0FE0
03E0
00F0
0070
0070
8070
E0E0
7FC0
1F00
ENDCHAR
STARTCHAR 0162
ENCODING 354
SWIDTH 630 0
DWIDTH 21 0
BBX 19 31 1 -7
BITMAP
FFFFE0
FFFFE0
00E000
00E000
00E000
00E000
00E000
00E000
00E000
00E000
00E000
00E000
00E000
00E000
00E000
00E000
00E000
00E000
00E000
00E000
00E000
00E000
00E000
00E000
006000
004000
00F000
003800
001800
001800
00F000
ENDCHAR
STARTCHAR 0163
ENCODING 355
SWIDTH 360 0
DWIDTH 12 0
BBX 10 28 1 -7
BITMAP
3800
3800
3800
FF80
FF80
3800
3800
3800
3800
3800
3800
3800
3800
3800
3800
3800
3800
3800
1C00
1F80
0F80
0300
0200
0780
01C0
00C0
00C0
0780
ENDCHAR
STARTCHAR 0164
ENCODING 356
SWIDTH 630 0
DWIDTH 21 0
BBX 19 31 1 0
BITMAP
0C0600
071C00
03B800
01F000
01F000
000000
000000
FFFFE0
FFFFE0
00E000
00E000
00E000
00E000
00E000
00E000
00E000
00E000
00E000
00E000
00E000
00E000
00E000
00E000
00E000
00E000
00E000
00E000
00E000
00E000
00E000
00E000
ENDCHAR
STARTCHAR 0165
ENCODING 357
SWIDTH 360 0
DWIDTH 12 0
BBX 11 28 1 0
BITMAP
00E0
00E0
00E0
0060
0060
0040
00C0
3800
3800
3800
FF80
FF80
3800
3800
3800
3800
3800
3800
3800
3800
3800
3800
3800
3800
3800
1C00
1F80
0F80
ENDCHAR
STARTCHAR 0166
ENCODING 358
SWIDTH 630 0
DWIDTH 21 0
BBX 19 24 1 0
BITMAP
FFFFE0
FFFFE0
00E000
00E000
00E000
00E000
00E000
00E000
00E000
00E000
1FFF00
1FFF00
00E000
00E000
00E000
00E000
00E000
00E000
00E000
00E000
00E000
00E000
00E000
00E000
ENDCHAR
STARTCHAR 0167
ENCODING 359
SWIDTH 360 0
DWIDTH 12 0
BBX 9 21 1 0
BITMAP
3800
3800
3800
FF80
FF80
3800
3800
3800
3800
3800
FF80
FF80
3800
3800
3800
3800
3800
3800
3C00
1F80
0F80
ENDCHAR
STARTCHAR 0168
ENCODING 360
SWIDTH 690 0
DWIDTH 23 0
BBX 17 30 3 0
BITMAP
0F0C00
0FCC00
19F800
187800
000000
000000
E00180
E00180
E00180
E00180
E00180
E00180
E00180
E00180
E00180
E00180
E00180
E00180
E00180
E00180
E00180
E00180
E00180
E00180
E00180
700300
780300
3C0E00
1FFC00
07F000
ENDCHAR
STARTCHAR 0169
ENCODING 361
SWIDTH 600 0
DWIDTH 20 0
BBX 14 25 3 0
BITMAP
1E18
1F98
33F0
30F0
0000
0000
0000
E01C
E01C
E01C
E01C
E01C
E01C
E01C
E01C
E01C
E01C
E01C
E01C
E01C
E03C
E07C
70FC
7FDC
1F1C
ENDCHAR
STARTCHAR 016A
ENCODING 362
SWIDTH 690 0
DWIDTH 23 0
BBX 17 28 3 0
BITMAP
0FFC00
0FFC00
000000
000000
E00180
E00180
E00180
E00180
E00180
E00180
E00180
E00180
E00180
E00180
E00180
E00180
E00180
E00180
E00180
E00180
E00180
E00180
E00180
700300
780300
3C0E00
1FFC00
07F000
ENDCHAR
STARTCHAR 016B
ENCODING 363
SWIDTH 600 0
DWIDTH 20 0
BBX 14 23 3 0
BITMAP
3FF0
3FF0
0000
0000
0000
E01C
E01C
E01C
E01C
E01C
E01C
E01C
E01C
E01C
E01C
E01C
E01C
E01C
E03C
E07C
70FC
7FDC
1F1C
ENDCHAR
STARTCHAR 016C
ENCODING 364
SWIDTH 690 0
DWIDTH 23 0
BBX 17 31 3 0
BITMAP
180C00
1C1C00
0C3800
07F000
03E000
000000
000000
E00180
E00180
E00180
E00180
E00180
E00180
E00180
E00180
E00180
E00180
E00180
E00180
E00180
E00180
E00180
E00180
E00180
E00180
E00180
700300
780300
3C0E00
1FFC00
07F000
ENDCHAR
STARTCHAR 016D
ENCODING 365
SWIDTH 600 0
DWIDTH 20 0
BBX 14 26 3 0
BITMAP
3018
3838
1870
0FE0
07C0
0000
0000
0000
E01C
E01C
E01C
E01C
E01C
E01C
E01C
E01C
E01C
E01C
E01C
E01C
E01C
E03C
E07C
70FC
7FDC
1F1C
ENDCHAR
STARTCHAR 016E
ENCODING 366
SWIDTH 690 0
DWIDTH 23 0
BBX 17 33 3 0
BITMAP
01C000
022000
041000
041000
041000
022000
01C000
000000
000000
E00180
E00180
E00180
E00180
E00180
E00180
E00180
E00180
E00180
E00180
E00180
E00180
E00180
E00180
E00180
E00180
E00180
E00180
E00180
700300
780300
3C0E00
1FFC00
07F000
ENDCHAR
STARTCHAR 016F
ENCODING 367
SWIDTH 600 0
DWIDTH 20 0
BBX 14 28 3 0
BITMAP
0380
0440
0820
0820
0820
0440
0380
0000
0000
0000
E01C
E01C
E01C
E01C
E01C
E01C
E01C
E01C
E01C
E01C
E01C
E01C
E01C
E03C
E07C
70FC
7FDC
1F1C
ENDCHAR
STARTCHAR 0170
ENCODING 368
SWIDTH 690 0
DWIDTH 23 0
BBX 18 31 3 0
BITMAP
0071C0
00E380
01C700
038E00
071C00
000000
000000
E00180
E00180
E00180
E00180
E00180
E00180
E00180
E00180
E00180
E00180
E00180
E00180
E00180
E00180
E00180
E00180
E00180
E00180
E00180
700300
780300
3C0E00
1FFC00
07F000
ENDCHAR
STARTCHAR 0171
ENCODING 369
SWIDTH 600 0
DWIDTH 20 0
BBX 16 26 3 0
BITMAP
01C7
038E
071C
0E38
1C70
0000
0000
0000
E01C
E01C
E01C
E01C
E01C
E01C
E01C
E01C
E01C
E01C
E01C
E01C
E01C
E03C
E07C
70FC
7FDC
1F1C
ENDCHAR
STARTCHAR 0172
ENCODING 370
SWIDTH 690 0
DWIDTH 23 0
BBX 17 30 3 -6
BITMAP
E00180
E00180
E00180
E00180
E00180
E00180
E00180
E00180
E00180
E00180
E00180
E00180
E00180
E00180
E00180
E00180
E00180
E00180
E00180
700300
780300
3C0E00
1FFC00
07F000
006000
004000
00C000
00C000
00FC00
007800
ENDCHAR
STARTCHAR 0173
ENCODING 371
SWIDTH 600 0
DWIDTH 20 0
BBX 15 24 3 -6
BITMAP
E01C
E01C
E01C
E01C
E01C
E01C
E01C
E01C
E01C
E01C
E01C
E01C
E01C
E03C
E07C
70FC
7FDC
1F1C
0030
0020
0060
0060
007E
003C
ENDCHAR
STARTCHAR 0174
ENCODING 372
SWIDTH 840 0
DWIDTH 28 0
BBX 29 31 0 0
BITMAP
000F8000
000F8000
001DC000
0038E000
00603000
00000000
00000000
E0030018
F0078038
70078030
70078030
70078070
380FC060
380DC060
380DC060
3C1DE0E0
1C18E0C0
1C18E0C0
1C18E0C0
0E387180
0E307180
0E307180
0F707B80
07603B00
07603B00
07603B00
03E01F00
03C01E00
03C01E00
03C01E00
01800C00
ENDCHAR
STARTCHAR 0175
ENCODING 373
SWIDTH 750 0
DWIDTH 25 0
BBX 23 26 0 0
BITMAP
007C00
007C00
00EE00
01C700
030180
000000
000000
000000
E03C06
E03C0E
703C0C
707C0C
706E0C
706E1C
386E18
38E718
38C718
38C718
1DC738
1D83B0
1D83B0
1D83B0
0F81F0
0F01E0
0F01E0
0F01E0
ENDCHAR
STARTCHAR 0176
ENCODING 374
SWIDTH 630 0
DWIDTH 21 0
BBX 20 31 1 0
BITMAP
01F000
01F000
03B800
071C00
0C0600
000000
000000
F00070
700060
3800C0
380180
1C0380
1E0300
0E0600
070C00
070C00
039800
03F000
01F000
00E000
00E000
00E000
00E000
00E000
00E000
00E000
00E000
00E000
00E000
00E000
00E000
ENDCHAR
STARTCHAR 0177
ENCODING 375
SWIDTH 510 0
DWIDTH 17 0
BBX 17 32 0 -6
BITMAP
03E000
03E000
077000
0E3800
180C00
000000
000000
000000
E00180
E00180
700300
700300
780600
380600
380600
1C0C00
1C0C00
1C1800
0E1800
0E1800
073000
073000
076000
03E000
03C000
01C000
01C000
018000
018000
030000
030000
070000
ENDCHAR
STARTCHAR 0178
ENCODING 376
SWIDTH 630 0
DWIDTH 21 0
BBX 20 29 1 0
BITMAP
070E00
070E00
070E00
000000
000000
F00070
700060
3800C0
380180
1C0380
1E0300
0E0600
070C00
070C00
039800
03F000
01F000
00E000
00E000
00E000
00E000
00E000
00E000
00E000
00E000
00E000
00E000
00E000
00E000
ENDCHAR
STARTCHAR 0179
ENCODING 377
SWIDTH 600 0
DWIDTH 20 0
BBX 16 31 2 0
BITMAP
0038
0070
00E0
01C0
0380
0000
0000
7FFF
7FFF
000F
000E
001C
003C
0038
0078
00F0
00E0
01E0
01C0
0380
0780
0700
0F00
1E00
1C00
3C00
3800
7000
F000
FFFF
FFFF
ENDCHAR
STARTCHAR 017A
ENCODING 378
SWIDTH 570 0
DWIDTH 19 0
BBX 15 26 2 0
BITMAP
0070
00E0
01C0
0380
0700
0000
0000
0000
7FFE
7FFE
001E
003C
0078
0070
00E0
01E0
03C0
0780
0F00
0E00
1C00
3C00
7800
F000
FFFE
FFFE
ENDCHAR
STARTCHAR 017B
ENCODING 379
SWIDTH 600 0
DWIDTH 20 0
BBX 16 29 2 0
BITMAP
01C0
01C0
01C0
0000
0000
7FFF
7FFF
000F
000E
001C
003C
0038
0078
00F0
00E0
01E0
01C0
0380
0780
0700
0F00
1E00
1C00
3C00
3800
7000
F000
FFFF
FFFF
ENDCHAR
STARTCHAR 017C
ENCODING 380
SWIDTH 570 0
DWIDTH 19 0
BBX 15 24 2 0
BITMAP
0380
0380
0380
0000
0000
0000
7FFE
7FFE
001E
003C
0078
0070
00E0
01E0
03C0
0780
0F00
0E00
1C00
3C00
7800
F000
FFFE
FFFE
ENDCHAR
STARTCHAR 017D
ENCODING 381
SWIDTH 600 0
DWIDTH 20 0
BBX 16 31 2 0
BITMAP
180C
0E38
0770
03E0
03E0
0000
0000
7FFF
7FFF
000F
000E
001C
003C
0038
0078
00F0
00E0
01E0
01C0
0380
0780
0700
0F00
1E00
1C00
3C00
3800
7000
F000
FFFF
FFFF
ENDCHAR
STARTCHAR 017E
ENCODING 382
SWIDTH 570 0
DWIDTH 19 0
BBX 15 26 2 0
BITMAP
3018
1C70
0EE0
07C0
07C0
0000
0000
0000
7FFE
7FFE
001E
003C
0078
0070
00E0
01E0
03C0
0780
0F00
0E00
1C00
3C00
7800
F000
FFFE
FFFE
ENDCHAR
STARTCHAR 017F
ENCODING 383
SWIDTH 330 0
DWIDTH 11 0
BBX 11 26 2 0
BITMAP
07C0
1FE0
1C20
3800
3800
3800
3800
3800
F800
F800
3800
3800
3800
3800
3800
3800
3800
3800
3800
3800
3800
3800
3800
3800
3800
3800
ENDCHAR
STARTCHAR 0192
ENCODING 402
SWIDTH 630 0
DWIDTH 21 0
BBX 16 29 4 -5
BITMAP
007E
00FF
03C3
0380
0700
0700
0E00
0E00
0E00
0E00
FFF0
FFF0
1C00
1C00
1C00
1C00
3800
3800
3800
3800
3800
7000
7000
7000
7000
7000
E000
E000
E000
ENDCHAR
STARTCHAR 01FA
ENCODING 506
SWIDTH 690 0
DWIDTH 23 0
BBX 22 39 0 0
BITMAP
000700
000E00
001C00
003800
007000
000000
000000
000000
003800
004400
008200
008200
008200
004400
003800
003000
003000
007800
007800
00DC00
00DC00
00DE00
018E00
018E00
030700
030700
060380
060380
0603C0
0C01C0
0FFFC0
1FFFE0
1800E0
3000F0
300070
300078
600038
600038
C0001C
ENDCHAR
STARTCHAR 01FB
ENCODING 507
SWIDTH 540 0
DWIDTH 18 0
BBX 16 34 2 0
BITMAP
00E0
01C0
0380
0700
0E00
0000
0000
0380
0440
0820
0820
0820
0440
0380
0000
0000
07C0
1FF0
3870
2038
0038
0038
0038
07F8
1FF8
7C38
7038
E038
E038
E038
E078
70DC
7F9F
1E0F
ENDCHAR
STARTCHAR 01FC
ENCODING 508
SWIDTH 900 0
DWIDTH 30 0
BBX 29 31 0 0
BITMAP
00000E00
00001C00
00003800
00007000
0000E000
00000000
00000000
0001FFF0
0003FFF0
0003C000
0007C000
000FC000
000DC000
0019C000
0019C000
0031C000
0061C000
0061C000
00C1FFE0
0181FFE0
0181C000
0301C000
07FFC000
07FFC000
0C01C000
1801C000
1801C000
3001C000
6001C000
6001FFF8
C001FFF8
ENDCHAR
STARTCHAR 01FD
ENCODING 509
SWIDTH 840 0
DWIDTH 28 0
BBX 24 26 2 0
BITMAP
000380
000700
000E00
001C00
003800
000000
000000
000000
07C3F0
1FFFFC
387E1C
203C0E
003C06
003807
003807
07FFFF
1FFFFF
7C3800
703800
E03800
E03C00
E03C00
E03E00
70EF03
7F87FF
1F01FC
ENDCHAR
STARTCHAR 01FE
ENCODING 510
SWIDTH 780 0
DWIDTH 26 0
BBX 22 31 2 0
BITMAP
000700
000E00
001C00
003800
007000
000000
000000
01FC0C
07FF98
0F03F0
1C00E0
3800F0
7801F8
7001B8
700338
E0061C
E00C1C
E0181C
E0301C
E0301C
E0601C
E0C01C
E1801C
730038
760038
7E0078
3C0070
1C00E0
3F03C0
67FF80
C0FE00
ENDCHAR
STARTCHAR 01FF
ENCODING 511
SWIDTH 600 0
DWIDTH 20 0
BBX 16 26 2 0
BITMAP
0038
0070
00E0
01C0
0380
0000
0000
0000
07E3
1FFE
3C3C
701C
703E
E03E
E067
E0C7
E187
E187
E307
E607
FC07
7C0E
781E
3C3C
7FF8
C7E0
ENDCHAR
STARTCHAR 0218
ENCODING 536
SWIDTH 540 0
DWIDTH 18 0
BBX 14 34 2 -10
BITMAP
0FE0
3FF8
7818
7000
E000
E000
E000
F000
7800
7C00
3F00
0FC0
07E0
01F8
0078
003C
001C
001C
001C
001C
8038
F078
7FE0
1F80
0000
0000
0000
0380
0380
0380
0180
0180
0100
0200
ENDCHAR
STARTCHAR 0219
ENCODING 537
SWIDTH 510 0
DWIDTH 17 0
BBX 12 28 3 -10
BITMAP
1F80
7FE0
7060
E000
E000
E000
F800
7E00
3F80
0FE0
03E0
00F0
0070
0070
8070
E0E0
7FC0
1F00
0000
0000
0000
0E00
0E00
0E00
0600
0600
0400
0800
ENDCHAR
STARTCHAR 021A
ENCODING 538
SWIDTH 630 0
DWIDTH 21 0
BBX 19 34 1 -10
BITMAP
FFFFE0
FFFFE0
00E000
00E000
00E000
00E000
00E000
00E000
00E000
00E000
00E000
00E000
00E000
00E000
00E000
00E000
00E000
00E000
00E000
00E000
00E000
00E000
00E000
00E000
000000
000000
000000
00E000
00E000
00E000
006000
006000
004000
008000
ENDCHAR
STARTCHAR 021B
ENCODING 539
SWIDTH 360 0
DWIDTH 12 0
BBX 9 31 1 -10
BITMAP
3800
3800
3800
FF80
FF80
3800
3800
3800
3800
3800
3800
3800
3800
3800
3800
3800
3800
3800
1C00
1F80
0F80
0000
0000
0000
0E00
0E00
0E00
0600
0600
0400
0800
ENDCHAR
STARTCHAR 0250
ENCODING 592
SWIDTH 540 0
DWIDTH 18 0
BBX 16 18 0 0
BITMAP
F878
FDFE
3F0E
1C07
1C07
1C07
1C07
1C0E
1C3E
1FFC
1FE0
1C00
1C00
1C00
1C04
1E1C
0FF8
03E0
ENDCHAR
STARTCHAR 0251
ENCODING 593
SWIDTH 630 0
DWIDTH 21 0
BBX 16 18 2 0
BITMAP
01FF
07FF
1F07
1C07
3807
7007
7007
E007
E007
E007
E007
E00F
E01F
E01F
7037
78E7
3FC7
1F07
ENDCHAR
STARTCHAR 0252
ENCODING 594
SWIDTH 630 0
DWIDTH 21 0
BBX 16 18 3 0
BITMAP
E0F8
E3FC
E71E
EC0E
F807
F807
F007
E007
E007
E007
E007
E00E
E00E
E01C
E03C
E0F8
FFE0
FF80
ENDCHAR
STARTCHAR 0253
ENCODING 595
SWIDTH 630 0
DWIDTH 21 0
BBX 16 26 3 0
BITMAP
07F0
1FF8
3C08
7000
7000
6000
E000
E000
E3F0
EFF8
FC1C
F80E
E00E
E007
E007
E007
E007
E007
E007
E007
E00E
E00E
F01C
FC3C
EFF8
E7E0
ENDCHAR
STARTCHAR 0254
ENCODING 596
SWIDTH 510 0
DWIDTH 17 0
BBX 13 18 2 0
BITMAP
3F00
FFC0
81E0
00E0
0070
0070
0038
0038
0038
0038
0038
0038
0078
0070
00F0
C1E0
FFC0
7F00
ENDCHAR
STARTCHAR 0255
ENCODING 597
SWIDTH 540 0
DWIDTH 18 0
BBX 15 21 2 -3
BITMAP
03F0
1FF8
3C08
7800
7000
F000
E000
E000
E000
E078
E1FC
F3C6
7706
7E06
3E0E
1E1C
1FF8
3BF0
3000
3000
3000
ENDCHAR
STARTCHAR 0256
ENCODING 598
SWIDTH 630 0
DWIDTH 21 0
BBX 20 32 2 -6
BITMAP
000700
000700
000700
000700
000700
000700
000700
000700
07E700
1FF700
3C3F00
780F00
700700
600700
E00700
E00700
E00700
E00700
E00700
E00700
E00700
700700
701F00
383F00
1FF700
0FC700
000700
000700
000700
000780
0003F0
0001F0
ENDCHAR
STARTCHAR 0257
ENCODING 599
SWIDTH 630 0
DWIDTH 21 0
BBX 20 26 2 0
BITMAP
0001F0
0003F0
000780
000700
000700
000700
000700
000700
07E700
1FF700
3C3F00
780F00
700700
600700
E00700
E00700
E00700
E00700
E00700
E00700
E00700
700700
701F00
383F00
1FF700
0FC700
ENDCHAR
STARTCHAR 0258
ENCODING 600
SWIDTH 540 0
DWIDTH 18 0
BBX 14 18 2 0
BITMAP
0F80
3FE0
7870
7038
E038
E01C
E01C
FFFC
FFFC
001C
001C
001C
0038
0038
0070
C1F0
FFC0
3F00
ENDCHAR
STARTCHAR 0259
ENCODING 601
SWIDTH 540 0
DWIDTH 18 0
BBX 14 18 2 0
BITMAP
3F00
FFC0
C0F0
0070
0038
0038
001C
001C
FFFC
FFFC
E01C
E01C
E03C
6038
7038
3870
3FE0
0F80
ENDCHAR
STARTCHAR 025A
ENCODING 602
SWIDTH 780 0
DWIDTH 26 0
BBX 24 18 2 0
BITMAP
3F8000
FFE000
C0F800
003800
001C00
001CF0
000FF0
00FF30
1FFE30
FF0E30
E00E30
E00E39
E00C1F
701C0E
701800
387800
1FF000
0FC000
ENDCHAR
STARTCHAR 025B
ENCODING 603
SWIDTH 480 0
DWIDTH 16 0
BBX 12 18 2 0
BITMAP
0FE0
3FF0
7810
7000
7000
7000
3C00
0FC0
3FC0
7800
7000
E000
E000
E000
E000
7810
3FF0
0FC0
ENDCHAR
STARTCHAR 025C
ENCODING 604
SWIDTH 480 0
DWIDTH 16 0
BBX 12 18 2 0
BITMAP
7F00
FFC0
81E0
00E0
00E0
00E0
03C0
3F00
3FC0
01E0
00E0
0070
0070
0070
00F0
81E0
FFC0
3F00
ENDCHAR
STARTCHAR 025D
ENCODING 605
SWIDTH 660 0
DWIDTH 22 0
BBX 20 18 2 0
BITMAP
7F0300
FFFF00
81FF00
00E300
00E300
00E300
01C390
0381F0
3F00E0
3FC000
01E000
00F000
007000
007000
807000
C1E000
7FC000
1F0000
ENDCHAR
STARTCHAR 025E
ENCODING 606
SWIDTH 570 0
DWIDTH 19 0
BBX 15 18 2 0
BITMAP
07F0
1FFC
3C3C
780E
700E
700E
E00E
E03C
E3F8
E3F8
E03C
E00E
E00E
700E
701E
3C3C
1FF8
07E0
ENDCHAR
STARTCHAR 025F
ENCODING 607
SWIDTH 390 0
DWIDTH 13 0
BBX 13 24 -1 -6
BITMAP
0380
0380
0380
0380
0380
0380
0380
0380
0380
0380
0380
0380
0380
3FF8
3FF8
0380
0380
0380
0380
0380
0380
8700
FE00
7C00
ENDCHAR
STARTCHAR 0260
ENCODING 608
SWIDTH 630 0
DWIDTH 21 0
BBX 20 32 2 -6
BITMAP
0001F0
0003F0
000780
000700
000700
000700
000700
000700
07E700
1FF700
3C3F00
780F00
700700
700700
E00700
E00700
E00700
E00700
E00700
E00700
E00700
700700
701F00
383F00
1FF700
0FC700
000700
000600
000E00
603C00
7FF800
1FE000
ENDCHAR
STARTCHAR 0261
ENCODING 609
SWIDTH 630 0
DWIDTH 21 0
BBX 16 24 2 -6
BITMAP
01FF
07FF
1F07
3C07
3807
7007
7007
E007
E007
E007
E007
E00F
E00F
E01F
703F
78F7
3FC7
1F07
0007
0006
000E
603C
7FF8
1FE0
ENDCHAR
STARTCHAR 0262
ENCODING 610
SWIDTH 570 0
DWIDTH 19 0
BBX 15 18 2 0
BITMAP
03F8
1FFE
3C06
7800
7000
F000
E000
E000
E000
E000
E00E
E00E
F00E
700E
780E
3E0E
1FFE
03FC
ENDCHAR
STARTCHAR 0263
ENCODING 611
SWIDTH 540 0
DWIDTH 18 0
BBX 18 24 0 -6
BITMAP
6001C0
F801C0
7C01C0
1C0380
1E0380
0E0700
0F0700
070E00
078C00
039C00
03F800
01F000
01F000
01E000
01F000
03F800
073800
063C00
0C1C00
0C1C00
0C0C00
0E0C00
07F800
03F000
ENDCHAR
STARTCHAR 0264
ENCODING 612
SWIDTH 570 0
DWIDTH 19 0
BBX 17 18 1 0
BITMAP
700700
FC0F80
9E1C80
0E3800
073000
03E000
03E000
01C000
01C000
03E000
077000
063000
0C3800
0C1800
0C1800
0E3800
07F000
03E000
ENDCHAR
STARTCHAR 0265
ENCODING 613
SWIDTH 600 0
DWIDTH 20 0
BBX 14 24 3 -6
BITMAP
E01C
E01C
E01C
E01C
E01C
E01C
E01C
E01C
E01C
E01C
E01C
E01C
E01C
E03C
E07C
70FC
7FDC
1F1C
001C
001C
001C
001C
001C
001C
ENDCHAR
STARTCHAR 0266
ENCODING 614
SWIDTH 600 0
DWIDTH 20 0
BBX 14 26 3 0
BITMAP
07E0
1FF0
3810
7000
7000
6000
E000
E000
E3E0
EFF8
FC38
F81C
F01C
E01C
E01C
E01C
E01C
E01C
E01C
E01C
E01C
E01C
E01C
E01C
E01C
E01C
ENDCHAR
STARTCHAR 0267
ENCODING 615
SWIDTH 600 0
DWIDTH 20 0
BBX 14 32 3 -6
BITMAP
07E0
1FF0
3810
7000
7000
6000
E000
E000
E3E0
EFF8
FC38
F81C
F01C
E01C
E01C
E01C
E01C
E01C
E01C
E01C
E01C
E01C
E01C
E01C
E01C
E01C
001C
001C
001C
0038
01F8
01F0
ENDCHAR
STARTCHAR 0268
ENCODING 616
SWIDTH 390 0
DWIDTH 13 0
BBX 11 24 1 0
BITMAP
0E00
0E00
0E00
0000
0000
0000
0E00
0E00
0E00
0E00
0E00
0E00
0E00
FFE0
FFE0
0E00
0E00
0E00
0E00
0E00
0E00
0E00
0E00
0E00
ENDCHAR
STARTCHAR 0269
ENCODING 617
SWIDTH 360 0
DWIDTH 12 0
BBX 8 18 3 0
BITMAP
E0
E0
E0
E0
E0
E0
E0
E0
E0
E0
E0
E0
E0
E0
E0
71
7F
3E
ENDCHAR
STARTCHAR 026A
ENCODING 618
SWIDTH 420 0
DWIDTH 14 0
BBX 9 18 2 0
BITMAP
FF80
FF80
1C00
1C00
1C00
1C00
1C00
1C00
1C00
1C00
1C00
1C00
1C00
1C00
1C00
1C00
FF80
FF80
ENDCHAR
STARTCHAR 026B
ENCODING 619
SWIDTH 510 0
DWIDTH 17 0
BBX 15 26 1 0
BITMAP
0380
0380
0380
0380
0380
0380
0380
0380
0380
0386
3F86
7F8E
E3FC
C3F8
C380
0380
0380
0380
0380
0380
0380
0380
0380
0380
0380
0380
ENDCHAR
STARTCHAR 026C
ENCODING 620
SWIDTH 480 0
DWIDTH 16 0
BBX 15 26 1 0
BITMAP
01C0
01C0
01C0
01C0
01C0
01C0
01C0
3FC0
7FC0
E1C0
C1C0
C1C0
C1C0
E1C2
79CE
3FFC
0FF0
01C0
01C0
01C0
01C0
01C0
01C0
01C0
01C0
01C0
ENDCHAR
STARTCHAR 026D
ENCODING 621
SWIDTH 300 0
DWIDTH 10 0
BBX 7 32 3 -6
BITMAP
E0
E0
E0
E0
E0
E0
E0
E0
E0
E0
E0
E0
E0
E0
E0
E0
E0
E0
E0
E0
E0
E0
E0
E0
E0
E0
E0
E0
E0
70
7E
3E
ENDCHAR
STARTCHAR 026E
ENCODING 622
SWIDTH 660 0
DWIDTH 22 0
BBX 17 32 3 -6
BITMAP
E00000
E00000
E00000
E00000
E00000
E00000
E00000
E00000
FFFF00
FFFF00
E00F00
E01E00
E03C00
E07800
E07000
E0F000
E1E000
E3C000
E3F000
E3FC00
E03E00
E00F00
E00780
E00380
E00380
E00380
000380
000700
000700
0C1E00
0FFC00
07F000
ENDCHAR
STARTCHAR 026F
ENCODING 623
SWIDTH 930 0
DWIDTH 31 0
BBX 25 18 3 0
BITMAP
E01C0380
E01C0380
E01C0380
E01C0380
E01C0380
E01C0380
E01C0380
E01C0380
E01C0380
E01C0380
E01C0380
E01C0380
E01C0380
E03C0780
E07C0F80
70FE1F80
7FCFF380
1F07E380
ENDCHAR
STARTCHAR 0270
ENCODING 624
SWIDTH 930 0
DWIDTH 31 0
BBX 25 24 3 -6
BITMAP
E01C0380
E01C0380
E01C0380
E01C0380
E01C0380
E01C0380
E01C0380
E01C0380
E01C0380
E01C0380
E01C0380
E01C0380
E01C0380
E03C0780
E07C0F80
70FE1F80
7FCFF380
1F07E380
00000380
00000380
00000380
00000380
00000380
00000380
ENDCHAR
STARTCHAR 0271
ENCODING 625
SWIDTH 930 0
DWIDTH 31 0
BBX 25 24 3 -6
BITMAP
E3F07C00
E7F9FF00
FE3F8700
F81F0380
F01E0380
E01C0380
E01C0380
E01C0380
E01C0380
E01C0380
E01C0380
E01C0380
E01C0380
E01C0380
E01C0380
E01C0380
E01C0380
E01C0380
00000380
00000380
00000380
00000700
00007F00
00007C00
ENDCHAR
STARTCHAR 0272
ENCODING 626
SWIDTH 630 0
DWIDTH 21 0
BBX 19 24 -1 -6
BITMAP
0E1F00
0E7FC0
0FE1C0
0F80E0
0F00E0
0E00E0
0E00E0
0E00E0
0E00E0
0E00E0
0E00E0
0E00E0
0E00E0
0E00E0
0E00E0
0E00E0
0E00E0
0E00E0
0E0000
0E0000
0E0000
1C0000
FC0000
F80000
ENDCHAR
STARTCHAR 0273
ENCODING 627
SWIDTH 630 0
DWIDTH 21 0
BBX 18 24 3 -6
BITMAP
E3E000
EFF800
FC3800
F81C00
F01C00
E01C00
E01C00
E01C00
E01C00
E01C00
E01C00
E01C00
E01C00
E01C00
E01C00
E01C00
E01C00
E01C00
001C00
001C00
001C00
000E00
000FC0
0007C0
ENDCHAR
STARTCHAR 0274
ENCODING 628
SWIDTH 630 0
DWIDTH 21 0
BBX 15 18 3 0
BITMAP
C006
E006
F006
F006
F806
FC06
DE06
CF06
C786
C3C6
C1E6
C0F6
C07E
C03E
C03E
C01E
C00E
C006
ENDCHAR
STARTCHAR 0275
ENCODING 629
SWIDTH 600 0
DWIDTH 20 0
BBX 16 18 2 0
BITMAP
07E0
1FF8
3C3C
781E
700E
E00F
E007
E007
FFFF
FFFF
E007
E007
E007
700E
700E
3C3C
1FF8
07E0
ENDCHAR
STARTCHAR 0276
ENCODING 630
SWIDTH 810 0
DWIDTH 27 0
BBX 23 18 2 0
BITMAP
07EFFE
1FFFFE
3C3E00
781E00
700E00
700E00
E00E00
E00E00
E00FFC
E00FFC
E00E00
E00E00
700E00
700E00
781E00
3C3E00
1FFFFE
07EFFE
ENDCHAR
STARTCHAR 0277
ENCODING 631
SWIDTH 810 0
DWIDTH 27 0
BBX 23 18 2 0
BITMAP
01FE00
07FFC0
1F01F0
3C0078
380038
70001C
70381C
E0380E
E0380E
E0380E
E0380E
E0380E
E0300E
F0381E
70381C
787C38
3FEFF8
0F83E0
ENDCHAR
STARTCHAR 0278
ENCODING 632
SWIDTH 750 0
DWIDTH 25 0
BBX 21 32 2 -6
BITMAP
007000
007000
007000
007000
007000
007000
007000
007000
007000
07FE00
1FFFC0
3E73E0
7870F0
707070
E07038
E07038
E07038
E07038
E07038
E07038
707070
7870F0
3C71E0
1FFFC0
03FF00
007000
007000
007000
007000
007000
007000
007000
ENDCHAR
STARTCHAR 0279
ENCODING 633
SWIDTH 420 0
DWIDTH 14 0
BBX 11 18 0 0
BITMAP
00E0
00E0
00E0
00E0
00E0
00E0
00E0
00E0
00E0
00E0
00E0
00E0
01E0
03E0
0FE0
FEE0
FCE0
F8E0
ENDCHAR
STARTCHAR 027A
ENCODING 634
SWIDTH 420 0
DWIDTH 14 0
BBX 11 26 0 0
BITMAP
00E0
00E0
00E0
00E0
00E0
00E0
00E0
00E0
00E0
00E0
00E0
00E0
00E0
00E0
00E0
00E0
00E0
00E0
00E0
00E0
01E0
03E0
0FE0
FEE0
FCE0
F8E0
ENDCHAR
STARTCHAR 027B
ENCODING 635
SWIDTH 420 0
DWIDTH 14 0
BBX 14 24 0 -6
BITMAP
01C0
01C0
01C0
01C0
01C0
01C0
01C0
01C0
01C0
01C0
01C0
01C0
03C0
07C0
0FC0
FDC0
F9C0
F1C0
01C0
01C0
01C0
00E0
00FC
007C
ENDCHAR
STARTCHAR 027C
ENCODING 636
SWIDTH 420 0
DWIDTH 14 0
BBX 11 24 3 -6
BITMAP
E1E0
E7E0
EFE0
FE00
F800
F000
E000
E000
E000
E000
E000
E000
E000
E000
E000
E000
E000
E000
E000
E000
E000
E000
E000
E000
ENDCHAR
STARTCHAR 027D
ENCODING 637
SWIDTH 420 0
DWIDTH 14 0
BBX 11 24 3 -6
BITMAP
E1E0
E7E0
EFE0
FE00
F800
F000
E000
E000
E000
E000
E000
E000
E000
E000
E000
E000
E000
E000
E000
E000
E000
7000
7F80
1F80
ENDCHAR
STARTCHAR 027E
ENCODING 638
SWIDTH 420 0
DWIDTH 14 0
BBX 9 18 3 0
BITMAP
1F00
3F80
7080
7000
E000
E000
E000
E000
E000
E000
E000
E000
E000
E000
E000
E000
E000
E000
ENDCHAR
STARTCHAR 027F
ENCODING 639
SWIDTH 420 0
DWIDTH 14 0
BBX 9 18 2 0
BITMAP
7C00
FE00
8700
0700
0380
0380
0380
0380
0380
0380
0380
0380
0380
0380
0380
0380
0380
0380
ENDCHAR
STARTCHAR 0280
ENCODING 640
SWIDTH 540 0
DWIDTH 18 0
BBX 14 18 3 0
BITMAP
FF80
FFE0
E0F0
E070
E070
E070
E070
E0E0
E1E0
FFC0
FF80
E380
E1C0
E1E0
E0F0
E070
E078
E03C
ENDCHAR
STARTCHAR 0281
ENCODING 641
SWIDTH 540 0
DWIDTH 18 0
BBX 14 18 3 0
BITMAP
E03C
E038
E070
E0F0
E0E0
E1E0
E1C0
E380
FF80
FFC0
E1E0
E0E0
E070
E070
E070
E0F0
FFE0
FFC0
ENDCHAR
STARTCHAR 0282
ENCODING 642
SWIDTH 510 0
DWIDTH 17 0
BBX 11 24 3 -6
BITMAP
1F80
7FC0
7040
E000
E000
E000
F000
7C00
3F00
0FC0
03C0
01E0
00E0
00E0
80E0
E1C0
FF80
FF00
C000
C000
C000
6000
7E00
3E00
ENDCHAR
STARTCHAR 0283
ENCODING 643
SWIDTH 420 0
DWIDTH 14 0
BBX 16 32 -1 -6
BITMAP
003E
00FF
01C1
01C0
0380
0380
0380
0380
0380
0380
0380
0380
0380
0380
0380
0380
0380
0380
0380
0380
0380
0380
0380
0380
0380
0380
0380
0380
0700
8700
FE00
7C00
ENDCHAR
STARTCHAR 0284
ENCODING 644
SWIDTH 420 0
DWIDTH 14 0
BBX 13 32 -1 -6
BITMAP
00F8
01F8
01C0
0380
0380
0380
0380
0380
0380
0380
0380
0380
0380
0380
0380
0380
0380
0380
0380
0380
0380
3FF8
3FF8
0380
0380
0380
0380
0380
0380
8700
FE00
7C00
ENDCHAR
STARTCHAR 0285
ENCODING 645
SWIDTH 480 0
DWIDTH 16 0
BBX 17 24 0 -6
BITMAP
7C0000
FF0000
838000
038000
01C000
01C000
01C000
01C000
01C000
01C000
01C000
01C000
01C000
01C000
01C000
01C000
01C000
01C000
01C000
01C000
00E000
00E080
007F80
001F00
ENDCHAR
STARTCHAR 0286
ENCODING 646
SWIDTH 540 0
DWIDTH 18 0
BBX 18 32 0 -6
BITMAP
000F80
003FC0
007040
007000
00E000
00E000
00E000
00E000
00E000
00E000
00E000
00E000
00E000
00E000
00E000
00E000
00E000
00E000
00E000
00E000
00E000
00E000
0FFC00
3FFF00
78E300
F0E000
E0E000
E0E000
E1C000
F1C000
7F8000
1E0000
ENDCHAR
STARTCHAR 0287
ENCODING 647
SWIDTH 360 0
DWIDTH 12 0
BBX 10 21 1 -3
BITMAP
F800
FE00
0E00
0700
0700
0700
0700
0700
0700
0700
0700
0700
0700
0700
0700
0700
FFC0
FFC0
0700
0700
0700
ENDCHAR
STARTCHAR 0288
ENCODING 648
SWIDTH 360 0
DWIDTH 12 0
BBX 9 27 1 -6
BITMAP
3800
3800
3800
FF80
FF80
3800
3800
3800
3800
3800
3800
3800
3800
3800
3800
3800
3800
3800
3800
3800
3800
3800
3800
3800
1C00
1F80
0F80
ENDCHAR
STARTCHAR 0289
ENCODING 649
SWIDTH 660 0
DWIDTH 22 0
BBX 20 18 1 0
BITMAP
1C0380
1C0380
1C0380
1C0380
1C0380
1C0380
FFFFF0
FFFFF0
1C0380
1C0380
1C0380
1C0380
1C0380
1C0780
1C0F80
0E1F80
0FFB80
03E380
ENDCHAR
STARTCHAR 028A
ENCODING 650
SWIDTH 660 0
DWIDTH 22 0
BBX 20 18 1 0
BITMAP
FC03F0
FC03F0
1C0380
3801C0
3801C0
3000C0
7000E0
7000E0
7000E0
7000E0
7000E0
7000E0
3801C0
3801C0
1C0380
1F0F80
07FE00
01F800
ENDCHAR
STARTCHAR 028B
ENCODING 651
SWIDTH 600 0
DWIDTH 20 0
BBX 16 18 1 0
BITMAP
E00E
E00F
7007
7007
7007
7007
3807
3807
3806
3806
1C0E
1C0C
1C1C
1C18
0E30
0E60
0FC0
0F00
ENDCHAR
STARTCHAR 028C
ENCODING 652
SWIDTH 510 0
DWIDTH 17 0
BBX 17 18 0 0
BITMAP
00C000
00E000
01E000
01F000
037000
037000
067800
063800
0C3800
0C1C00
1C1C00
181E00
180E00
300E00
300F00
600700
600700
C00380
ENDCHAR
STARTCHAR 028D
ENCODING 653
SWIDTH 750 0
DWIDTH 25 0
BBX 25 18 0 0
BITMAP
01C0F000
03C0F000
03C0F000
03C1F000
06E1B800
06E1B800
0EE1B800
0CE39C00
0CE31C00
18731C00
18770E00
18760E00
30760E00
30760F00
603E0700
603C0700
603C0780
C03C0380
ENDCHAR
STARTCHAR 028E
ENCODING 654
SWIDTH 510 0
DWIDTH 17 0
BBX 17 24 0 0
BITMAP
003000
006000
006000
00C000
00C000
01C000
01C000
01E000
03E000
037000
067000
067000
043800
0C3800
0C1C00
181C00
181C00
300E00
300E00
300E00
600700
600700
C00380
C00380
ENDCHAR
STARTCHAR 028F
ENCODING 655
SWIDTH 480 0
DWIDTH 16 0
BBX 15 18 0 0
BITMAP
F006
700C
781C
3818
1C30
1E30
0E60
0F60
07C0
0380
0380
0380
0380
0380
0380
0380
0380
0380
ENDCHAR
STARTCHAR 0290
ENCODING 656
SWIDTH 570 0
DWIDTH 19 0
BBX 19 24 2 -6
BITMAP
7FFE00
7FFE00
001E00
003C00
007800
007000
00E000
01E000
03C000
078000
0F0000
0E0000
1C0000
3C0000
780000
F00000
FFFC00
FFFC00
000C00
000C00
000C00
000E00
0007E0
0003E0
ENDCHAR
STARTCHAR 0291
ENCODING 657
SWIDTH 690 0
DWIDTH 23 0
BBX 20 23 2 -5
BITMAP
FFFC00
FFFC00
003C00
007800
007000
00E000
01E000
03C000
038000
0703C0
0F0FE0
1E1E30
1C1C30
383830
787070
F060E0
FFFFC0
FFFF00
018000
018000
030000
030000
030000
ENDCHAR
STARTCHAR 0292
ENCODING 658
SWIDTH 510 0
DWIDTH 17 0
BBX 13 24 2 -6
BITMAP
FFF0
FFF0
00F0
01E0
03C0
0380
0700
0F00
1E00
3C00
3F00
3FC0
03E0
00F0
0078
0038
0038
0038
0038
0038
0070
C0E0
FFC0
3F00
ENDCHAR
STARTCHAR 0293
ENCODING 659
SWIDTH 540 0
DWIDTH 18 0
BBX 15 27 1 -9
BITMAP
7FFE
7FFE
003C
0078
00F0
01E0
07C0
0F80
1F00
1FC0
1FF0
00F8
003C
001E
000E
3E0E
7F0E
E38E
C1CE
C0FC
E078
70F8
3FF8
0F98
000C
000C
000C
ENDCHAR
STARTCHAR 0294
ENCODING 660
SWIDTH 450 0
DWIDTH 15 0
BBX 13 26 1 0
BITMAP
7F00
FFC0
81E0
0070
0070
0038
0038
0038
0038
0038
0078
0070
00F0
01E0
1FC0
1F00
1C00
1C00
1C00
1C00
1C00
1C00
1C00
1C00
1C00
1C00
ENDCHAR
STARTCHAR 0295
ENCODING 661
SWIDTH 450 0
DWIDTH 15 0
BBX 13 26 1 0
BITMAP
07F0
1FF8
3C08
7000
7000
E000
E000
E000
E000
E000
F000
7000
7800
3C00
1FC0
07C0
01C0
01C0
01C0
01C0
01C0
01C0
01C0
01C0
01C0
01C0
ENDCHAR
STARTCHAR 0296
ENCODING 662
SWIDTH 450 0
DWIDTH 15 0
BBX 13 26 1 0
BITMAP
1C00
1C00
1C00
1C00
1C00
1C00
1C00
1C00
1C00
1C00
1F00
1FC0
01E0
00F0
0070
0078
0038
0038
0038
0038
0038
0070
0070
81E0
FFC0
7F00
ENDCHAR
STARTCHAR 0297
ENCODING 663
SWIDTH 480 0
DWIDTH 16 0
BBX 13 24 2 -6
BITMAP
03F0
0FF8
1E08
3800
3800
7000
7000
E000
E000
E000
E000
E000
E000
E000
E000
E000
E000
7000
7000
3800
3800
1E08
0FF8
03F0
ENDCHAR
STARTCHAR 0298
ENCODING 664
SWIDTH 660 0
DWIDTH 22 0
BBX 18 18 2 0
BITMAP
03F000
0FFC00
1FFE00
3E1F00
780780
700380
F003C0
E1E1C0
E1E1C0
E1E1C0
E1E1C0
F003C0
700380
780780
3E1F00
1FFE00
0FFC00
03F000
ENDCHAR
STARTCHAR 0299
ENCODING 665
SWIDTH 540 0
DWIDTH 18 0
BBX 13 18 3 0
BITMAP
FFC0
FFE0
E0F0
E070
E070
E070
E0E0
E1E0
FF80
FFC0
E0F0
E070
E038
E038
E038
E078
FFF0
FFC0
ENDCHAR
STARTCHAR 029A
ENCODING 666
SWIDTH 570 0
DWIDTH 19 0
BBX 15 18 2 0
BITMAP
1FC0
7FF0
7878
E038
E01C
E01C
E00E
780E
3F8E
3F8E
700E
E00E
E00E
E01C
F01C
7878
3FF0
0FC0
ENDCHAR
STARTCHAR 029B
ENCODING 667
SWIDTH 600 0
DWIDTH 20 0
BBX 20 26 2 0
BITMAP
0001F0
0003F0
000300
000600
000600
000600
000600
000600
03FE00
0FFE00
3C0600
780000
700000
700000
E00000
E00000
E00000
E00000
E00E00
E00E00
F00E00
700E00
780E00
3E0E00
1FFE00
03FC00
ENDCHAR
STARTCHAR 029C
ENCODING 668
SWIDTH 630 0
DWIDTH 21 0
BBX 15 18 3 0
BITMAP
E00E
E00E
E00E
E00E
E00E
E00E
E00E
E00E
FFFE
FFFE
E00E
E00E
E00E
E00E
E00E
E00E
E00E
E00E
ENDCHAR
STARTCHAR 029D
ENCODING 669
SWIDTH 480 0
DWIDTH 16 0
BBX 16 30 0 -6
BITMAP
00E0
00E0
00E0
0000
0000
0000
00E0
00E0
00E0
00E0
00E0
00E0
00E0
00E0
00E0
00E0
00E0
00E0
00E0
00E0
0FFC
3FFF
78E3
F0E0
E0E0
E0E0
E1C0
F1C0
7F80
1E00
ENDCHAR
STARTCHAR 029E
ENCODING 670
SWIDTH 570 0
DWIDTH 19 0
BBX 16 24 0 -6
BITMAP
F007
7807
3C07
1E07
0F07
0787
03C7
01E7
00F7
007F
0037
0067
01C7
0387
0707
0C07
1807
3007
0007
0007
0007
0007
0007
0007
ENDCHAR
STARTCHAR 029F
ENCODING 671
SWIDTH 450 0
DWIDTH 15 0
BBX 11 18 3 0
BITMAP
E000
E000
E000
E000
E000
E000
E000
E000
E000
E000
E000
E000
E000
E000
E000
E000
FFE0
FFE0
ENDCHAR
STARTCHAR 02A0
ENCODING 672
SWIDTH 630 0
DWIDTH 21 0
BBX 20 32 2 -6
BITMAP
0001F0
0003F0
000780
000700
000700
000700
000700
000700
07E700
1FF700
3C3F00
780F00
700700
600700
E00700
E00700
E00700
E00700
E00700
E00700
E00700
700700
700F00
383F00
1FF700
0FC700
000700
000700
000700
000700
000700
000700
ENDCHAR
STARTCHAR 02A1
ENCODING 673
SWIDTH 450 0
DWIDTH 15 0
BBX 13 26 1 0
BITMAP
7F00
FFC0
81E0
0070
0070
0038
0038
0038
0038
0038
0078
0070
00F0
01E0
1FC0
1F00
1C00
1C00
1C00
FFF0
FFF0
1C00
1C00
1C00
1C00
1C00
ENDCHAR
STARTCHAR 02A2
ENCODING 674
SWIDTH 450 0
DWIDTH 15 0
BBX 13 26 1 0
BITMAP
07F0
1FF8
3C08
7000
7000
E000
E000
E000
E000
E000
F000
7000
7800
3C00
1FC0
07C0
01C0
01C0
01C0
7FF8
7FF8
01C0
01C0
01C0
01C0
01C0
ENDCHAR
STARTCHAR 02A3
ENCODING 675
SWIDTH 1020 0
DWIDTH 34 0
BBX 30 26 2 0
BITMAP
00070000
00070000
00070000
00070000
00070000
00070000
00070000
00070000
07E7FFFC
1FF7FFFC
3C3F003C
780F0038
70070070
600700F0
E00700E0
E00701E0
E00701C0
E0070380
E0070780
E0070700
E0070F00
700F0E00
701F1C00
38773C00
1FE73FFC
0FC73FFC
ENDCHAR
STARTCHAR 02A4
ENCODING 676
SWIDTH 990 0
DWIDTH 33 0
BBX 29 32 2 -6
BITMAP
000E0000
000E0000
000E0000
000E0000
000E0000
000E0000
000E0000
000E0000
07CFFFF0
1FEFFFF0
383E00F0
701E01E0
700E03C0
600E0780
E00E0700
E00E0F00
E00E1E00
E00E3C00
E00E3F00
E00E3FC0
E00E03E0
700E00F0
701E0078
387E0038
3FEE0038
0F8E0038
00000038
00000070
00000070
0000C1E0
0000FFC0
00007F00
ENDCHAR
STARTCHAR 02A5
ENCODING 677
SWIDTH 1200 0
DWIDTH 40 0
BBX 37 31 2 -5
BITMAP
000E000000
000E000000
000E000000
000E000000
000E000000
000E000000
000E000000
000E000000
07CFFFF800
1FEFFFF800
383E007800
701E007000
700E00E000
600E01E000
E00E01C000
E00E03C000
E00E038000
E00E0701E0
E00E0F07F0
E00E0E0F18
E00E1E1C18
700E1C3818
701E387038
387E7870F0
3FEE7FFFE0
0F8E7FFF00
0000018000
0000018000
0000038000
0000030000
0000030000
ENDCHAR
STARTCHAR 02A6
ENCODING 678
SWIDTH 780 0
DWIDTH 26 0
BBX 23 21 1 0
BITMAP
380000
380000
380000
FFFFF0
FFFFFC
380E0C
381C00
381C00
381C00
381E00
380FC0
3807F0
3801FC
38007C
38001E
38000E
38000E
38100E
1C1C1C
1FCFF8
07C3E0
ENDCHAR
STARTCHAR 02A7
ENCODING 679
SWIDTH 690 0
DWIDTH 23 0
BBX 23 32 1 -6
BITMAP
00007C
0001FE
000382
000380
000700
380700
380700
380700
FFFF00
FFFF00
380700
380700
380700
380700
380700
380700
380700
380700
380700
380700
380700
380700
380700
1C0700
1FC700
07C700
000700
000700
000E00
010E00
01FC00
00F800
ENDCHAR
STARTCHAR 02A8
ENCODING 680
SWIDTH 870 0
DWIDTH 29 0
BBX 27 24 1 -3
BITMAP
38000000
38000000
38000000
FFFFFF00
FFFFFF80
38078080
380F0000
380E0000
381E0000
381C0000
381C0000
381C0000
381C0F80
381C1FC0
381E3860
380E7060
380FE060
3807C0E0
1C03C1C0
1FC3FF80
07C77E00
00060000
00060000
00060000
ENDCHAR
STARTCHAR 02B0
ENCODING 688
SWIDTH 390 0
DWIDTH 13 0
BBX 9 15 2 15
BITMAP
C000
C000
C000
C000
CF00
DF80
F180
E180
C180
C180
C180
C180
C180
C180
C180
ENDCHAR
STARTCHAR 02B1
ENCODING 689
SWIDTH 390 0
DWIDTH 13 0
BBX 9 15 2 15
BITMAP
1F00
7F00
6000
C000
CF00
DF80
F180
E180
C180
C180
C180
C180
C180
C180
C180
ENDCHAR
STARTCHAR 02B2
ENCODING 690
SWIDTH 240 0
DWIDTH 8 0
BBX 6 19 0 11
BITMAP
0C
0C
00
00
0C
0C
0C
0C
0C
0C
0C
0C
0C
0C
0C
0C
9C
F8
70
ENDCHAR
STARTCHAR 02B3
ENCODING 691
SWIDTH 270 0
DWIDTH 9 0
BBX 7 11 2 15
BITMAP
CE
DE
F0
C0
C0
C0
C0
C0
C0
C0
C0
ENDCHAR
STARTCHAR 02B4
ENCODING 692
SWIDTH 270 0
DWIDTH 9 0
BBX 6 11 1 15
BITMAP
0C
0C
0C
0C
0C
0C
0C
0C
1C
FC
EC
ENDCHAR
STARTCHAR 02B5
ENCODING 693
SWIDTH 330 0
DWIDTH 11 0
BBX 10 15 1 11
BITMAP
0C00
0C00
0C00
0C00
0C00
0C00
0C00
0C00
1C00
FC00
CC00
0C00
0C00
07C0
03C0
ENDCHAR
STARTCHAR 02B6
ENCODING 694
SWIDTH 360 0
DWIDTH 12 0
BBX 9 11 2 15
BITMAP
C380
C300
C600
CE00
FC00
FE00
C700
C300
C300
FF00
FE00
ENDCHAR
STARTCHAR 02B7
ENCODING 695
SWIDTH 480 0
DWIDTH 16 0
BBX 15 11 0 15
BITMAP
C182
E186
6284
62C4
62C4
36C8
34C8
34C8
34D0
1870
1870
ENDCHAR
STARTCHAR 02B8
ENCODING 696
SWIDTH 330 0
DWIDTH 11 0
BBX 11 14 0 11
BITMAP
C020
6040
6040
7080
3080
3100
1900
1F00
0E00
0E00
0C00
0400
0800
0800
ENDCHAR
STARTCHAR 02B9
ENCODING 697
SWIDTH 300 0
DWIDTH 10 0
BBX 7 10 2 16
BITMAP
1E
1C
3C
38
38
70
70
60
E0
C0
ENDCHAR
STARTCHAR 02BA
ENCODING 698
SWIDTH 510 0
DWIDTH 17 0
BBX 14 10 2 16
BITMAP
1E3C
1C38
3C78
3870
3870
70E0
70E0
60C0
E1C0
C180
ENDCHAR
STARTCHAR 02BB
ENCODING 699
SWIDTH 300 0
DWIDTH 10 0
BBX 4 9 3 17
BITMAP
30
60
C0
C0
C0
F0
F0
F0
F0
ENDCHAR
STARTCHAR 02BC
ENCODING 700
SWIDTH 300 0
DWIDTH 10 0
BBX 4 9 3 17
BITMAP
F0
F0
F0
F0
30
30
30
60
C0
ENDCHAR
STARTCHAR 02BD
ENCODING 701
SWIDTH 300 0
DWIDTH 10 0
BBX 4 9 3 17
BITMAP
F0
F0
F0
F0
C0
C0
C0
60
30
ENDCHAR
STARTCHAR 02BE
ENCODING 702
SWIDTH 300 0
DWIDTH 10 0
BBX 6 9 3 17
BITMAP
E0
F8
18
0C
0C
0C
1C
F8
E0
ENDCHAR
STARTCHAR 02BF
ENCODING 703
SWIDTH 300 0
DWIDTH 10 0
BBX 6 9 2 17
BITMAP
1C
7C
E0
C0
C0
C0
E0
7C
1C
ENDCHAR
STARTCHAR 02C0
ENCODING 704
SWIDTH 330 0
DWIDTH 11 0
BBX 8 11 2 15
BITMAP
7C
FE
83
03
07
06
0E
1C
18
38
38
ENDCHAR
STARTCHAR 02C1
ENCODING 705
SWIDTH 330 0
DWIDTH 11 0
BBX 8 11 1 15
BITMAP
3E
7F
C1
C0
C0
60
70
38
18
0C
0C
ENDCHAR
STARTCHAR 02C2
ENCODING 706
SWIDTH 390 0
DWIDTH 13 0
BBX 10 11 1 15
BITMAP
0040
01C0
0780
1E00
3800
F000
3800
1E00
0780
01C0
0040
ENDCHAR
STARTCHAR 02C3
ENCODING 707
SWIDTH 390 0
DWIDTH 13 0
BBX 10 11 2 15
BITMAP
8000
E000
7800
1E00
0700
03C0
0700
1E00
7800
E000
8000
ENDCHAR
STARTCHAR 02C4
ENCODING 708
SWIDTH 390 0
DWIDTH 13 0
BBX 11 10 1 16
BITMAP
0400
0400
0E00
1F00
1B00
3180
3180
60C0
60C0
C060
ENDCHAR
STARTCHAR 02C5
ENCODING 709
SWIDTH 390 0
DWIDTH 13 0
BBX 11 10 1 16
BITMAP
C060
60C0
60C0
3180
3180
1B00
1F00
0E00
0400
0400
ENDCHAR
STARTCHAR 02C6
ENCODING 710
SWIDTH 600 0
DWIDTH 20 0
BBX 11 5 4 21
BITMAP
1F00
1F00
3B80
71C0
C060
ENDCHAR
STARTCHAR 02C7
ENCODING 711
SWIDTH 600 0
DWIDTH 20 0
BBX 11 5 4 21
BITMAP
C060
71C0
3B80
1F00
1F00
ENDCHAR
STARTCHAR 02C8
ENCODING 712
SWIDTH 240 0
DWIDTH 8 0
BBX 2 10 3 16
BITMAP
C0
C0
C0
C0
C0
C0
C0
C0
C0
C0
ENDCHAR
STARTCHAR 02C9
ENCODING 713
SWIDTH 600 0
DWIDTH 20 0
BBX 10 2 5 21
BITMAP
FFC0
FFC0
ENDCHAR
STARTCHAR 02CA
ENCODING 714
SWIDTH 600 0
DWIDTH 20 0
BBX 7 5 6 21
BITMAP
0E
1C
38
70
E0
ENDCHAR
STARTCHAR 02CB
ENCODING 715
SWIDTH 600 0
DWIDTH 20 0
BBX 7 5 7 21
BITMAP
E0
70
38
1C
0E
ENDCHAR
STARTCHAR 02CC
ENCODING 716
SWIDTH 240 0
DWIDTH 8 0
BBX 2 8 3 -6
BITMAP
C0
C0
C0
C0
C0
C0
C0
C0
ENDCHAR
STARTCHAR 02CD
ENCODING 717
SWIDTH 600 0
DWIDTH 20 0
BBX 10 2 5 -5
BITMAP
FFC0
FFC0
ENDCHAR
STARTCHAR 02CE
ENCODING 718
SWIDTH 600 0
DWIDTH 20 0
BBX 7 5 7 -8
BITMAP
E0
70
38
1C
0E
ENDCHAR
STARTCHAR 02CF
ENCODING 719
SWIDTH 600 0
DWIDTH 20 0
BBX 7 5 6 -8
BITMAP
0E
1C
38
70
E0
ENDCHAR
STARTCHAR 02D0
ENCODING 720
SWIDTH 420 0
DWIDTH 14 0
BBX 7 18 3 0
BITMAP
FE
7C
7C
38
38
10
10
00
00
00
00
10
10
38
38
7C
7C
FE
ENDCHAR
STARTCHAR 02D1
ENCODING 721
SWIDTH 420 0
DWIDTH 14 0
BBX 7 7 3 11
BITMAP
FE
7C
7C
38
38
10
10
ENDCHAR
STARTCHAR 02D2
ENCODING 722
SWIDTH 300 0
DWIDTH 10 0
BBX 6 9 2 5
BITMAP
E0
F8
18
0C
0C
0C
1C
F8
E0
ENDCHAR
STARTCHAR 02D3
ENCODING 723
SWIDTH 300 0
DWIDTH 10 0
BBX 6 9 2 5
BITMAP
1C
7C
E0
C0
C0
C0
E0
7C
1C
ENDCHAR
STARTCHAR 02D4
ENCODING 724
SWIDTH 480 0
DWIDTH 16 0
BBX 10 7 3 8
BITMAP
0C00
0C00
0C00
0C00
0C00
FFC0
FFC0
ENDCHAR
STARTCHAR 02D5
ENCODING 725
SWIDTH 480 0
DWIDTH 16 0
BBX 10 7 3 8
BITMAP
FFC0
FFC0
0C00
0C00
0C00
0C00
0C00
ENDCHAR
STARTCHAR 02D6
ENCODING 726
SWIDTH 480 0
DWIDTH 16 0
BBX 10 10 3 4
BITMAP
0C00
0C00
0C00
0C00
FFC0
FFC0
0C00
0C00
0C00
0C00
ENDCHAR
STARTCHAR 02D7
ENCODING 727
SWIDTH 480 0
DWIDTH 16 0
BBX 11 6 2 6
BITMAP
C060
C060
FFE0
FFE0
C060
C060
ENDCHAR
STARTCHAR 02D8
ENCODING 728
SWIDTH 600 0
DWIDTH 20 0
BBX 11 5 4 21
BITMAP
C060
E0E0
61C0
3F80
1F00
ENDCHAR
STARTCHAR 02D9
ENCODING 729
SWIDTH 600 0
DWIDTH 20 0
BBX 3 3 8 21
BITMAP
E0
E0
E0
ENDCHAR
STARTCHAR 02DA
ENCODING 730
SWIDTH 600 0
DWIDTH 20 0
BBX 7 7 6 21
BITMAP
38
44
82
82
82
44
38
ENDCHAR
STARTCHAR 02DB
ENCODING 731
SWIDTH 600 0
DWIDTH 20 0
BBX 6 6 8 -6
BITMAP
60
40
C0
C0
FC
78
ENDCHAR
STARTCHAR 02DC
ENCODING 732
SWIDTH 600 0
DWIDTH 20 0
BBX 11 4 4 21
BITMAP
7860
7E60
CFC0
C3C0
ENDCHAR
STARTCHAR 02DD
ENCODING 733
SWIDTH 600 0
DWIDTH 20 0
BBX 13 5 4 21
BITMAP
0E38
1C70
38E0
71C0
E380
ENDCHAR
STARTCHAR 02DE
ENCODING 734
SWIDTH 210 0
DWIDTH 7 0
BBX 9 9 -3 3
BITMAP
0C00
7C00
FC00
8C00
0C00
0C00
0C00
0780
0380
ENDCHAR
STARTCHAR 02E0
ENCODING 736
SWIDTH 390 0
DWIDTH 13 0
BBX 12 16 0 9
BITMAP
6030
F030
3860
1860
1CC0
0DC0
0F80
0700
0700
0F00
0F80
1980
1980
1980
1F80
0F00
ENDCHAR
STARTCHAR 02E1
ENCODING 737
SWIDTH 180 0
DWIDTH 6 0
BBX 2 15 2 15
BITMAP
C0
C0
C0
C0
C0
C0
C0
C0
C0
C0
C0
C0
C0
C0
C0
ENDCHAR
STARTCHAR 02E2
ENCODING 738
SWIDTH 330 0
DWIDTH 11 0
BBX 7 11 2 15
BITMAP
78
FC
C4
C0
70
3C
0E
06
86
FE
78
ENDCHAR
STARTCHAR 02E3
ENCODING 739
SWIDTH 420 0
DWIDTH 14 0
BBX 10 11 2 15
BITMAP
C040
6080
3100
3A00
1C00
0C00
0E00
1700
2300
4180
80C0
ENDCHAR
STARTCHAR 02E4
ENCODING 740
SWIDTH 330 0
DWIDTH 11 0
BBX 8 15 1 15
BITMAP
3E
7F
E1
C0
C0
60
70
38
18
0C
0C
0C
0C
0C
0C
ENDCHAR
STARTCHAR 02E5
ENCODING 741
SWIDTH 420 0
DWIDTH 14 0
BBX 10 24 1 0
BITMAP
FFC0
FFC0
00C0
00C0
00C0
00C0
00C0
00C0
00C0
00C0
00C0
00C0
00C0
00C0
00C0
00C0
00C0
00C0
00C0
00C0
00C0
00C0
00C0
00C0
ENDCHAR
STARTCHAR 02E6
ENCODING 742
SWIDTH 420 0
DWIDTH 14 0
BBX 10 24 1 0
BITMAP
00C0
00C0
00C0
00C0
00C0
FFC0
FFC0
00C0
00C0
00C0
00C0
00C0
00C0
00C0
00C0
00C0
00C0
00C0
00C0
00C0
00C0
00C0
00C0
00C0
ENDCHAR
STARTCHAR 02E7
ENCODING 743
SWIDTH 420 0
DWIDTH 14 0
BBX 10 24 1 0
BITMAP
00C0
00C0
00C0
00C0
00C0
00C0
00C0
00C0
00C0
00C0
00C0
FFC0
FFC0
00C0
00C0
00C0
00C0
00C0
00C0
00C0
00C0
00C0
00C0
00C0
ENDCHAR
STARTCHAR 02E8
ENCODING 744
SWIDTH 420 0
DWIDTH 14 0
BBX 10 24 1 0
BITMAP
00C0
00C0
00C0
00C0
00C0
00C0
00C0
00C0
00C0
00C0
00C0
00C0
00C0
00C0
00C0
00C0
00C0
FFC0
FFC0
00C0
00C0
00C0
00C0
00C0
ENDCHAR
STARTCHAR 02E9
ENCODING 745
SWIDTH 420 0
DWIDTH 14 0
BBX 10 24 1 0
BITMAP
00C0
00C0
00C0
00C0
00C0
00C0
00C0
00C0
00C0
00C0
00C0
00C0
00C0
00C0
00C0
00C0
00C0
00C0
00C0
00C0
00C0
00C0
FFC0
FFC0
ENDCHAR
STARTCHAR 0300
ENCODING 768
SWIDTH 0 0
DWIDTH 0 0
BBX 7 5 -14 21
BITMAP
E0
70
38
1C
0E
ENDCHAR
STARTCHAR 0301
ENCODING 769
SWIDTH 0 0
DWIDTH 0 0
BBX 7 5 -13 21
BITMAP
0E
1C
38
70
E0
ENDCHAR
STARTCHAR 0302
ENCODING 770
SWIDTH 0 0
DWIDTH 0 0
BBX 11 5 -15 21
BITMAP
1F00
1F00
3B80
71C0
C060
ENDCHAR
STARTCHAR 0303
ENCODING 771
SWIDTH 0 0
DWIDTH 0 0
BBX 11 4 -16 21
BITMAP
7860
7E60
CFC0
C3C0
ENDCHAR
STARTCHAR 0304
ENCODING 772
SWIDTH 0 0
DWIDTH 0 0
BBX 10 2 -15 21
BITMAP
FFC0
FFC0
ENDCHAR
STARTCHAR 0305
ENCODING 773
SWIDTH 0 0
DWIDTH 0 0
BBX 20 2 -20 26
BITMAP
FFFFF0
FFFFF0
ENDCHAR
STARTCHAR 0306
ENCODING 774
SWIDTH 0 0
DWIDTH 0 0
BBX 11 5 -16 21
BITMAP
C060
C0E0
61C0
3F80
1F00
ENDCHAR
STARTCHAR 0307
ENCODING 775
SWIDTH 0 0
DWIDTH 0 0
BBX 3 3 -12 21
BITMAP
E0
E0
E0
ENDCHAR
STARTCHAR 0308
ENCODING 776
SWIDTH 0 0
DWIDTH 0 0
BBX 10 3 -15 21
BITMAP
E1C0
E1C0
E1C0
ENDCHAR
STARTCHAR 0309
ENCODING 777
SWIDTH 0 0
DWIDTH 0 0
BBX 6 7 -12 21
BITMAP
F8
FC
0C
0C
38
60
60
ENDCHAR
STARTCHAR 030A
ENCODING 778
SWIDTH 0 0
DWIDTH 0 0
BBX 7 7 -14 21
BITMAP
38
44
82
82
82
44
38
ENDCHAR
STARTCHAR 030B
ENCODING 779
SWIDTH 0 0
DWIDTH 0 0
BBX 13 5 -15 21
BITMAP
0E38
1C70
38E0
71C0
E380
ENDCHAR
STARTCHAR 030C
ENCODING 780
SWIDTH 0 0
DWIDTH 0 0
BBX 11 5 -15 21
BITMAP
C060
71C0
3B80
1F00
1F00
ENDCHAR
STARTCHAR 030D
ENCODING 781
SWIDTH 0 0
DWIDTH 0 0
BBX 2 6 -11 21
BITMAP
C0
C0
C0
C0
C0
C0
ENDCHAR
STARTCHAR 030E
ENCODING 782
SWIDTH 0 0
DWIDTH 0 0
BBX 7 6 -14 21
BITMAP
C6
C6
C6
C6
C6
C6
ENDCHAR
STARTCHAR 030F
ENCODING 783
SWIDTH 0 0
DWIDTH 0 0
BBX 13 5 -18 21
BITMAP
E380
71C0
38E0
1C70
0E38
ENDCHAR
STARTCHAR 0310
ENCODING 784
SWIDTH 0 0
DWIDTH 0 0
BBX 11 10 -16 21
BITMAP
0E00
0E00
0E00
0000
0000
C060
E0E0
61C0
3F80
1F00
ENDCHAR
STARTCHAR 0311
ENCODING 785
SWIDTH 0 0
DWIDTH 0 0
BBX 11 5 -16 21
BITMAP
1F00
3F80
71C0
E0E0
C060
ENDCHAR
STARTCHAR 0312
ENCODING 786
SWIDTH 0 0
DWIDTH 0 0
BBX 3 7 -12 21
BITMAP
20
40
C0
C0
E0
E0
E0
ENDCHAR
STARTCHAR 0313
ENCODING 787
SWIDTH 0 0
DWIDTH 0 0
BBX 3 7 -12 21
BITMAP
E0
E0
E0
60
60
40
80
ENDCHAR
STARTCHAR 0314
ENCODING 788
SWIDTH 0 0
DWIDTH 0 0
BBX 3 7 -12 21
BITMAP
E0
E0
E0
C0
C0
40
20
ENDCHAR
STARTCHAR 0315
ENCODING 789
SWIDTH 0 0
DWIDTH 0 0
BBX 3 7 -3 21
BITMAP
E0
E0
E0
60
60
40
80
ENDCHAR
STARTCHAR 0316
ENCODING 790
SWIDTH 0 0
DWIDTH 0 0
BBX 7 5 -13 -8
BITMAP
E0
70
38
1C
0E
ENDCHAR
STARTCHAR 0317
ENCODING 791
SWIDTH 0 0
DWIDTH 0 0
BBX 7 5 -14 -8
BITMAP
0E
1C
38
70
E0
ENDCHAR
STARTCHAR 0318
ENCODING 792
SWIDTH 0 0
DWIDTH 0 0
BBX 6 8 -13 -11
BITMAP
0C
0C
0C
FC
FC
0C
0C
0C
ENDCHAR
STARTCHAR 0319
ENCODING 793
SWIDTH 0 0
DWIDTH 0 0
BBX 6 8 -13 -11
BITMAP
C0
C0
C0
FC
FC
C0
C0
C0
ENDCHAR
STARTCHAR 031A
ENCODING 794
SWIDTH 0 0
DWIDTH 0 0
BBX 8 8 -8 18
BITMAP
FF
FF
03
03
03
03
03
03
ENDCHAR
STARTCHAR 031B
ENCODING 795
SWIDTH 60 0
DWIDTH 2 0
BBX 5 7 -3 12
BITMAP
18
18
18
18
30
F0
C0
ENDCHAR
STARTCHAR 031C
ENCODING 796
SWIDTH 0 0
DWIDTH 0 0
BBX 4 7 -12 -10
BITMAP
30
70
C0
C0
C0
70
30
ENDCHAR
STARTCHAR 031D
ENCODING 797
SWIDTH 0 0
DWIDTH 0 0
BBX 8 6 -14 -9
BITMAP
18
18
18
18
FF
FF
ENDCHAR
STARTCHAR 031E
ENCODING 798
SWIDTH 0 0
DWIDTH 0 0
BBX 8 6 -14 -9
BITMAP
FF
FF
18
18
18
18
ENDCHAR
STARTCHAR 031F
ENCODING 799
SWIDTH 0 0
DWIDTH 0 0
BBX 8 8 -14 -11
BITMAP
18
18
18
FF
FF
18
18
18
ENDCHAR
STARTCHAR 0320
ENCODING 800
SWIDTH 0 0
DWIDTH 0 0
BBX 9 6 -15 -9
BITMAP
C180
C180
FF80
FF80
C180
C180
ENDCHAR
STARTCHAR 0321
ENCODING 801
SWIDTH 0 0
DWIDTH 0 0
BBX 7 7 -7 -7
BITMAP
0E
0E
0E
0E
1C
FC
F0
ENDCHAR
STARTCHAR 0322
ENCODING 802
SWIDTH 0 0
DWIDTH 0 0
BBX 7 7 -7 -7
BITMAP
E0
E0
E0
E0
70
7E
1E
ENDCHAR
STARTCHAR 0323
ENCODING 803
SWIDTH 0 0
DWIDTH 0 0
BBX 3 3 -12 -6
BITMAP
E0
E0
E0
ENDCHAR
STARTCHAR 0324
ENCODING 804
SWIDTH 0 0
DWIDTH 0 0
BBX 10 3 -15 -6
BITMAP
E1C0
E1C0
E1C0
ENDCHAR
STARTCHAR 0325
ENCODING 805
SWIDTH 0 0
DWIDTH 0 0
BBX 7 7 -14 -10
BITMAP
38
44
82
82
82
44
38
ENDCHAR
STARTCHAR 0326
ENCODING 806
SWIDTH 600 0
DWIDTH 20 0
BBX 3 7 8 -10
BITMAP
E0
E0
E0
60
60
40
80
ENDCHAR
STARTCHAR 0327
ENCODING 807
SWIDTH 0 0
DWIDTH 0 0
BBX 5 7 -12 -7
BITMAP
60
40
F0
38
18
18
F0
ENDCHAR
STARTCHAR 0328
ENCODING 808
SWIDTH 0 0
DWIDTH 0 0
BBX 6 6 -12 -6
BITMAP
60
40
C0
C0
FC
78
ENDCHAR
STARTCHAR 0329
ENCODING 809
SWIDTH 0 0
DWIDTH 0 0
BBX 2 6 -11 -9
BITMAP
C0
C0
C0
C0
C0
C0
ENDCHAR
STARTCHAR 032A
ENCODING 810
SWIDTH 0 0
DWIDTH 0 0
BBX 9 5 -15 -8
BITMAP
FF80
FF80
C180
C180
C180
ENDCHAR
STARTCHAR 032B
ENCODING 811
SWIDTH 0 0
DWIDTH 0 0
BBX 14 5 -17 -8
BITMAP
C30C
C30C
6798
7CF8
3870
ENDCHAR
STARTCHAR 032C
ENCODING 812
SWIDTH 0 0
DWIDTH 0 0
BBX 11 5 -15 -8
BITMAP
C060
71C0
3B80
1F00
1F00
ENDCHAR
STARTCHAR 032D
ENCODING 813
SWIDTH 0 0
DWIDTH 0 0
BBX 11 5 -15 -8
BITMAP
1F00
1F00
3B80
71C0
C060
ENDCHAR
STARTCHAR 032E
ENCODING 814
SWIDTH 0 0
DWIDTH 0 0
BBX 11 5 -16 -8
BITMAP
C060
E0E0
61C0
3F80
1F00
ENDCHAR
STARTCHAR 032F
ENCODING 815
SWIDTH 0 0
DWIDTH 0 0
BBX 11 5 -16 -8
BITMAP
1F00
3F80
71C0
E0E0
C060
ENDCHAR
STARTCHAR 0330
ENCODING 816
SWIDTH 0 0
DWIDTH 0 0
BBX 11 4 -16 -7
BITMAP
7860
7E60
C7C0
C3C0
ENDCHAR
STARTCHAR 0331
ENCODING 817
SWIDTH 0 0
DWIDTH 0 0
BBX 10 2 -15 -5
BITMAP
FFC0
FFC0
ENDCHAR
STARTCHAR 0332
ENCODING 818
SWIDTH 0 0
DWIDTH 0 0
BBX 20 2 -20 -9
BITMAP
FFFFF0
FFFFF0
ENDCHAR
STARTCHAR 0333
ENCODING 819
SWIDTH 0 0
DWIDTH 0 0
BBX 20 8 -20 -15
BITMAP
FFFFF0
FFFFF0
000000
000000
000000
000000
FFFFF0
FFFFF0
ENDCHAR
STARTCHAR 0334
ENCODING 820
SWIDTH 0 0
DWIDTH 0 0
BBX 17 6 -19 6
BITMAP
3C0000
7F0180
E3C180
C1E380
C07F00
001E00
ENDCHAR
STARTCHAR 0335
ENCODING 821
SWIDTH 0 0
DWIDTH 0 0
BBX 17 2 -19 8
BITMAP
FFFF80
FFFF80
ENDCHAR
STARTCHAR 0336
ENCODING 822
SWIDTH 0 0
DWIDTH 0 0
BBX 20 2 -20 8
BITMAP
FFFFF0
FFFFF0
ENDCHAR
STARTCHAR 0337
ENCODING 823
SWIDTH 0 0
DWIDTH 0 0
BBX 20 18 -20 0
BITMAP
000070
0000E0
0001C0
000380
000700
000E00
001C00
003800
007000
00E000
01C000
038000
070000
0E0000
1C0000
380000
700000
E00000
ENDCHAR
STARTCHAR 0338
ENCODING 824
SWIDTH 0 0
DWIDTH 0 0
BBX 17 30 -19 -3
BITMAP
000180
000380
000300
000600
000600
000C00
000C00
001800
001800
003000
003000
006000
006000
00C000
00C000
018000
018000
030000
030000
060000
060000
0C0000
0C0000
180000
180000
300000
300000
600000
E00000
C00000
ENDCHAR
STARTCHAR 0339
ENCODING 825
SWIDTH 0 0
DWIDTH 0 0
BBX 4 7 -12 -10
BITMAP
C0
E0
30
30
30
E0
C0
ENDCHAR
STARTCHAR 033A
ENCODING 826
SWIDTH 0 0
DWIDTH 0 0
BBX 9 5 -15 -8
BITMAP
C180
C180
C180
FF80
FF80
ENDCHAR
STARTCHAR 033B
ENCODING 827
SWIDTH 0 0
DWIDTH 0 0
BBX 9 7 -15 -10
BITMAP
FF80
FF80
C180
C180
C180
FF80
FF80
ENDCHAR
STARTCHAR 033C
ENCODING 828
SWIDTH 0 0
DWIDTH 0 0
BBX 14 5 -17 -8
BITMAP
3870
7CF8
6798
C30C
C30C
ENDCHAR
STARTCHAR 033D
ENCODING 829
SWIDTH 0 0
DWIDTH 0 0
BBX 8 6 -14 20
BITMAP
C3
6E
3C
3C
76
C3
ENDCHAR
STARTCHAR 033E
ENCODING 830
SWIDTH 0 0
DWIDTH 0 0
BBX 4 6 -12 21
BITMAP
60
C0
E0
70
30
60
ENDCHAR
STARTCHAR 033F
ENCODING 831
SWIDTH 0 0
DWIDTH 0 0
BBX 20 7 -20 26
BITMAP
FFFFF0
FFFFF0
000000
000000
000000
FFFFF0
FFFFF0
ENDCHAR
STARTCHAR 0340
ENCODING 832
SWIDTH 0 0
DWIDTH 0 0
BBX 7 5 -20 25
BITMAP
E0
70
38
1C
0E
ENDCHAR
STARTCHAR 0341
ENCODING 833
SWIDTH 0 0
DWIDTH 0 0
BBX 7 5 -7 25
BITMAP
0E
1C
38
70
E0
ENDCHAR
STARTCHAR 0342
ENCODING 834
SWIDTH 0 0
DWIDTH 0 0
BBX 11 4 -16 21
BITMAP
7860
7E60
CFC0
C3C0
ENDCHAR
STARTCHAR 0343
ENCODING 835
SWIDTH 0 0
DWIDTH 0 0
BBX 3 7 -12 21
BITMAP
E0
E0
E0
60
60
40
80
ENDCHAR
STARTCHAR 0344
ENCODING 836
SWIDTH 0 0
DWIDTH 0 0
BBX 13 5 -17 21
BITMAP
0700
0700
E738
E738
E738
ENDCHAR
STARTCHAR 0345
ENCODING 837
SWIDTH 0 0
DWIDTH 0 0
BBX 4 5 -10 -7
BITMAP
C0
C0
C0
F0
70
ENDCHAR
STARTCHAR 0374
ENCODING 884
SWIDTH 300 0
DWIDTH 10 0
BBX 7 10 2 16
BITMAP
0E
1C
1C
18
38
30
70
60
60
C0
ENDCHAR
STARTCHAR 0375
ENCODING 885
SWIDTH 300 0
DWIDTH 10 0
BBX 7 10 2 -6
BITMAP
0E
1C
1C
18
38
30
70
60
60
C0
ENDCHAR
STARTCHAR 037A
ENCODING 890
SWIDTH 600 0
DWIDTH 20 0
BBX 5 5 9 -7
BITMAP
C0
C0
C0
F8
78
ENDCHAR
STARTCHAR 037E
ENCODING 894
SWIDTH 300 0
DWIDTH 10 0
BBX 3 23 3 -5
BITMAP
E0
E0
E0
E0
00
00
00
00
00
00
00
00
00
00
E0
E0
E0
E0
60
60
60
C0
80
ENDCHAR
STARTCHAR 0384
ENCODING 900
SWIDTH 600 0
DWIDTH 20 0
BBX 3 5 8 21
BITMAP
E0
E0
E0
E0
E0
ENDCHAR
STARTCHAR 0385
ENCODING 901
SWIDTH 600 0
DWIDTH 20 0
BBX 11 5 4 21
BITMAP
0E00
0E00
C660
C460
C460
ENDCHAR
STARTCHAR 0386
ENCODING 902
SWIDTH 690 0
DWIDTH 23 0
BBX 22 24 0 0
BITMAP
E03000
E03000
E07800
E07800
E0DC00
00DC00
00DE00
018E00
018E00
030700
030700
060380
060380
0603C0
0C01C0
0FFFC0
1FFFE0
1800E0
3000F0
300070
300078
600038
600038
C0001C
ENDCHAR
STARTCHAR 0387
ENCODING 903
SWIDTH 300 0
DWIDTH 10 0
BBX 4 4 3 8
BITMAP
F0
F0
F0
F0
ENDCHAR
STARTCHAR 0388
ENCODING 904
SWIDTH 630 0
DWIDTH 21 0
BBX 20 24 0 0
BITMAP
E3FFE0
E3FFE0
E38000
E38000
E38000
038000
038000
038000
038000
038000
038000
03FFC0
03FFC0
038000
038000
038000
038000
038000
038000
038000
038000
038000
03FFF0
03FFF0
ENDCHAR
STARTCHAR 0389
ENCODING 905
SWIDTH 840 0
DWIDTH 28 0
BBX 24 24 0 0
BITMAP
E38007
E38007
E38007
E38007
E38007
038007
038007
038007
038007
038007
038007
03FFFF
03FFFF
038007
038007
038007
038007
038007
038007
038007
038007
038007
038007
038007
ENDCHAR
STARTCHAR 038A
ENCODING 906
SWIDTH 390 0
DWIDTH 13 0
BBX 9 24 1 0
BITMAP
E380
E380
E380
E380
E380
0380
0380
0380
0380
0380
0380
0380
0380
0380
0380
0380
0380
0380
0380
0380
0380
0380
0380
0380
ENDCHAR
STARTCHAR 038C
ENCODING 908
SWIDTH 840 0
DWIDTH 28 0
BBX 26 24 1 0
BITMAP
E01FE000
E07FF800
E0F03C00
E1C00E00
E3800700
07800780
07000380
07000380
0E0001C0
0E0001C0
0E0001C0
0E0001C0
0E0001C0
0E0001C0
0E0001C0
0E0001C0
07000380
07000380
07800780
03800700
01C00E00
00F03C00
007FF800
001FE000
ENDCHAR
STARTCHAR 038E
ENCODING 910
SWIDTH 810 0
DWIDTH 27 0
BBX 25 24 1 0
BITMAP
E7000180
E7C00780
E1E00F00
E0703C00
E0383800
00387000
001CE000
001CC000
000DC000
000D8000
000F8000
00078000
00070000
00070000
00070000
00070000
00070000
00070000
00070000
00070000
00070000
00070000
00070000
00070000
ENDCHAR
STARTCHAR 038F
ENCODING 911
SWIDTH 870 0
DWIDTH 29 0
BBX 27 24 1 0
BITMAP
E01FE000
E07FF800
E0F03C00
E1C00E00
E3800700
07000380
07000380
0E000180
0E0001C0
0E0001C0
0E0001C0
0E0001C0
0E0001C0
0E0001C0
0E0001C0
07000380
07000380
07000380
03800700
03800E00
01C00E00
00E01C00
1FF03FE0
1FF03FE0
ENDCHAR
STARTCHAR 0390
ENCODING 912
SWIDTH 360 0
DWIDTH 12 0
BBX 12 26 -1 0
BITMAP
0E00
0E00
C660
C460
C460
0000
0000
0000
0E00
0E00
0E00
0E00
0E00
0E00
0E00
0E00
0E00
0E00
0E00
0E00
0E00
0E00
0E00
0710
07F0
03E0
ENDCHAR
STARTCHAR 0391
ENCODING 913
SWIDTH 690 0
DWIDTH 23 0
BBX 22 24 0 0
BITMAP
003000
003000
007800
007800
00DC00
00DC00
00DE00
018E00
018E00
030700
030700
060380
060380
0603C0
0C01C0
0FFFC0
1FFFE0
1800E0
3000F0
300070
300078
600038
600038
C0001C
ENDCHAR
STARTCHAR 0392
ENCODING 914
SWIDTH 570 0
DWIDTH 19 0
BBX 14 24 3 0
BITMAP
FF80
FFE0
E0F0
E078
E038
E038
E038
E038
E070
E070
E1E0
FF80
FFC0
E1F0
E078
E038
E01C
E01C
E01C
E01C
E03C
E078
FFF0
FFC0
ENDCHAR
STARTCHAR 0393
ENCODING 915
SWIDTH 510 0
DWIDTH 17 0
BBX 14 24 3 0
BITMAP
FFFC
FFFC
E000
E000
E000
E000
E000
E000
E000
E000
E000
E000
E000
E000
E000
E000
E000
E000
E000
E000
E000
E000
E000
E000
ENDCHAR
STARTCHAR 0394
ENCODING 916
SWIDTH 690 0
DWIDTH 23 0
BBX 22 24 1 0
BITMAP
003000
003800
007800
007C00
00DC00
00DE00
018E00
018F00
030700
030780
060380
060380
0C01C0
0C01C0
1800E0
1800E0
300070
300070
600038
600038
C0003C
FFFFFC
FFFFFC
FFFFFC
ENDCHAR
STARTCHAR 0395
ENCODING 917
SWIDTH 540 0
DWIDTH 18 0
BBX 14 24 3 0
BITMAP
FFF8
FFF8
E000
E000
E000
E000
E000
E000
E000
E000
E000
FFF0
FFF0
E000
E000
E000
E000
E000
E000
E000
E000
E000
FFFC
FFFC
ENDCHAR
STARTCHAR 0396
ENCODING 918
SWIDTH 600 0
DWIDTH 20 0
BBX 16 24 2 0
BITMAP
7FFF
7FFF
000F
000E
001C
003C
0038
0078
00F0
00E0
01E0
01C0
0380
0780
0700
0F00
1E00
1C00
3C00
3800
7000
F000
FFFF
FFFF
ENDCHAR
STARTCHAR 0397
ENCODING 919
SWIDTH 720 0
DWIDTH 24 0
BBX 18 24 3 0
BITMAP
E001C0
E001C0
E001C0
E001C0
E001C0
E001C0
E001C0
E001C0
E001C0
E001C0
E001C0
FFFFC0
FFFFC0
E001C0
E001C0
E001C0
E001C0
E001C0
E001C0
E001C0
E001C0
E001C0
E001C0
E001C0
ENDCHAR
STARTCHAR 0398
ENCODING 920
SWIDTH 780 0
DWIDTH 26 0
BBX 22 24 2 0
BITMAP
01FE00
07FF80
0F03C0
1C00E0
380070
780078
700038
700038
E0001C
E0001C
E0001C
E3FF1C
E3FF1C
E0001C
E0001C
E0001C
700038
700038
780078
380070
1C00E0
0F03C0
07FF80
01FE00
ENDCHAR
STARTCHAR 0399
ENCODING 921
SWIDTH 300 0
DWIDTH 10 0
BBX 3 24 3 0
BITMAP
E0
E0
E0
E0
E0
E0
E0
E0
E0
E0
E0
E0
E0
E0
E0
E0
E0
E0
E0
E0
E0
E0
E0
E0
ENDCHAR
STARTCHAR 039A
ENCODING 922
SWIDTH 660 0
DWIDTH 22 0
BBX 18 24 3 0
BITMAP
E00300
E00600
E00C00
E01800
E03000
E06000
E0C000
E18000
E30000
E60000
EC0000
FC0000
EE0000
E70000
E38000
E3C000
E1E000
E0F000
E07800
E03C00
E01E00
E00F00
E00780
E003C0
ENDCHAR
STARTCHAR 039B
ENCODING 923
SWIDTH 630 0
DWIDTH 21 0
BBX 21 24 0 0
BITMAP
003000
007800
007800
007C00
00DC00
00DC00
019E00
018E00
018E00
030700
030700
060700
060380
0E0380
0C03C0
0C01C0
1801C0
1801E0
3000E0
3000E0
700070
600070
600070
C00038
ENDCHAR
STARTCHAR 039C
ENCODING 924
SWIDTH 840 0
DWIDTH 28 0
BBX 21 24 3 0
BITMAP
F00038
F00078
F00078
F800F8
F800F8
FC00F8
DC01B8
DC01B8
CE0338
CE0338
CE0338
C70638
C70638
C38C38
C38C38
C38C38
C1D838
C1D838
C0F038
C0F038
C0F038
C06038
C00038
C00038
ENDCHAR
STARTCHAR 039D
ENCODING 925
SWIDTH 720 0
DWIDTH 24 0
BBX 18 24 3 0
BITMAP
E000C0
E000C0
F000C0
F800C0
FC00C0
DC00C0
CE00C0
CF00C0
C700C0
C380C0
C3C0C0
C1C0C0
C0E0C0
C0F0C0
C070C0
C038C0
C03CC0
C01CC0
C00EC0
C00FC0
C007C0
C003C0
C001C0
C001C0
ENDCHAR
STARTCHAR 039E
ENCODING 926
SWIDTH 600 0
DWIDTH 20 0
BBX 18 24 1 0
BITMAP
7FFF80
7FFF80
7FFF80
000000
000000
000000
000000
000000
000000
000000
3FFF00
3FFF00
3FFF00
000000
000000
000000
000000
000000
000000
000000
000000
FFFFC0
FFFFC0
FFFFC0
ENDCHAR
STARTCHAR 039F
ENCODING 927
SWIDTH 780 0
DWIDTH 26 0
BBX 22 24 2 0
BITMAP
01FE00
07FF80
0F03C0
1C00E0
380070
780078
700038
700038
E0001C
E0001C
E0001C
E0001C
E0001C
E0001C
E0001C
E0001C
700038
700038
780078
380070
1C00E0
0F03C0
07FF80
01FE00
ENDCHAR
STARTCHAR 03A0
ENCODING 928
SWIDTH 720 0
DWIDTH 24 0
BBX 18 24 3 0
BITMAP
FFFFC0
FFFFC0
E001C0
E001C0
E001C0
E001C0
E001C0
E001C0
E001C0
E001C0
E001C0
E001C0
E001C0
E001C0
E001C0
E001C0
E001C0
E001C0
E001C0
E001C0
E001C0
E001C0
E001C0
E001C0
ENDCHAR
STARTCHAR 03A1
ENCODING 929
SWIDTH 540 0
DWIDTH 18 0
BBX 14 24 3 0
BITMAP
FFC0
FFF0
E078
E03C
E01C
E01C
E01C
E01C
E01C
E038
E078
E1F0
FFE0
FF00
E000
E000
E000
E000
E000
E000
E000
E000
E000
E000
ENDCHAR
STARTCHAR 03A3
ENCODING 931
SWIDTH 600 0
DWIDTH 20 0
BBX 18 24 1 0
BITMAP
FFFF80
FFFF80
F00000
780000
3C0000
1E0000
0F0000
078000
03C000
01E000
00F000
007800
003000
006000
00C000
018000
030000
060000
0C0000
180000
300000
600000
FFFFC0
FFFFC0
ENDCHAR
STARTCHAR 03A4
ENCODING 932
SWIDTH 630 0
DWIDTH 21 0
BBX 19 24 1 0
BITMAP
FFFFE0
FFFFE0
00E000
00E000
00E000
00E000
00E000
00E000
00E000
00E000
00E000
00E000
00E000
00E000
00E000
00E000
00E000
00E000
00E000
00E000
00E000
00E000
00E000
00E000
ENDCHAR
STARTCHAR 03A5
ENCODING 933
SWIDTH 630 0
DWIDTH 21 0
BBX 20 24 1 0
BITMAP
E00030
F800F0
3C01E0
0E0780
070700
070E00
039C00
039800
01B800
01B000
01F000
00F000
00E000
00E000
00E000
00E000
00E000
00E000
00E000
00E000
00E000
00E000
00E000
00E000
ENDCHAR
STARTCHAR 03A6
ENCODING 934
SWIDTH 690 0
DWIDTH 23 0
BBX 20 24 1 0
BITMAP
006000
006000
006000
006000
03FC00
1FFF80
3C63C0
7861E0
7060E0
E06070
E06070
E06070
E06070
E06070
E06070
7060E0
7861E0
3C63C0
1FFF80
03FC00
006000
006000
006000
006000
ENDCHAR
STARTCHAR 03A7
ENCODING 935
SWIDTH 630 0
DWIDTH 21 0
BBX 19 24 1 0
BITMAP
F00060
7000C0
780180
3C0180
1C0300
1E0600
0F0E00
070C00
079800
03F800
01F000
01E000
00F000
01F000
03F800
033C00
061C00
0C1E00
0C0F00
180700
300780
3003C0
6001C0
C001E0
ENDCHAR
STARTCHAR 03A8
ENCODING 936
SWIDTH 720 0
DWIDTH 24 0
BBX 23 24 0 0
BITMAP
E0380E
F0381E
303818
183830
183830
183830
183830
183870
0C3860
0C3860
0E38E0
0739C0
03FF80
01FF00
003800
003800
003800
003800
003800
003800
003800
003800
003800
003800
ENDCHAR
STARTCHAR 03A9
ENCODING 937
SWIDTH 780 0
DWIDTH 26 0
BBX 24 24 1 0
BITMAP
00FF00
03FFC0
0781E0
0E0070
1C0038
38001C
38001C
70000C
70000E
70000E
70000E
70000E
70000E
70000E
70000E
38001C
38001C
38001C
1C0038
1C0070
0E0070
0700E0
FF81FF
FF81FF
ENDCHAR
STARTCHAR 03AA
ENCODING 938
SWIDTH 300 0
DWIDTH 10 0
BBX 10 29 0 0
BITMAP
E1C0
E1C0
E1C0
0000
0000
1C00
1C00
1C00
1C00
1C00
1C00
1C00
1C00
1C00
1C00
1C00
1C00
1C00
1C00
1C00
1C00
1C00
1C00
1C00
1C00
1C00
1C00
1C00
1C00
ENDCHAR
STARTCHAR 03AB
ENCODING 939
SWIDTH 630 0
DWIDTH 21 0
BBX 20 29 1 0
BITMAP
038700
038700
038700
000000
000000
E00030
F800F0
3C01E0
0E0780
070700
070E00
039C00
039800
01B800
01B000
01F000
00F000
00E000
00E000
00E000
00E000
00E000
00E000
00E000
00E000
00E000
00E000
00E000
00E000
ENDCHAR
STARTCHAR 03AC
ENCODING 940
SWIDTH 690 0
DWIDTH 23 0
BBX 20 26 2 0
BITMAP
01C000
01C000
01C000
01C000
01C000
000000
000000
000000
07E0E0
1FF0E0
3C78C0
3838C0
703DC0
701D80
E00F80
E00F80
E00700
E00700
E00780
E00F80
E00FC0
701DC0
7039C0
3870E0
1FE0E0
0FC0F0
ENDCHAR
STARTCHAR 03AD
ENCODING 941
SWIDTH 510 0
DWIDTH 17 0
BBX 13 26 2 0
BITMAP
01C0
01C0
01C0
01C0
01C0
0000
0000
0000
07F0
1FF8
3C18
7800
7000
E000
E000
E000
FFF0
FFF0
E000
E000
E000
7000
7800
3C08
1FF8
07F0
ENDCHAR
STARTCHAR 03AE
ENCODING 942
SWIDTH 630 0
DWIDTH 21 0
BBX 16 32 2 -6
BITMAP
01C0
01C0
01C0
01C0
01C0
0000
0000
0000
E1F8
F7FE
7F0E
7C0F
7807
7007
7007
7007
7007
7007
7007
7007
7007
7007
7007
7007
7007
7007
0007
0007
0007
0007
0007
0007
ENDCHAR
STARTCHAR 03AF
ENCODING 943
SWIDTH 360 0
DWIDTH 12 0
BBX 8 26 3 0
BITMAP
E0
E0
E0
E0
E0
00
00
00
E0
E0
E0
E0
E0
E0
E0
E0
E0
E0
E0
E0
E0
E0
E0
71
7F
3E
ENDCHAR
STARTCHAR 03B0
ENCODING 944
SWIDTH 600 0
DWIDTH 20 0
BBX 15 26 3 0
BITMAP
0380
0380
3198
3118
3118
0000
0000
0000
E038
E01C
E01C
E01C
E01E
E00E
E00E
E00E
E00E
E00E
E00E
E00E
E00E
E01C
701C
7878
3FF0
0FC0
ENDCHAR
STARTCHAR 03B1
ENCODING 945
SWIDTH 690 0
DWIDTH 23 0
BBX 20 18 2 0
BITMAP
07E0E0
1FF0E0
3C78C0
3838C0
703DC0
701D80
E00F80
E00F80
E00700
E00700
E00780
E00F80
E00FC0
701DC0
7039C0
3870E0
1FE0E0
0FC0F0
ENDCHAR
STARTCHAR 03B2
ENCODING 946
SWIDTH 600 0
DWIDTH 20 0
BBX 15 32 3 -6
BITMAP
0FC0
1FE0
3870
7038
7038
E038
E038
E038
E070
E0E0
E1C0
EF80
EFE0
E0F0
E038
E01C
E01E
E00E
E00E
E00E
E00E
E01E
E01C
F078
FFF0
FFC0
E000
E000
E000
E000
E000
E000
ENDCHAR
STARTCHAR 03B3
ENCODING 947
SWIDTH 540 0
DWIDTH 18 0
BBX 19 24 0 -6
BITMAP
F000E0
7000C0
380180
380300
1C0300
1E0600
0E0E00
070C00
071800
031800
03B000
01B000
01E000
01E000
00C000
00C000
00C000
00E000
01E000
01E000
01E000
01E000
01E000
00C000
ENDCHAR
STARTCHAR 03B4
ENCODING 948
SWIDTH 570 0
DWIDTH 19 0
BBX 15 26 2 0
BITMAP
0FE0
3FF0
7810
7000
7800
7C00
3F00
0F80
07E0
03F0
0FF8
3E38
381C
701C
F00E
E00E
E00E
E00E
E00E
E00E
E00E
701C
701C
3C78
1FF0
07C0
ENDCHAR
STARTCHAR 03B5
ENCODING 949
SWIDTH 510 0
DWIDTH 17 0
BBX 13 18 2 0
BITMAP
07F0
1FF8
3C18
7800
7000
E000
E000
E000
FFF0
FFF0
E000
E000
E000
7000
7800
3C08
1FF8
07F0
ENDCHAR
STARTCHAR 03B6
ENCODING 950
SWIDTH 630 0
DWIDTH 21 0
BBX 20 32 1 -6
BITMAP
0001C0
0007E0
801FC0
F03F80
7FFE00
1FF000
01C000
038000
070000
0E0000
0E0000
1C0000
1C0000
1C0000
380000
380000
380000
380000
380000
380000
3C0000
1C0000
1F0000
0FFFC0
07FFE0
00FFF0
000030
000030
000030
000060
003FC0
003F00
ENDCHAR
STARTCHAR 03B7
ENCODING 951
SWIDTH 630 0
DWIDTH 21 0
BBX 16 24 2 -6
BITMAP
E1F8
F7FE
7F0E
7C0F
7807
7007
7007
7007
7007
7007
7007
7007
7007
7007
7007
7007
7007
7007
0007
0007
0007
0007
0007
0007
ENDCHAR
STARTCHAR 03B8
ENCODING 952
SWIDTH 600 0
DWIDTH 20 0
BBX 16 26 2 0
BITMAP
07E0
0FF0
1C38
381C
781E
700E
700E
E006
E007
E007
E007
E007
FFFF
FFFF
E007
E007
E007
E007
E007
700E
700E
701E
381C
1C38
1FF0
07E0
ENDCHAR
STARTCHAR 03B9
ENCODING 953
SWIDTH 360 0
DWIDTH 12 0
BBX 8 18 3 0
BITMAP
E0
E0
E0
E0
E0
E0
E0
E0
E0
E0
E0
E0
E0
E0
E0
71
7F
3E
ENDCHAR
STARTCHAR 03BA
ENCODING 954
SWIDTH 540 0
DWIDTH 18 0
BBX 14 18 3 0
BITMAP
E018
E038
E060
E0C0
E180
E300
E600
EC00
FC00
FE00
EF00
E780
E380
E1C0
E0E0
E0F0
E078
E03C
ENDCHAR
STARTCHAR 03BB
ENCODING 955
SWIDTH 570 0
DWIDTH 19 0
BBX 18 26 1 0
BITMAP
780000
7C0000
0E0000
0F0000
070000
078000
038000
038000
01C000
01C000
01E000
01E000
03F000
037000
067000
063800
0E3800
0C1C00
0C1C00
181E00
180E00
300F00
300700
600780
600780
C003C0
ENDCHAR
STARTCHAR 03BC
ENCODING 956
SWIDTH 630 0
DWIDTH 21 0
BBX 16 24 3 -6
BITMAP
E00E
E00E
E00E
E00E
E00E
E00E
E00E
E00E
E00E
E00E
E00E
E00E
E00E
E01E
E03E
F07E
FFEE
EF87
E000
E000
E000
E000
E000
E000
ENDCHAR
STARTCHAR 03BD
ENCODING 957
SWIDTH 540 0
DWIDTH 18 0
BBX 17 18 0 0
BITMAP
E00380
700380
700380
380380
380380
1C0300
1C0700
0E0700
0E0600
0F0600
070C00
070C00
039800
03B800
03B000
01F000
01E000
01C000
ENDCHAR
STARTCHAR 03BE
ENCODING 958
SWIDTH 570 0
DWIDTH 19 0
BBX 20 32 -1 -6
BITMAP
801FC0
F0FFC0
7FFF80
1FFC00
070000
0E0000
0E0000
0E0000
0E0000
070000
078000
03E000
01FFC0
01FFC0
07E000
070000
0E0000
1C0000
1C0000
1C0000
1C0000
1E0000
0F0000
0FFFC0
03FFE0
00FFF0
000030
000030
000030
000060
003FC0
003F00
ENDCHAR
STARTCHAR 03BF
ENCODING 959
SWIDTH 600 0
DWIDTH 20 0
BBX 16 18 2 0
BITMAP
07E0
1FF8
3C3C
700E
700E
E007
E007
E007
E007
E007
E007
E007
E007
700E
700E
3C3C
1FF8
07E0
ENDCHAR
STARTCHAR 03C0
ENCODING 960
SWIDTH 780 0
DWIDTH 26 0
BBX 24 18 1 0
BITMAP
FFFFFF
FFFFFF
870070
070070
070070
070070
070070
070070
070070
070070
070070
070070
070070
070070
070070
070070
070070
070038
ENDCHAR
STARTCHAR 03C1
ENCODING 961
SWIDTH 600 0
DWIDTH 20 0
BBX 15 24 3 -6
BITMAP
07E0
1FF8
3C7C
701C
701E
700E
E00E
E00E
E00E
E00E
E00E
E00C
E01C
E01C
E038
F070
FFE0
FF80
E000
E000
E000
E000
E000
E000
ENDCHAR
STARTCHAR 03C2
ENCODING 962
SWIDTH 570 0
DWIDTH 19 0
BBX 17 24 2 -6
BITMAP
00FE00
07FE00
0F0000
1C0000
380000
700000
700000
E00000
E00000
E00000
E00000
E00000
E00000
700000
780000
3FFE00
1FFF00
07FF80
000180
000180
000180
000300
01FF00
01F800
ENDCHAR
STARTCHAR 03C3
ENCODING 963
SWIDTH 660 0
DWIDTH 22 0
BBX 20 18 2 0
BITMAP
07FFF0
1FFFF0
3C3E00
700E00
700E00
E00700
E00700
E00700
E00700
E00700
E00700
E00700
E00600
700E00
701E00
3C3C00
1FF800
07E000
ENDCHAR
STARTCHAR 03C4
ENCODING 964
SWIDTH 540 0
DWIDTH 18 0
BBX 17 18 0 0
BITMAP
7FFF80
FFFF80
81C000
01C000
01C000
01C000
01C000
01C000
01C000
01C000
01C000
01C000
01C000
01C000
01C000
01C000
00C000
00E000
ENDCHAR
STARTCHAR 03C5
ENCODING 965
SWIDTH 600 0
DWIDTH 20 0
BBX 15 18 3 0
BITMAP
E038
E01C
E01C
E01C
E01E
E00E
E00E
E00E
E00E
E00E
E00E
E00E
E00E
E01C
701C
7878
3FF0
0FC0
ENDCHAR
STARTCHAR 03C6
ENCODING 966
SWIDTH 810 0
DWIDTH 27 0
BBX 23 24 2 -6
BITMAP
0E03E0
3E0FF0
781E38
701C1C
E0381C
E0380E
E0380E
E0380E
E0380E
E0380E
E0380E
F0381C
70381C
783838
3C3878
1E39F0
0FFFC0
01FF00
003800
003800
003800
003800
003800
003800
ENDCHAR
STARTCHAR 03C7
ENCODING 967
SWIDTH 540 0
DWIDTH 18 0
BBX 18 24 0 -6
BITMAP
F00180
700300
380600
3C0600
1C0C00
0E1C00
0E1800
073000
07B000
03E000
03C000
01C000
01E000
01F000
037000
067800
063800
0C1C00
1C1C00
180E00
300F00
300700
600380
C003C0
ENDCHAR
STARTCHAR 03C8
ENCODING 968
SWIDTH 780 0
DWIDTH 26 0
BBX 22 27 1 -6
BITMAP
003800
003800
003800
E03838
703838
70381C
70381C
70381C
70381C
70381C
70381C
70381C
70381C
70381C
70383C
383838
383838
1C3870
1F39E0
07FFC0
01FF00
003800
003800
003800
003800
003800
003800
ENDCHAR
STARTCHAR 03C9
ENCODING 969
SWIDTH 900 0
DWIDTH 30 0
BBX 26 18 2 0
BITMAP
1C000E00
38000700
380C0700
701E0380
701E0380
701E0380
E01E01C0
E01E01C0
E01E01C0
E00C01C0
E00C01C0
E00C01C0
E01E03C0
701E0380
703B0780
3C718F00
1FE1FE00
07C07C00
ENDCHAR
STARTCHAR 03CA
ENCODING 970
SWIDTH 360 0
DWIDTH 12 0
BBX 11 24 0 0
BITMAP
E1C0
E1C0
E1C0
0000
0000
0000
1C00
1C00
1C00
1C00
1C00
1C00
1C00
1C00
1C00
1C00
1C00
1C00
1C00
1C00
1C00
0E20
0FE0
07C0
ENDCHAR
STARTCHAR 03CB
ENCODING 971
SWIDTH 600 0
DWIDTH 20 0
BBX 15 24 3 0
BITMAP
3870
3870
3870
0000
0000
0000
E038
E01C
E01C
E01C
E01E
E00E
E00E
E00E
E00E
E00E
E00E
E00E
E00E
E01C
701C
7878
3FF0
0FC0
ENDCHAR
STARTCHAR 03CC
ENCODING 972
SWIDTH 600 0
DWIDTH 20 0
BBX 16 26 2 0
BITMAP
01C0
01C0
01C0
01C0
01C0
0000
0000
0000
07E0
1FF8
3C3C
700E
700E
E007
E007
E007
E007
E007
E007
E007
E007
700E
700E
3C3C
1FF8
07E0
ENDCHAR
STARTCHAR 03CD
ENCODING 973
SWIDTH 600 0
DWIDTH 20 0
BBX 15 26 3 0
BITMAP
0380
0380
0380
0380
0380
0000
0000
0000
E038
E01C
E01C
E01C
E01E
E00E
E00E
E00E
E00E
E00E
E00E
E00E
E00E
E01C
701C
7878
3FF0
0FC0
ENDCHAR
STARTCHAR 03CE
ENCODING 974
SWIDTH 900 0
DWIDTH 30 0
BBX 26 26 2 0
BITMAP
000E0000
000E0000
000E0000
000E0000
000E0000
00000000
00000000
00000000
1C000E00
38000700
380C0700
701E0380
701E0380
701E0380
E01E01C0
E01E01C0
E01E01C0
E00C01C0
E00C01C0
E00C01C0
E01E03C0
701E0380
703B0780
3C718F00
1FE1FE00
07C07C00
ENDCHAR
STARTCHAR 03D0
ENCODING 976
SWIDTH 510 0
DWIDTH 17 0
BBX 14 26 2 0
BITMAP
01E0
07F8
0E38
1C1C
381C
381C
701C
7038
7878
FFF0
E7C0
E000
E000
E000
E3E0
EFF0
FC78
F03C
F01C
701C
701C
781C
3838
3C78
1FF0
07C0
ENDCHAR
STARTCHAR 03D1
ENCODING 977
SWIDTH 630 0
DWIDTH 21 0
BBX 18 26 2 0
BITMAP
07C000
1FE000
387000
703800
601800
C01C00
C01C00
C00C00
C00E00
C00E00
700E00
3FFFC0
0FFFC0
000E00
000E00
000E00
000E00
000E00
000C00
E01C00
701C00
703800
703800
387000
1FE000
0F8000
ENDCHAR
STARTCHAR 03D2
ENCODING 978
SWIDTH 630 0
DWIDTH 21 0
BBX 20 24 1 0
BITMAP
F000F0
7803F0
3C0700
1E0E00
0E1C00
0F1C00
073800
03B800
03B000
01F000
01F000
01E000
00E000
00E000
00E000
00E000
00E000
00E000
00E000
00E000
00E000
00E000
00E000
00E000
ENDCHAR
STARTCHAR 03D3
ENCODING 979
SWIDTH 750 0
DWIDTH 25 0
BBX 25 24 0 0
BITMAP
E7800780
E3C01F80
E1E03800
E0F07000
E070E000
0078E000
0039C000
001DC000
001D8000
000F8000
000F8000
000F0000
00070000
00070000
00070000
00070000
00070000
00070000
00070000
00070000
00070000
00070000
00070000
00070000
ENDCHAR
STARTCHAR 03D4
ENCODING 980
SWIDTH 630 0
DWIDTH 21 0
BBX 20 29 1 0
BITMAP
070E00
070E00
070E00
000000
000000
F000F0
7803F0
3C0700
1E0E00
0E1C00
0F1C00
073800
03B800
03B000
01F000
01F000
01E000
00E000
00E000
00E000
00E000
00E000
00E000
00E000
00E000
00E000
00E000
00E000
00E000
ENDCHAR
STARTCHAR 03D5
ENCODING 981
SWIDTH 750 0
DWIDTH 25 0
BBX 21 32 2 -6
BITMAP
007000
007000
007000
007000
007000
007000
007000
007000
03FE00
0FFF80
3E73E0
7870E0
707070
707070
E07038
E07038
E07038
E07038
E07038
E07038
707070
707070
3870E0
3E73E0
0FFF80
03FE00
007000
007000
007000
007000
007000
007000
ENDCHAR
STARTCHAR 03D6
ENCODING 982
SWIDTH 870 0
DWIDTH 29 0
BBX 28 18 0 0
BITMAP
7FFFFFF0
FFFFFFF0
87000380
0E0001C0
0E0001C0
1E0301C0
1C0780E0
1C0780E0
1C0780E0
1C0780E0
1C0780E0
1C0300E0
1C0300E0
0E0701C0
0E0781C0
070FC380
03FCFF00
01F03E00
ENDCHAR
STARTCHAR 03DA
ENCODING 986
SWIDTH 660 0
DWIDTH 22 0
BBX 18 30 2 -6
BITMAP
007F00
01FF80
07C080
0F0000
1E0000
1C0000
380000
700000
700000
700000
E00000
E00000
E00000
E00000
E00000
E00000
E00000
F00000
F00000
780000
7C0000
3FFE00
1FFF80
07FFC0
0001C0
0000C0
0000C0
000380
01FF00
01FC00
ENDCHAR
STARTCHAR 03DC
ENCODING 988
SWIDTH 540 0
DWIDTH 18 0
BBX 13 24 3 0
BITMAP
FFF8
FFF8
E000
E000
E000
E000
E000
E000
E000
E000
E000
FFE0
FFE0
E000
E000
E000
E000
E000
E000
E000
E000
E000
E000
E000
ENDCHAR
STARTCHAR 03DE
ENCODING 990
SWIDTH 540 0
DWIDTH 18 0
BBX 14 24 1 0
BITMAP
0C00
0C00
0C00
1800
1800
1800
3000
3000
3000
6000
7FFC
7FFC
FFFC
0018
0018
0018
0030
0030
0030
0060
0060
0060
00C0
00C0
ENDCHAR
STARTCHAR 03E0
ENCODING 992
SWIDTH 630 0
DWIDTH 21 0
BBX 19 24 0 0
BITMAP
F00000
FF0000
0FC000
00E000
003000
003C00
00EC00
01C600
070300
0E0380
380180
7003C0
000FC0
001C40
007860
00E060
038060
070060
000060
000060
000060
0000E0
0000C0
000040
ENDCHAR
STARTCHAR 03E2
ENCODING 994
SWIDTH 870 0
DWIDTH 29 0
BBX 26 30 2 -6
BITMAP
38000700
70000380
70000380
700C0380
701E0380
E01E0180
E01E01C0
E01E01C0
E01E01C0
E01E01C0
E01E01C0
E01E01C0
E00C01C0
E00C01C0
E00C01C0
E00C01C0
E01E01C0
701E03C0
701E03C0
783B07C0
7C7B8FC0
3FF1FF80
1FE1FD80
0FC07980
00000380
00000300
00000700
00001E00
0007FC00
0007E000
ENDCHAR
STARTCHAR 03E3
ENCODING 995
SWIDTH 900 0
DWIDTH 30 0
BBX 26 24 2 -6
BITMAP
1C000E00
38000700
380C0700
701E0380
701E0380
701E03C0
E01E01C0
E01E01C0
E01E01C0
E00C01C0
E00C01C0
E00C01C0
E01E03C0
701E03C0
703B07C0
3C738FC0
1FE1FF80
07C07D80
00000380
00000300
00000700
00001E00
0007FC00
0007E000
ENDCHAR
STARTCHAR 03E4
ENCODING 996
SWIDTH 630 0
DWIDTH 21 0
BBX 16 24 2 0
BITMAP
7007
7007
7007
E007
E007
E007
E007
E007
E007
E007
E007
F00F
783F
7FFF
3FF7
0FC7
0007
0007
0007
0007
0007
0007
0007
0007
ENDCHAR
STARTCHAR 03E5
ENCODING 997
SWIDTH 600 0
DWIDTH 20 0
BBX 15 24 2 -6
BITMAP
380E
380E
700E
700E
700E
F00E
E00E
E00E
E00E
E00E
E00E
E00E
E00E
E01E
703E
786E
3FCE
0F8E
000E
000E
000E
000E
000E
000E
ENDCHAR
STARTCHAR 03E6
ENCODING 998
SWIDTH 660 0
DWIDTH 22 0
BBX 17 30 3 -6
BITMAP
E00000
E00000
E00000
E00000
E00000
E1F000
E7FC00
EFFE00
FE1F00
F80700
F00700
E00780
E00380
E00380
E00380
E00380
E00380
E00380
E00380
E00380
E00380
E00300
E00700
E00700
000F00
000E00
001C00
107800
1FF000
0FC000
ENDCHAR
STARTCHAR 03E7
ENCODING 999
SWIDTH 600 0
DWIDTH 20 0
BBX 15 24 3 -6
BITMAP
E000
E000
E000
E1E0
E7F8
EFF8
FC3C
F81C
F00E
E00E
E00E
E00E
E00E
E00E
E00E
E00E
E01C
E01C
001C
0038
0078
10F0
1FE0
0F80
ENDCHAR
STARTCHAR 03E8
ENCODING 1000
SWIDTH 570 0
DWIDTH 19 0
BBX 15 24 2 0
BITMAP
0FE0
3FF8
303C
001E
000E
000E
000E
000E
001C
003C
0078
00F0
03C0
0F80
3E00
FC00
E000
F800
7C00
3E00
1F80
07FE
03FE
007E
ENDCHAR
STARTCHAR 03E9
ENCODING 1001
SWIDTH 480 0
DWIDTH 16 0
BBX 13 24 1 -6
BITMAP
1FC0
3FE0
20F0
0078
0038
0038
0038
0038
0070
00F0
00E0
03C0
0780
0F00
3C00
F800
E000
F000
7000
3C00
1E00
0FF8
07F8
01F8
ENDCHAR
STARTCHAR 03EA
ENCODING 1002
SWIDTH 630 0
DWIDTH 21 0
BBX 19 24 1 0
BITMAP
F800C0
FE0180
1E0300
070600
078E00
038C00
03D800
01F000
00F000
00F000
00F000
01B800
03BC00
031C00
061E00
0C0F00
180700
180780
300380
6001C0
C001E0
FFFFE0
FFFFE0
FFFFE0
ENDCHAR
STARTCHAR 03EB
ENCODING 1003
SWIDTH 600 0
DWIDTH 20 0
BBX 18 18 1 0
BITMAP
780380
7C0300
0E0600
070C00
079800
03F000
01E000
00E000
01F000
037800
063C00
0C1C00
180E00
300F00
600780
E003C0
FFFFC0
FFFFC0
ENDCHAR
STARTCHAR 03EC
ENCODING 1004
SWIDTH 690 0
DWIDTH 23 0
BBX 19 24 2 0
BITMAP
00FF00
07FFC0
0F01C0
1C0040
380000
300000
71F800
67FE00
6E0780
F80380
F001C0
F001C0
E000E0
E000E0
E000E0
E000E0
E000E0
E000E0
7001C0
7001C0
380380
1E0F80
0FFE00
03F800
ENDCHAR
STARTCHAR 03ED
ENCODING 1005
SWIDTH 600 0
DWIDTH 20 0
BBX 16 26 2 0
BITMAP
01FC
07FE
0F02
1C00
3800
3800
7000
7000
6000
63E0
EFF8
FC3C
F00E
F00E
E007
E007
E007
E007
E007
E007
6007
700E
381E
3C3C
1FF8
07E0
ENDCHAR
STARTCHAR 03EE
ENCODING 1006
SWIDTH 630 0
DWIDTH 21 0
BBX 19 24 1 0
BITMAP
00E000
00E000
00E000
00E000
00E000
FFFFE0
FFFFE0
00E000
00E000
00E000
00E000
00E000
00E000
00E000
00E000
00E000
00E000
00E000
00E000
00E000
00E000
00E000
00E000
00E000
ENDCHAR
STARTCHAR 03EF
ENCODING 1007
SWIDTH 540 0
DWIDTH 18 0
BBX 15 32 1 -6
BITMAP
0380
0380
0380
0380
0380
0380
0380
0380
FFFE
FFFE
0380
0380
0380
0380
0380
0380
0380
0380
0380
0380
0380
0380
0380
0380
0380
0380
0380
0380
0380
0380
0380
0380
ENDCHAR
STARTCHAR 03F0
ENCODING 1008
SWIDTH 540 0
DWIDTH 18 0
BBX 16 18 1 0
BITMAP
F002
F80F
180F
1C1E
0C1C
0C3C
0C38
0C70
0DF0
0FB0
0E30
1C30
3C30
3830
7838
F018
E01F
400F
ENDCHAR
STARTCHAR 03F1
ENCODING 1009
SWIDTH 600 0
DWIDTH 20 0
BBX 15 24 3 -6
BITMAP
07E0
1FF8
3C3C
781C
701E
700E
E00E
E00E
E00E
E00E
E00E
E01C
E01C
E038
F070
FFE0
FF80
6000
6000
7000
3800
1C00
0FFE
03FE
ENDCHAR
STARTCHAR 03F2
ENCODING 1010
SWIDTH 510 0
DWIDTH 17 0
BBX 13 18 2 0
BITMAP
07F0
1FF8
3C18
7800
7000
F000
E000
E000
E000
E000
E000
E000
7000
7000
3800
3C08
1FF8
07E0
ENDCHAR
STARTCHAR 03F3
ENCODING 1011
SWIDTH 300 0
DWIDTH 10 0
BBX 9 30 -2 -6
BITMAP
0380
0380
0380
0000
0000
0000
0380
0380
0380
0380
0380
0380
0380
0380
0380
0380
0380
0380
0380
0380
0380
0380
0380
0380
0380
0380
0300
8700
FE00
7C00
ENDCHAR
STARTCHAR 0401
ENCODING 1025
SWIDTH 540 0
DWIDTH 18 0
BBX 14 29 3 0
BITMAP
3870
3870
3870
0000
0000
FFF8
FFF8
E000
E000
E000
E000
E000
E000
E000
E000
E000
FFF0
FFF0
E000
E000
E000
E000
E000
E000
E000
E000
E000
FFFC
FFFC
ENDCHAR
STARTCHAR 0402
ENCODING 1026
SWIDTH 780 0
DWIDTH 26 0
BBX 24 24 0 0
BITMAP
FFFFE0
FFFFE0
00E000
00E000
00E000
00E000
00E000
00E000
00E3E0
00EFF8
00FC3C
00F80E
00F00E
00E007
00E007
00E007
00E007
00E007
00E00F
00E00E
00E01E
00E03C
00E1F8
00E1E0
ENDCHAR
STARTCHAR 0403
ENCODING 1027
SWIDTH 510 0
DWIDTH 17 0
BBX 14 31 3 0
BITMAP
00E0
01C0
0380
0700
0E00
0000
0000
FFFC
FFFC
E000
E000
E000
E000
E000
E000
E000
E000
E000
E000
E000
E000
E000
E000
E000
E000
E000
E000
E000
E000
E000
E000
ENDCHAR
STARTCHAR 0404
ENCODING 1028
SWIDTH 690 0
DWIDTH 23 0
BBX 19 24 2 0
BITMAP
00FE00
07FFC0
0F01E0
1E0020
380000
780000
700000
700000
F00000
E00000
E00000
FFFE00
FFFE00
E00000
E00000
E00000
700000
700000
780000
380000
1C0020
0F81E0
07FFC0
01FE00
ENDCHAR
STARTCHAR 0405
ENCODING 1029
SWIDTH 540 0
DWIDTH 18 0
BBX 14 24 2 0
BITMAP
0FE0
3FF8
7818
7000
E000
E000
E000
F000
7800
7C00
3F00
0FC0
07E0
01F8
0078
003C
001C
001C
001C
001C
8038
F078
7FE0
1F80
ENDCHAR
STARTCHAR 0406
ENCODING 1030
SWIDTH 300 0
DWIDTH 10 0
BBX 3 24 3 0
BITMAP
E0
E0
E0
E0
E0
E0
E0
E0
E0
E0
E0
E0
E0
E0
E0
E0
E0
E0
E0
E0
E0
E0
E0
E0
ENDCHAR
STARTCHAR 0407
ENCODING 1031
SWIDTH 300 0
DWIDTH 10 0
BBX 10 29 0 0
BITMAP
E1C0
E1C0
E1C0
0000
0000
1C00
1C00
1C00
1C00
1C00
1C00
1C00
1C00
1C00
1C00
1C00
1C00
1C00
1C00
1C00
1C00
1C00
1C00
1C00
1C00
1C00
1C00
1C00
1C00
ENDCHAR
STARTCHAR 0408
ENCODING 1032
SWIDTH 330 0
DWIDTH 11 0
BBX 8 29 0 -5
BITMAP
07
07
07
07
07
07
07
07
07
07
07
07
07
07
07
07
07
07
07
07
07
07
07
07
07
07
0E
FE
F8
ENDCHAR
STARTCHAR 0409
ENCODING 1033
SWIDTH 960 0
DWIDTH 32 0
BBX 30 24 1 0
BITMAP
07FFE000
07FFE000
0600E000
0600E000
0600E000
0600E000
0600E000
0600E000
0600E000
0600E000
0600E000
0600FFC0
0600FFF0
0600E0F8
0600E038
0600E01C
0E00E01C
0C00E01C
0C00E01C
0C00E01C
1800E038
3800E0F0
F000FFE0
C000FF80
ENDCHAR
STARTCHAR 040A
ENCODING 1034
SWIDTH 960 0
DWIDTH 32 0
BBX 28 24 3 0
BITMAP
E0038000
E0038000
E0038000
E0038000
E0038000
E0038000
E0038000
E0038000
E0038000
E0038000
E0038000
FFFFFF00
FFFFFFC0
E00383E0
E00380E0
E0038070
E0038070
E0038070
E0038070
E0038070
E00380E0
E00383C0
E003FF80
E003FE00
ENDCHAR
STARTCHAR 040B
ENCODING 1035
SWIDTH 750 0
DWIDTH 25 0
BBX 23 24 0 0
BITMAP
FFFF80
FFFF80
01C000
01C000
01C000
01C000
01C000
01C000
01C7E0
01DFF8
01F83C
01E01C
01C00E
01C00E
01C00E
01C00E
01C00E
01C00E
01C00E
01C00E
01C00E
01C00E
01C00E
01C00E
ENDCHAR
STARTCHAR 040C
ENCODING 1036
SWIDTH 630 0
DWIDTH 21 0
BBX 17 31 3 0
BITMAP
007000
00E000
01C000
038000
070000
000000
000000
E00700
E00F00
E01C00
E03800
E03000
E07000
E06000
E06000
E0C000
E1C000
E38000
FE0000
FFC000
E1E000
E0F000
E07000
E07800
E03800
E01C00
E01C00
E00E00
E00F00
E00700
E00780
ENDCHAR
STARTCHAR 040E
ENCODING 1038
SWIDTH 630 0
DWIDTH 21 0
BBX 20 32 1 0
BITMAP
070700
070700
070700
038E00
03FE00
00F800
000000
000000
F00030
700060
7800E0
3800C0
3C01C0
1C0180
0E0300
0E0300
070600
070600
038C00
03DC00
01D800
01F800
00F000
00E000
006000
00C000
00C000
018000
038000
070000
7E0000
780000
ENDCHAR
STARTCHAR 040F
ENCODING 1039
SWIDTH 720 0
DWIDTH 24 0
BBX 19 29 3 -5
BITMAP
E000E0
E000E0
E000E0
E000E0
E000E0
E000E0
E000E0
E000E0
E000E0
E000E0
E000E0
E000E0
E000E0
E000E0
E000E0
E000E0
E000E0
E000E0
E000E0
E000E0
E000E0
E000E0
FFFFE0
FFFFE0
00E000
00E000
00E000
00E000
00E000
ENDCHAR
STARTCHAR 0410
ENCODING 1040
SWIDTH 690 0
DWIDTH 23 0
BBX 22 24 0 0
BITMAP
003000
003000
007800
007800
00DC00
00DC00
00DE00
018E00
018E00
030700
030700
060380
060380
0603C0
0C01C0
0FFFC0
1FFFE0
1800E0
3000F0
300070
300078
600038
600038
C0001C
ENDCHAR
STARTCHAR 0411
ENCODING 1041
SWIDTH 570 0
DWIDTH 19 0
BBX 14 24 3 0
BITMAP
FFF8
FFF8
E000
E000
E000
E000
E000
E000
E000
E000
E000
FFC0
FFF0
E0F8
E038
E01C
E01C
E01C
E01C
E01C
E038
E0F0
FFE0
FF80
ENDCHAR
STARTCHAR 0412
ENCODING 1042
SWIDTH 570 0
DWIDTH 19 0
BBX 14 24 3 0
BITMAP
FF80
FFE0
E0F0
E078
E038
E038
E038
E038
E070
E070
E1E0
FF80
FFC0
E1F0
E078
E038
E01C
E01C
E01C
E01C
E03C
E078
FFF0
FFC0
ENDCHAR
STARTCHAR 0413
ENCODING 1043
SWIDTH 510 0
DWIDTH 17 0
BBX 14 24 3 0
BITMAP
FFFC
FFFC
E000
E000
E000
E000
E000
E000
E000
E000
E000
E000
E000
E000
E000
E000
E000
E000
E000
E000
E000
E000
E000
E000
ENDCHAR
STARTCHAR 0414
ENCODING 1044
SWIDTH 750 0
DWIDTH 25 0
BBX 23 29 1 -5
BITMAP
01FFF0
01FFF0
01C070
01C070
01C070
01C070
01C070
01C070
01C070
018070
038070
038070
038070
038070
070070
070070
070070
0E0070
0E0070
1C0070
1C0070
380070
FFFFFE
FFFFFE
E0000E
E0000E
E0000E
E0000E
E0000E
ENDCHAR
STARTCHAR 0415
ENCODING 1045
SWIDTH 540 0
DWIDTH 18 0
BBX 14 24 3 0
BITMAP
FFF8
FFF8
E000
E000
E000
E000
E000
E000
E000
E000
E000
FFF0
FFF0
E000
E000
E000
E000
E000
E000
E000
E000
E000
FFFC
FFFC
ENDCHAR
STARTCHAR 0416
ENCODING 1046
SWIDTH 810 0
DWIDTH 27 0
BBX 25 24 1 0
BITMAP
701C0700
781C0F00
181C1C00
0C1C1800
0C1C3800
061C3000
061C3000
031C6000
031C6000
019CC000
01DDC000
00FF8000
03FFE000
079CF000
0F1C7800
0E1C3800
1C1C1C00
1C1C1C00
381C0E00
381C0E00
381C0E00
701C0700
701C0700
E01C0380
ENDCHAR
STARTCHAR 0417
ENCODING 1047
SWIDTH 540 0
DWIDTH 18 0
BBX 16 24 1 0
BITMAP
3FC0
FFF8
C03C
001E
000E
000E
000E
000E
001C
003C
00F0
0FC0
0FF8
007C
001E
000F
0007
0007
0007
0007
000E
C03C
FFF8
3FC0
ENDCHAR
STARTCHAR 0418
ENCODING 1048
SWIDTH 720 0
DWIDTH 24 0
BBX 18 24 3 0
BITMAP
E001C0
E003C0
E003C0
E007C0
E00FC0
E00DC0
E019C0
E019C0
E031C0
E071C0
E061C0
E0C1C0
E0C1C0
E181C0
E381C0
E301C0
E601C0
E601C0
EC01C0
FC01C0
F801C0
F001C0
F001C0
E001C0
ENDCHAR
STARTCHAR 0419
ENCODING 1049
SWIDTH 720 0
DWIDTH 24 0
BBX 18 32 3 0
BITMAP
0E0E00
0E0E00
0E0E00
071C00
07FC00
01F000
000000
000000
E001C0
E003C0
E003C0
E007C0
E00FC0
E00DC0
E019C0
E019C0
E031C0
E071C0
E061C0
E0C1C0
E0C1C0
E181C0
E381C0
E301C0
E601C0
E601C0
EC01C0
FC01C0
F801C0
F001C0
F001C0
E001C0
ENDCHAR
STARTCHAR 041A
ENCODING 1050
SWIDTH 630 0
DWIDTH 21 0
BBX 17 24 3 0
BITMAP
E00700
E00F00
E01C00
E03800
E03000
E07000
E06000
E06000
E0C000
E1C000
E38000
FE0000
FFC000
E1E000
E0F000
E07000
E07800
E03800
E01C00
E01C00
E00E00
E00F00
E00700
E00780
ENDCHAR
STARTCHAR 041B
ENCODING 1051
SWIDTH 690 0
DWIDTH 23 0
BBX 19 24 1 0
BITMAP
07FFE0
07FFE0
0600E0
0600E0
0600E0
0600E0
0600E0
0600E0
0600E0
0600E0
0600E0
0600E0
0600E0
0600E0
0600E0
0600E0
0E00E0
0C00E0
0C00E0
0C00E0
1800E0
3800E0
F000E0
C000E0
ENDCHAR
STARTCHAR 041C
ENCODING 1052
SWIDTH 840 0
DWIDTH 28 0
BBX 21 24 3 0
BITMAP
F00038
F00078
F00078
F800F8
F800F8
FC00F8
DC01B8
DC01B8
CE0338
CE0338
CE0338
C70638
C70638
C38C38
C38C38
C38C38
C1D838
C1D838
C0F038
C0F038
C0F038
C06038
C00038
C00038
ENDCHAR
STARTCHAR 041D
ENCODING 1053
SWIDTH 720 0
DWIDTH 24 0
BBX 18 24 3 0
BITMAP
E001C0
E001C0
E001C0
E001C0
E001C0
E001C0
E001C0
E001C0
E001C0
E001C0
E001C0
FFFFC0
FFFFC0
E001C0
E001C0
E001C0
E001C0
E001C0
E001C0
E001C0
E001C0
E001C0
E001C0
E001C0
ENDCHAR
STARTCHAR 041E
ENCODING 1054
SWIDTH 780 0
DWIDTH 26 0
BBX 22 24 2 0
BITMAP
01FE00
07FF80
0F03C0
1C00E0
380070
780078
700038
700038
E0001C
E0001C
E0001C
E0001C
E0001C
E0001C
E0001C
E0001C
700038
700038
780078
380070
1C00E0
0F03C0
07FF80
01FE00
ENDCHAR
STARTCHAR 041F
ENCODING 1055
SWIDTH 720 0
DWIDTH 24 0
BBX 18 24 3 0
BITMAP
FFFFC0
FFFFC0
E001C0
E001C0
E001C0
E001C0
E001C0
E001C0
E001C0
E001C0
E001C0
E001C0
E001C0
E001C0
E001C0
E001C0
E001C0
E001C0
E001C0
E001C0
E001C0
E001C0
E001C0
E001C0
ENDCHAR
STARTCHAR 0420
ENCODING 1056
SWIDTH 540 0
DWIDTH 18 0
BBX 14 24 3 0
BITMAP
FFC0
FFF0
E078
E03C
E01C
E01C
E01C
E01C
E01C
E038
E078
E1F0
FFE0
FF00
E000
E000
E000
E000
E000
E000
E000
E000
E000
E000
ENDCHAR
STARTCHAR 0421
ENCODING 1057
SWIDTH 690 0
DWIDTH 23 0
BBX 19 24 2 0
BITMAP
00FE00
07FFC0
0F01E0
1C0020
380000
780000
700000
700000
E00000
E00000
E00000
E00000
E00000
E00000
E00000
E00000
700000
700000
780000
380000
1E0020
0F01E0
07FFC0
01FE00
ENDCHAR
STARTCHAR 0422
ENCODING 1058
SWIDTH 630 0
DWIDTH 21 0
BBX 19 24 1 0
BITMAP
FFFFE0
FFFFE0
00E000
00E000
00E000
00E000
00E000
00E000
00E000
00E000
00E000
00E000
00E000
00E000
00E000
00E000
00E000
00E000
00E000
00E000
00E000
00E000
00E000
00E000
ENDCHAR
STARTCHAR 0423
ENCODING 1059
SWIDTH 630 0
DWIDTH 21 0
BBX 20 24 1 0
BITMAP
F00030
700060
7800E0
3800C0
3C01C0
1C0180
0E0300
0E0300
070600
070600
038C00
03DC00
01D800
01F800
00F000
00E000
006000
00C000
00C000
018000
038000
070000
7E0000
780000
ENDCHAR
STARTCHAR 0424
ENCODING 1060
SWIDTH 690 0
DWIDTH 23 0
BBX 19 24 1 0
BITMAP
00E000
00E000
00E000
00E000
07FC00
1FFF00
3CE780
78E3C0
70E1C0
E0E0E0
E0E0E0
E0E0E0
E0E0E0
E0E0E0
E0E0E0
70E1C0
78E3C0
3CE780
1FFF00
07FC00
00E000
00E000
00E000
00E000
ENDCHAR
STARTCHAR 0425
ENCODING 1061
SWIDTH 630 0
DWIDTH 21 0
BBX 19 24 1 0
BITMAP
F00060
7000C0
780180
3C0180
1C0300
1E0600
0F0E00
070C00
079800
03F800
01F000
01E000
00F000
01F000
03F800
033C00
061C00
0C1E00
0C0F00
180700
300780
3003C0
6001C0
C001E0
ENDCHAR
STARTCHAR 0426
ENCODING 1062
SWIDTH 750 0
DWIDTH 25 0
BBX 21 29 3 -5
BITMAP
E001C0
E001C0
E001C0
E001C0
E001C0
E001C0
E001C0
E001C0
E001C0
E001C0
E001C0
E001C0
E001C0
E001C0
E001C0
E001C0
E001C0
E001C0
E001C0
E001C0
E001C0
E001C0
FFFFF8
FFFFF8
000038
000038
000038
000038
000038
ENDCHAR
STARTCHAR 0427
ENCODING 1063
SWIDTH 630 0
DWIDTH 21 0
BBX 17 24 1 0
BITMAP
E00380
E00380
E00380
E00380
E00380
E00380
E00380
E00380
E00380
E00380
E00380
700380
780F80
3FFF80
0FF380
000380
000380
000380
000380
000380
000380
000380
000380
000380
ENDCHAR
STARTCHAR 0428
ENCODING 1064
SWIDTH 930 0
DWIDTH 31 0
BBX 25 24 3 0
BITMAP
E01C0380
E01C0380
E01C0380
E01C0380
E01C0380
E01C0380
E01C0380
E01C0380
E01C0380
E01C0380
E01C0380
E01C0380
E01C0380
E01C0380
E01C0380
E01C0380
E01C0380
E01C0380
E01C0380
E01C0380
E01C0380
E01C0380
FFFFFF80
FFFFFF80
ENDCHAR
STARTCHAR 0429
ENCODING 1065
SWIDTH 990 0
DWIDTH 33 0
BBX 28 29 3 -5
BITMAP
E01C0380
E01C0380
E01C0380
E01C0380
E01C0380
E01C0380
E01C0380
E01C0380
E01C0380
E01C0380
E01C0380
E01C0380
E01C0380
E01C0380
E01C0380
E01C0380
E01C0380
E01C0380
E01C0380
E01C0380
E01C0380
E01C0380
FFFFFFF0
FFFFFFF0
00000070
00000070
00000070
00000070
00000070
ENDCHAR
STARTCHAR 042A
ENCODING 1066
SWIDTH 660 0
DWIDTH 22 0
BBX 21 24 0 0
BITMAP
FFC000
FFC000
01C000
01C000
01C000
01C000
01C000
01C000
01C000
01C000
01C000
01FF80
01FFE0
01C1F0
01C070
01C038
01C038
01C038
01C038
01C038
01C070
01C1E0
01FFC0
01FF00
ENDCHAR
STARTCHAR 042B
ENCODING 1067
SWIDTH 810 0
DWIDTH 27 0
BBX 21 24 3 0
BITMAP
E00038
E00038
E00038
E00038
E00038
E00038
E00038
E00038
E00038
E00038
E00038
FFC038
FFF838
E07C38
E01C38
E00E38
E00E38
E00E38
E00E38
E01E38
E01C38
E07838
FFF038
FFC038
ENDCHAR
STARTCHAR 042C
ENCODING 1068
SWIDTH 570 0
DWIDTH 19 0
BBX 15 24 3 0
BITMAP
E000
E000
E000
E000
E000
E000
E000
E000
E000
E000
E000
FFC0
FFF8
E07C
E01C
E00E
E00E
E00E
E00E
E01E
E01C
E078
FFF0
FFC0
ENDCHAR
STARTCHAR 042D
ENCODING 1069
SWIDTH 690 0
DWIDTH 23 0
BBX 19 24 2 0
BITMAP
0FE000
7FFC00
F01E00
800F00
000380
0003C0
0001C0
0001C0
0001E0
0000E0
0000E0
0FFFE0
0FFFE0
0000E0
0000E0
0000E0
0001C0
0001C0
0003C0
000380
800F00
F03E00
7FFC00
0FF000
ENDCHAR
STARTCHAR 042E
ENCODING 1070
SWIDTH 960 0
DWIDTH 32 0
BBX 27 24 3 0
BITMAP
E003F000
E00FFC00
E03C1F00
E0780780
E0700380
E0E001C0
E0E001C0
E0E001C0
E1C000E0
E1C000E0
E1C000E0
FFC000E0
FFC000E0
E1C000E0
E1C000E0
E1C000E0
E0E001C0
E0E001C0
E0E001C0
E0700380
E0780780
E03C0F00
E00FFC00
E003F000
ENDCHAR
STARTCHAR 042F
ENCODING 1071
SWIDTH 600 0
DWIDTH 20 0
BBX 17 24 0 0
BITMAP
01FF80
07FF80
0F8380
0E0380
1C0380
1C0380
1C0380
1C0380
1C0380
0E0380
078380
03FF80
007F80
01E380
03C380
038380
078380
0F0380
0E0380
1C0380
3C0380
380380
780380
F00380
ENDCHAR
STARTCHAR 0430
ENCODING 1072
SWIDTH 540 0
DWIDTH 18 0
BBX 16 18 2 0
BITMAP
07C0
1FF0
3870
2038
0038
0038
0038
07F8
1FF8
7C38
7038
E038
E038
E038
E078
70DC
7F9F
1E0F
ENDCHAR
STARTCHAR 0431
ENCODING 1073
SWIDTH 600 0
DWIDTH 20 0
BBX 16 27 2 0
BITMAP
0004
03FC
0FF8
1E00
3800
3800
7000
7000
7000
E1F0
E7F8
EE1C
F80E
F00E
E007
E007
E007
E007
E007
E007
6007
700E
700E
381C
3C3C
1FF8
07E0
ENDCHAR
STARTCHAR 0432
ENCODING 1074
SWIDTH 510 0
DWIDTH 17 0
BBX 12 18 3 0
BITMAP
FF80
FFC0
E1E0
E0E0
E0E0
E0E0
E0C0
E1C0
FF80
FF80
E1E0
E0E0
E070
E070
E070
E0F0
FFE0
FF80
ENDCHAR
STARTCHAR 0433
ENCODING 1075
SWIDTH 480 0
DWIDTH 16 0
BBX 12 18 3 0
BITMAP
FFF0
FFF0
E000
E000
E000
E000
E000
E000
E000
E000
E000
E000
E000
E000
E000
E000
E000
E000
ENDCHAR
STARTCHAR 0434
ENCODING 1076
SWIDTH 660 0
DWIDTH 22 0
BBX 19 22 1 -4
BITMAP
07FF00
07FF00
070700
070700
070700
070700
070700
070700
0E0700
0E0700
0E0700
0E0700
1C0700
1C0700
380700
380700
FFFFE0
FFFFE0
E000E0
E000E0
E000E0
E000E0
ENDCHAR
STARTCHAR 0435
ENCODING 1077
SWIDTH 540 0
DWIDTH 18 0
BBX 14 18 2 0
BITMAP
07C0
1FF0
3878
7038
701C
E01C
E01C
FFFC
FFFC
E000
E000
E000
7000
7000
3800
3E0C
0FFC
03F0
ENDCHAR
STARTCHAR 0436
ENCODING 1078
SWIDTH 720 0
DWIDTH 24 0
BBX 23 18 0 0
BITMAP
60380C
70381C
303818
183830
1C3870
0C3860
0638C0
0739C0
01FF00
07FFC0
0E38E0
1E38F0
1C3870
3C3878
383838
78383C
70381C
F0381E
ENDCHAR
STARTCHAR 0437
ENCODING 1079
SWIDTH 480 0
DWIDTH 16 0
BBX 13 18 1 0
BITMAP
7F80
FFE0
C1E0
0070
0070
0070
0070
01E0
0FC0
0FC0
00F0
0078
0038
0038
0078
C0F0
FFE0
3F80
ENDCHAR
STARTCHAR 0438
ENCODING 1080
SWIDTH 630 0
DWIDTH 21 0
BBX 15 18 3 0
BITMAP
E00E
E01E
E03E
E03E
E06E
E06E
E0CE
E18E
E18E
E30E
E30E
E60E
EC0E
EC0E
F80E
F80E
F00E
F00E
ENDCHAR
STARTCHAR 0439
ENCODING 1081
SWIDTH 630 0
DWIDTH 21 0
BBX 15 27 3 0
BITMAP
3838
3838
3838
1C70
1FF0
07C0
0000
0000
0000
E00E
E01E
E03E
E03E
E06E
E06E
E0CE
E18E
E18E
E30E
E30E
E60E
EC0E
EC0E
F80E
F80E
F00E
F00E
ENDCHAR
STARTCHAR 043A
ENCODING 1082
SWIDTH 570 0
DWIDTH 19 0
BBX 15 18 3 0
BITMAP
E01C
E03C
E078
E0F0
E0E0
E1E0
E3C0
E380
FE00
FF80
E3C0
E1E0
E0F0
E070
E078
E038
E01C
E01E
ENDCHAR
STARTCHAR 043B
ENCODING 1083
SWIDTH 570 0
DWIDTH 19 0
BBX 15 18 1 0
BITMAP
0FFE
0FFE
0E0E
0E0E
0E0E
0E0E
0E0E
0E0E
0E0E
0E0E
0E0E
0C0E
1C0E
1C0E
380E
780E
F00E
C00E
ENDCHAR
STARTCHAR 043C
ENCODING 1084
SWIDTH 720 0
DWIDTH 24 0
BBX 18 18 3 0
BITMAP
E003C0
E003C0
F003C0
F007C0
F807C0
F80DC0
DC0DC0
DC1DC0
DC19C0
CE19C0
CE31C0
C731C0
C761C0
C3E1C0
C3C1C0
C1C1C0
C1C1C0
C001C0
ENDCHAR
STARTCHAR 043D
ENCODING 1085
SWIDTH 630 0
DWIDTH 21 0
BBX 15 18 3 0
BITMAP
E00E
E00E
E00E
E00E
E00E
E00E
E00E
E00E
FFFE
FFFE
E00E
E00E
E00E
E00E
E00E
E00E
E00E
E00E
ENDCHAR
STARTCHAR 043E
ENCODING 1086
SWIDTH 600 0
DWIDTH 20 0
BBX 16 18 2 0
BITMAP
07E0
1FF8
3C3C
700E
700E
E007
E007
E007
E007
E007
E007
E007
E007
700E
700E
3C3C
1FF8
07E0
ENDCHAR
STARTCHAR 043F
ENCODING 1087
SWIDTH 630 0
DWIDTH 21 0
BBX 15 18 3 0
BITMAP
FFFE
FFFE
E00E
E00E
E00E
E00E
E00E
E00E
E00E
E00E
E00E
E00E
E00E
E00E
E00E
E00E
E00E
E00E
ENDCHAR
STARTCHAR 0440
ENCODING 1088
SWIDTH 630 0
DWIDTH 21 0
BBX 16 24 3 -6
BITMAP
E3F0
EFF8
FC1C
F80E
E00E
E007
E007
E007
E007
E007
E007
E007
E00E
E00E
F01C
FC3C
EFF8
E7E0
E000
E000
E000
E000
E000
E000
ENDCHAR
STARTCHAR 0441
ENCODING 1089
SWIDTH 510 0
DWIDTH 17 0
BBX 13 18 2 0
BITMAP
07F0
1FF8
3C18
7800
7000
F000
E000
E000
E000
E000
E000
E000
7000
7000
3800
3C08
1FF8
07E0
ENDCHAR
STARTCHAR 0442
ENCODING 1090
SWIDTH 480 0
DWIDTH 16 0
BBX 15 18 0 0
BITMAP
FFFE
FFFE
0380
0380
0380
0380
0380
0380
0380
0380
0380
0380
0380
0380
0380
0380
0380
0380
ENDCHAR
STARTCHAR 0443
ENCODING 1091
SWIDTH 540 0
DWIDTH 18 0
BBX 17 24 1 -6
BITMAP
C00180
600300
600300
300600
300600
380E00
180C00
181C00
0C1800
0C1800
063000
063000
036000
036000
01E000
01C000
01C000
018000
018000
030000
070000
0E0000
7C0000
780000
ENDCHAR
STARTCHAR 0444
ENCODING 1092
SWIDTH 780 0
DWIDTH 26 0
BBX 21 32 2 -6
BITMAP
007000
007000
007000
007000
007000
007000
007000
007000
0F7780
1FFFC0
38F8E0
707070
707070
E07038
E07038
E07038
E07038
E07038
E07038
E07038
E07038
707070
707070
38F0E0
3FFFE0
0F7780
007000
007000
007000
007000
007000
007000
ENDCHAR
STARTCHAR 0445
ENCODING 1093
SWIDTH 600 0
DWIDTH 20 0
BBX 16 18 2 0
BITMAP
F006
700C
380C
3C18
1C30
0E30
0F60
07C0
03C0
03C0
07E0
0CF0
0C70
1878
303C
701C
600E
C00F
ENDCHAR
STARTCHAR 0446
ENCODING 1094
SWIDTH 660 0
DWIDTH 22 0
BBX 18 22 3 -4
BITMAP
E00E00
E00E00
E00E00
E00E00
E00E00
E00E00
E00E00
E00E00
E00E00
E00E00
E00E00
E00E00
E00E00
E00E00
E00E00
E00E00
FFFFC0
FFFFC0
0001C0
0001C0
0001C0
0001C0
ENDCHAR
STARTCHAR 0447
ENCODING 1095
SWIDTH 510 0
DWIDTH 17 0
BBX 13 18 1 0
BITMAP
E038
E038
E038
E038
E038
E038
E038
E038
7078
7FF8
1FB8
0038
0038
0038
0038
0038
0038
0038
ENDCHAR
STARTCHAR 0448
ENCODING 1096
SWIDTH 840 0
DWIDTH 28 0
BBX 21 18 3 0
BITMAP
E07038
E07038
E07038
E07038
E07038
E07038
E07038
E07038
E07038
E07038
E07038
E07038
E07038
E07038
E07038
E07038
FFFFF8
FFFFF8
ENDCHAR
STARTCHAR 0449
ENCODING 1097
SWIDTH 870 0
DWIDTH 29 0
BBX 24 22 3 -4
BITMAP
E07038
E07038
E07038
E07038
E07038
E07038
E07038
E07038
E07038
E07038
E07038
E07038
E07038
E07038
E07038
E07038
FFFFFF
FFFFFF
000007
000007
000007
000007
ENDCHAR
STARTCHAR 044A
ENCODING 1098
SWIDTH 570 0
DWIDTH 19 0
BBX 17 18 0 0
BITMAP
FF0000
FF0000
070000
070000
070000
070000
070000
070000
07F800
07FE00
070F00
070380
070380
070380
070380
070F00
07FE00
07F800
ENDCHAR
STARTCHAR 044B
ENCODING 1099
SWIDTH 720 0
DWIDTH 24 0
BBX 18 18 3 0
BITMAP
E001C0
E001C0
E001C0
E001C0
E001C0
E001C0
E001C0
E001C0
FF01C0
FFC1C0
E1E1C0
E071C0
E071C0
E071C0
E071C0
E1E1C0
FFC1C0
FF01C0
ENDCHAR
STARTCHAR 044C
ENCODING 1100
SWIDTH 510 0
DWIDTH 17 0
BBX 13 18 3 0
BITMAP
E000
E000
E000
E000
E000
E000
E000
E000
FF80
FFE0
E0F0
E038
E038
E038
E038
E0F0
FFE0
FF80
ENDCHAR
STARTCHAR 044D
ENCODING 1101
SWIDTH 510 0
DWIDTH 17 0
BBX 14 18 1 0
BITMAP
3F00
FFE0
80F0
0078
0038
0038
001C
001C
1FFC
1FFC
001C
001C
0038
0038
0070
C0F0
FFE0
3F00
ENDCHAR
STARTCHAR 044E
ENCODING 1102
SWIDTH 810 0
DWIDTH 27 0
BBX 22 18 3 0
BITMAP
E01F80
E07FE0
E0F0F0
E1C038
E1C038
E38018
E3801C
E3801C
FF801C
FF801C
E3801C
E3801C
E3801C
E1C038
E1C038
E0F0F0
E07FE0
E01F80
ENDCHAR
STARTCHAR 044F
ENCODING 1103
SWIDTH 510 0
DWIDTH 17 0
BBX 13 18 1 0
BITMAP
07F8
1FF8
1C38
3838
3838
3838
3838
1E38
0FF8
03F8
0F38
0E38
1C38
3C38
3838
7838
7038
F038
ENDCHAR
STARTCHAR 0451
ENCODING 1105
SWIDTH 540 0
DWIDTH 18 0
BBX 14 24 2 0
BITMAP
3870
3870
3870
0000
0000
0000
07C0
1FF0
3878
7038
701C
E01C
E01C
FFFC
FFFC
E000
E000
E000
7000
7000
3800
3E0C
0FFC
03F0
ENDCHAR
STARTCHAR 0452
ENCODING 1106
SWIDTH 630 0
DWIDTH 21 0
BBX 17 33 1 -7
BITMAP
1C0000
1C0000
1C0000
1C0000
1C0000
FFF000
FFF000
1C0000
1C0000
1C0000
1C0000
1C7C00
1DFF00
1F8700
1F0380
1E0380
1C0380
1C0380
1C0380
1C0380
1C0380
1C0380
1C0380
1C0380
1C0380
1C0380
000380
000380
000380
000380
000700
003F00
003E00
ENDCHAR
STARTCHAR 0453
ENCODING 1107
SWIDTH 480 0
DWIDTH 16 0
BBX 12 26 3 0
BITMAP
01C0
0380
0700
0E00
1C00
0000
0000
0000
FFF0
FFF0
E000
E000
E000
E000
E000
E000
E000
E000
E000
E000
E000
E000
E000
E000
E000
E000
ENDCHAR
STARTCHAR 0454
ENCODING 1108
SWIDTH 510 0
DWIDTH 17 0
BBX 14 18 2 0
BITMAP
03F8
1FFC
3C0C
7800
7000
F000
E000
E000
FFE0
FFE0
E000
E000
6000
7000
7800
3C0C
1FFC
03F0
ENDCHAR
STARTCHAR 0455
ENCODING 1109
SWIDTH 510 0
DWIDTH 17 0
BBX 12 18 3 0
BITMAP
1F80
7FE0
7060
E000
E000
E000
F800
7E00
3F80
0FE0
03E0
00F0
0070
0070
8070
E0E0
7FC0
1F00
ENDCHAR
STARTCHAR 0456
ENCODING 1110
SWIDTH 300 0
DWIDTH 10 0
BBX 3 24 3 0
BITMAP
E0
E0
E0
00
00
00
E0
E0
E0
E0
E0
E0
E0
E0
E0
E0
E0
E0
E0
E0
E0
E0
E0
E0
ENDCHAR
STARTCHAR 0457
ENCODING 1111
SWIDTH 300 0
DWIDTH 10 0
BBX 10 24 0 0
BITMAP
E1C0
E1C0
E1C0
0000
0000
0000
1C00
1C00
1C00
1C00
1C00
1C00
1C00
1C00
1C00
1C00
1C00
1C00
1C00
1C00
1C00
1C00
1C00
1C00
ENDCHAR
STARTCHAR 0458
ENCODING 1112
SWIDTH 300 0
DWIDTH 10 0
BBX 7 31 0 -7
BITMAP
0E
0E
0E
00
00
00
0E
0E
0E
0E
0E
0E
0E
0E
0E
0E
0E
0E
0E
0E
0E
0E
0E
0E
0E
0E
0E
0E
1C
FC
F8
ENDCHAR
STARTCHAR 0459
ENCODING 1113
SWIDTH 780 0
DWIDTH 26 0
BBX 24 18 1 0
BITMAP
0FFE00
0FFE00
0E0E00
0E0E00
0E0E00
0E0E00
0E0E00
0E0E00
0E0FF0
0E0FFC
0E0E1E
1C0E07
1C0E07
1C0E07
380E07
780E1E
F00FFC
C00FF0
ENDCHAR
STARTCHAR 045A
ENCODING 1114
SWIDTH 840 0
DWIDTH 28 0
BBX 24 18 3 0
BITMAP
E00E00
E00E00
E00E00
E00E00
E00E00
E00E00
E00E00
E00E00
FFFFF0
FFFFFC
E00E1E
E00E07
E00E07
E00E07
E00E07
E00E1E
E00FFC
E00FF0
ENDCHAR
STARTCHAR 045B
ENCODING 1115
SWIDTH 630 0
DWIDTH 21 0
BBX 17 26 1 0
BITMAP
1C0000
1C0000
1C0000
1C0000
FFF000
FFF000
1C0000
1C0000
1C0000
1C0000
1C7C00
1DFF00
1F8700
1F0380
1E0380
1C0380
1C0380
1C0380
1C0380
1C0380
1C0380
1C0380
1C0380
1C0380
1C0380
1C0380
ENDCHAR
STARTCHAR 045C
ENCODING 1116
SWIDTH 570 0
DWIDTH 19 0
BBX 15 26 3 0
BITMAP
00E0
01C0
0380
0700
0E00
0000
0000
0000
E01C
E03C
E078
E0F0
E0E0
E1E0
E3C0
E380
FE00
FF80
E3C0
E1E0
E0F0
E070
E078
E038
E01C
E01E
ENDCHAR
STARTCHAR 045E
ENCODING 1118
SWIDTH 540 0
DWIDTH 18 0
BBX 17 33 1 -6
BITMAP
1C1C00
1C1C00
1C1C00
0E3800
0FF800
03E000
000000
000000
000000
C00180
600300
600300
300600
300600
380E00
180C00
181C00
0C1800
0C1800
063000
063000
036000
036000
01E000
01C000
01C000
018000
018000
030000
070000
0E0000
7C0000
780000
ENDCHAR
STARTCHAR 045F
ENCODING 1119
SWIDTH 630 0
DWIDTH 21 0
BBX 15 22 3 -4
BITMAP
E00E
E00E
E00E
E00E
E00E
E00E
E00E
E00E
E00E
E00E
E00E
E00E
E00E
E00E
E00E
E00E
FFFE
FFFE
0380
0380
0380
0380
ENDCHAR
STARTCHAR 0460
ENCODING 1120
SWIDTH 870 0
DWIDTH 29 0
BBX 24 24 2 0
BITMAP
38001C
70000E
70000E
70180E
70180E
F03C0F
E03C07
E03C07
E03C07
E03C07
E03C07
E03C07
E03C07
E01807
E01807
E01807
E01807
E03C07
703C0E
703C0E
70660E
38661C
1FC3F8
0F81F0
ENDCHAR
STARTCHAR 0461
ENCODING 1121
SWIDTH 690 0
DWIDTH 23 0
BBX 19 18 2 0
BITMAP
70E1C0
70E1E0
E0E0E0
E0E0E0
E0E0E0
E0E0E0
E0E0E0
E0E0E0
E0E0E0
E0E0C0
60F0C0
70F1C0
71B1C0
73B180
333B80
3F1B00
3E1F00
1C0E00
ENDCHAR
STARTCHAR 0462
ENCODING 1122
SWIDTH 660 0
DWIDTH 22 0
BBX 20 24 0 0
BITMAP
038000
038000
038000
FFFE00
FFFE00
038000
038000
038000
038000
038000
038000
03FF00
03FFC0
0383E0
0380E0
038070
038070
038070
038070
038070
0380E0
0383C0
03FF80
03FE00
ENDCHAR
STARTCHAR 0463
ENCODING 1123
SWIDTH 540 0
DWIDTH 18 0
BBX 16 26 1 0
BITMAP
0E00
0E00
0E00
0E00
0E00
0E00
0E00
0E00
FFE0
FFE0
0E00
0E00
0E00
0E00
0E00
0E00
0FF0
0FFC
0E1E
0E07
0E07
0E07
0E07
0E1E
0FFC
0FF0
ENDCHAR
STARTCHAR 0464
ENCODING 1124
SWIDTH 750 0
DWIDTH 25 0
BBX 21 24 3 0
BITMAP
C00FE0
C07FF8
C0F018
C1E000
C1C000
C38000
C38000
C70000
C70000
C70000
C70000
FFFF80
FFFF80
C70000
C70000
C70000
C70000
C38000
C38000
C3C000
C1C000
C0F018
C07FF8
C01FE0
ENDCHAR
STARTCHAR 0465
ENCODING 1125
SWIDTH 690 0
DWIDTH 23 0
BBX 18 18 3 0
BITMAP
E01F80
E07FC0
E0F0C0
E1C000
E1C000
E18000
E38000
E38000
FFFE00
FFFE00
E38000
E38000
E38000
E1C000
E1C000
E0F040
E07FC0
E01F80
ENDCHAR
STARTCHAR 0466
ENCODING 1126
SWIDTH 660 0
DWIDTH 22 0
BBX 20 24 1 0
BITMAP
006000
006000
006000
00F000
00F000
00B000
019800
019800
030C00
030C00
060600
060600
0C0300
0C0300
180180
3FFFC0
3FFFC0
6060C0
6060E0
606060
406060
C06070
C06070
C06070
ENDCHAR
STARTCHAR 0467
ENCODING 1127
SWIDTH 600 0
DWIDTH 20 0
BBX 17 18 1 0
BITMAP
01C000
01C000
03E000
03E000
03E000
077000
0E7800
0E3800
1C3C00
1C1C00
380E00
3FFE00
7FFF00
71C700
71C700
E1C380
E1C380
E1C380
ENDCHAR
STARTCHAR 0468
ENCODING 1128
SWIDTH 870 0
DWIDTH 29 0
BBX 26 24 2 0
BITMAP
C0018000
C0018000
C003C000
C003C000
C007E000
C006E000
C0066000
C00E7000
C00C3000
C01C3800
C0181800
C0381C00
C0300C00
C0700E00
FFFFFE00
FFFFFF00
C0C18300
C1818380
C1818180
C1818180
C1018180
C30181C0
C30181C0
C30181C0
ENDCHAR
STARTCHAR 0469
ENCODING 1129
SWIDTH 780 0
DWIDTH 26 0
BBX 23 18 3 0
BITMAP
E00E00
E00E00
E01F00
E01F00
E03B80
E03B80
E071C0
E0E1E0
E1E0E0
E1C070
FFFFF0
FFFFF8
E70E18
E70E1C
E70E1C
EE0E0E
EE0E0E
EE0E0E
ENDCHAR
STARTCHAR 046A
ENCODING 1130
SWIDTH 810 0
DWIDTH 27 0
BBX 25 24 1 0
BITMAP
7FFFFF00
7FFFFF00
60000300
30000600
18000C00
0C001800
06003000
03006000
03006000
0180C000
00C18000
007F0000
03FFE000
079CF000
0F1C7800
0E1C3800
1C1C1C00
1C1C1C00
381C0E00
381C0E00
381C0E00
701C0700
701C0700
E01C0380
ENDCHAR
STARTCHAR 046B
ENCODING 1131
SWIDTH 690 0
DWIDTH 23 0
BBX 21 18 1 0
BITMAP
7FFFF0
7FFFF0
700070
3000E0
1800C0
0C0180
060300
030600
01FC00
07FF00
0E7780
1E73C0
1C71C0
3C71E0
3870E0
7870F0
707070
F07078
ENDCHAR
STARTCHAR 046C
ENCODING 1132
SWIDTH 1020 0
DWIDTH 34 0
BBX 30 24 3 0
BITMAP
C0FFFFF8
C0FFFFF8
C0C00018
C0600030
C0300060
C01800C0
C00C01C0
C0060180
C0030300
C0030600
C0018C00
FFFFFE00
FFFFFF80
C00E7380
C01C71C0
C01C71C0
C03870E0
C03870E0
C0707070
C0707070
C0707070
C0E07038
C0E07038
C1C0701C
ENDCHAR
STARTCHAR 046D
ENCODING 1133
SWIDTH 930 0
DWIDTH 31 0
BBX 27 18 3 0
BITMAP
E0FFFF80
E0FFFF80
E0C00380
E0600300
E0300600
E0180C00
E00C1800
E0063000
FFFFE000
FFFFFC00
E039CE00
E079CF00
E071C700
E0F1C780
E0E1C380
E1E1C3C0
E1C1C1C0
E3C1C1E0
ENDCHAR
STARTCHAR 046E
ENCODING 1134
SWIDTH 600 0
DWIDTH 20 0
BBX 18 35 0 -6
BITMAP
060E00
031C00
01B800
01F000
00E000
07F800
1FFE00
180F00
000780
000380
000380
000380
000380
000700
000700
001E00
07F800
07FC00
001F00
000780
0003C0
0001C0
0001C0
0001C0
0001C0
000380
000700
3FFE00
7FF800
E00000
C00000
C00000
E00000
7FE000
1FE000
ENDCHAR
STARTCHAR 046F
ENCODING 1135
SWIDTH 540 0
DWIDTH 18 0
BBX 14 29 2 -6
BITMAP
3070
18E0
0DC0
0F80
0700
7FE0
7FF8
007C
001C
001C
001C
0038
0078
3FE0
3FE0
0078
003C
001C
001C
001C
0038
1FF8
7FE0
F000
E000
E000
F000
7FC0
1FC0
ENDCHAR
STARTCHAR 0470
ENCODING 1136
SWIDTH 690 0
DWIDTH 23 0
BBX 23 24 0 0
BITMAP
C0700E
C0701E
607018
607030
607030
607030
607070
307060
307060
307060
3070C0
3870C0
1870C0
1871C0
1C7180
0FFF00
03FE00
007000
007000
007000
007000
007000
007000
007000
ENDCHAR
STARTCHAR 0471
ENCODING 1137
SWIDTH 690 0
DWIDTH 23 0
BBX 23 27 0 -6
BITMAP
007000
007000
007000
C0700E
C0701E
607018
607030
607030
607030
607030
307060
307060
307060
307060
3070C0
3870C0
1870C0
1871C0
1C7180
0FFF80
03FE00
007000
007000
007000
007000
007000
007000
ENDCHAR
STARTCHAR 0472
ENCODING 1138
SWIDTH 780 0
DWIDTH 26 0
BBX 22 24 2 0
BITMAP
01FE00
07FF80
0F03C0
1C00E0
380070
780078
700038
700038
E0001C
E0001C
EF801C
FFF83C
F07FFC
E007DC
E0001C
E0001C
700038
700038
700078
380070
1C00E0
0F03C0
07FF80
01FE00
ENDCHAR
STARTCHAR 0473
ENCODING 1139
SWIDTH 600 0
DWIDTH 20 0
BBX 16 18 2 0
BITMAP
07E0
1FF8
3C3C
701E
700E
E007
E007
FF07
FFFF
E0FF
E007
E007
F00F
700E
781E
3C3C
1FF8
07E0
ENDCHAR
STARTCHAR 0474
ENCODING 1140
SWIDTH 720 0
DWIDTH 24 0
BBX 24 24 0 0
BITMAP
E00003
700007
70000E
78001C
380018
380038
1C0030
1C0070
0E0060
0E00E0
0F00C0
0700C0
070180
038180
038300
03C300
01C600
01E600
00EC00
00EC00
007800
007800
007800
003000
ENDCHAR
STARTCHAR 0475
ENCODING 1141
SWIDTH 570 0
DWIDTH 19 0
BBX 18 18 1 0
BITMAP
E001C0
7001C0
700300
380300
380600
3C0600
1C0E00
1C0C00
0E0C00
0E1C00
071800
071800
07B000
03B000
03F000
01E000
01E000
00E000
ENDCHAR
STARTCHAR 0476
ENCODING 1142
SWIDTH 720 0
DWIDTH 24 0
BBX 24 31 0 0
BITMAP
033000
019800
019800
019800
00CC00
000000
000000
E00003
700007
70000E
78001C
380018
380038
1C0030
1C0070
0E0060
0E00E0
0F00C0
0700C0
070180
038180
038300
03C300
01C600
01E600
00EC00
00EC00
007800
007800
007800
003000
ENDCHAR
STARTCHAR 0477
ENCODING 1143
SWIDTH 570 0
DWIDTH 19 0
BBX 18 26 1 0
BITMAP
198000
0CC000
0CC000
0CC000
066000
000000
000000
000000
E001C0
7001C0
700300
380300
380600
3C0600
1C0E00
1C0C00
0E0C00
0E1C00
071800
071800
07B000
03B000
03F000
01E000
01E000
00E000
ENDCHAR
STARTCHAR 0478
ENCODING 1144
SWIDTH 1200 0
DWIDTH 40 0
BBX 38 30 2 -6
BITMAP
01FC000000
07FF000000
0F07800000
1C01C00000
3800E00000
7800E00000
700077003C
700073807C
E0003B8070
E0003B80E0
E00039C0E0
E00039C1E0
E00039E1C0
E00038E1C0
E00038E380
E00038F380
7000707780
7000707700
7800F03F00
3800E03E00
1C01C03E00
0F07801E00
07FF001C00
01FC001C00
0000003800
0000003800
0000007800
0000007000
0000007000
000000E000
ENDCHAR
STARTCHAR 0479
ENCODING 1145
SWIDTH 1080 0
DWIDTH 36 0
BBX 34 24 2 -6
BITMAP
07F07003C0
1FFC3807C0
3C1E380700
780F380E00
70071C0E00
E0071C1E00
E0039E1C00
E0038E1C00
E0038E3800
E0038F3800
E003877800
E003877000
600783F000
700703E000
780F03E000
3C1E01E000
1FFC01C000
07F001C000
0000038000
0000038000
0000078000
0000070000
0000070000
00000E0000
ENDCHAR
STARTCHAR 047A
ENCODING 1146
SWIDTH 780 0
DWIDTH 26 0
BBX 23 28 2 -2
BITMAP
003800
003800
00FE00
07FFC0
0F39E0
1C3870
380038
70003C
70001C
70001C
E0000E
E0000E
E0000E
E0000E
E0000E
E0000E
E0000E
E0000E
70001C
70001C
70001C
380038
1C3870
0F39E0
07FFC0
01FF00
003800
003800
ENDCHAR
STARTCHAR 047B
ENCODING 1147
SWIDTH 600 0
DWIDTH 20 0
BBX 17 22 2 -2
BITMAP
01C000
01C000
07F000
1FFC00
3DDE00
79CF00
71C700
F00780
E00380
E00380
E00380
E00380
E00380
E00380
E00380
71C700
79CF00
3DDE00
1FFC00
07F000
01C000
01C000
ENDCHAR
STARTCHAR 047C
ENCODING 1148
SWIDTH 870 0
DWIDTH 29 0
BBX 24 36 2 0
BITMAP
000070
000070
000070
000070
00FFF0
00FFF0
00E000
00E000
00E000
00E000
000000
000000
38001C
70000E
70000E
70180E
70180E
F03C0F
E03C07
E03C07
E03C07
E03C07
E03C07
E03C07
E03C07
E01807
E01807
E01807
E01807
E03C07
703C0E
703C0E
70660E
38661C
1FC3F8
0F81F0
ENDCHAR
STARTCHAR 047D
ENCODING 1149
SWIDTH 690 0
DWIDTH 23 0
BBX 19 31 2 0
BITMAP
000700
000700
000700
000700
0FFF00
0FFF00
0E0000
0E0000
0E0000
0E0000
000000
000000
000000
70E1C0
70E1E0
E0E0E0
E0E0E0
E0E0E0
E0E0E0
E0E0E0
E0E0E0
E0E0E0
E0E0C0
60F0C0
70F1C0
71B1C0
73B180
333B80
3F1B00
3E1F00
1C0E00
ENDCHAR
STARTCHAR 047E
ENCODING 1150
SWIDTH 870 0
DWIDTH 29 0
BBX 24 31 2 0
BITMAP
03FFC0
03FFC0
0318C0
0318C0
0318C0
000000
000000
38001C
70000E
70000E
70180E
70180E
F03C0F
E03C07
E03C07
E03C07
E03C07
E03C07
E03C07
E03C07
E01807
E01807
E01807
E01807
E03C07
703C0E
703C0E
70660E
38661C
1FC3F8
0F81F0
ENDCHAR
STARTCHAR 047F
ENCODING 1151
SWIDTH 690 0
DWIDTH 23 0
BBX 19 26 2 0
BITMAP
1FFE00
1FFE00
18C600
18C600
18C600
000000
000000
000000
70E1C0
70E1E0
E0E0E0
E0E0E0
E0E0E0
E0E0E0
E0E0E0
E0E0E0
E0E0E0
E0E0C0
60F0C0
70F1C0
71B1C0
73B180
333B80
3F1B00
3E1F00
1C0E00
ENDCHAR
STARTCHAR 0480
ENCODING 1152
SWIDTH 660 0
DWIDTH 22 0
BBX 18 24 2 0
BITMAP
01FE00
0FFF80
1F03C0
3C0040
780000
700000
F00000
E00000
E00000
E00000
E00000
E00000
E00000
700000
780000
3C0040
1F03C0
0FFFC0
01FFC0
0001C0
0001C0
0001C0
0001C0
0001C0
ENDCHAR
STARTCHAR 0481
ENCODING 1153
SWIDTH 480 0
DWIDTH 16 0
BBX 12 18 2 0
BITMAP
07E0
1FF0
3810
7000
E000
E000
E000
E000
E000
E000
7000
7810
3FF0
0FF0
0070
0070
0070
0070
ENDCHAR
STARTCHAR 0482
ENCODING 1154
SWIDTH 630 0
DWIDTH 21 0
BBX 21 22 0 1
BITMAP
000030
000060
0000C0
01C1C0
00E180
003B00
001E00
000F00
001FC0
0018E0
403078
F06000
38C000
1FC000
078000
03C000
06E000
0C3800
1C1C00
180000
300000
600000
ENDCHAR
STARTCHAR 0483
ENCODING 1155
SWIDTH 600 0
DWIDTH 20 0
BBX 12 10 5 21
BITMAP
0070
0070
0070
0070
FFF0
FFF0
E000
E000
E000
E000
ENDCHAR
STARTCHAR 0484
ENCODING 1156
SWIDTH 600 0
DWIDTH 20 0
BBX 11 5 5 21
BITMAP
0F80
3FC0
71E0
C0E0
80E0
ENDCHAR
STARTCHAR 0485
ENCODING 1157
SWIDTH 600 0
DWIDTH 20 0
BBX 11 10 5 21
BITMAP
E000
E000
E000
E000
FFE0
FFE0
E000
E000
E000
E000
ENDCHAR
STARTCHAR 0486
ENCODING 1158
SWIDTH 600 0
DWIDTH 20 0
BBX 11 10 5 21
BITMAP
00E0
00E0
00E0
00E0
FFE0
FFE0
00E0
00E0
00E0
00E0
ENDCHAR
STARTCHAR 0490
ENCODING 1168
SWIDTH 510 0
DWIDTH 17 0
BBX 14 29 3 0
BITMAP
001C
001C
001C
001C
001C
FFFC
FFFC
E000
E000
E000
E000
E000
E000
E000
E000
E000
E000
E000
E000
E000
E000
E000
E000
E000
E000
E000
E000
E000
E000
ENDCHAR
STARTCHAR 0491
ENCODING 1169
SWIDTH 480 0
DWIDTH 16 0
BBX 13 22 3 0
BITMAP
0038
0038
0038
0038
FFF8
FFF8
E000
E000
E000
E000
E000
E000
E000
E000
E000
E000
E000
E000
E000
E000
E000
E000
ENDCHAR
STARTCHAR 0492
ENCODING 1170
SWIDTH 570 0
DWIDTH 19 0
BBX 18 24 0 0
BITMAP
0FFFC0
0FFFC0
0E0000
0E0000
0E0000
0E0000
0E0000
0E0000
0E0000
0E0000
0E0000
FFFC00
FFFC00
0E0000
0E0000
0E0000
0E0000
0E0000
0E0000
0E0000
0E0000
0E0000
0E0000
0E0000
ENDCHAR
STARTCHAR 0493
ENCODING 1171
SWIDTH 480 0
DWIDTH 16 0
BBX 14 18 1 0
BITMAP
3FFC
3FFC
3800
3800
3800
3800
3800
3800
FFC0
FFC0
3800
3800
3800
3800
3800
3800
3800
3800
ENDCHAR
STARTCHAR 0494
ENCODING 1172
SWIDTH 630 0
DWIDTH 21 0
BBX 17 29 3 -5
BITMAP
FFFE00
FFFE00
E00000
E00000
E00000
E00000
E00000
E00000
E00000
E00000
E00000
E7F000
FFFC00
FC1E00
F00F00
E00700
E00380
E00380
E00380
E00380
E00380
E00380
E00380
E00700
000700
000E00
003C00
03F800
03E000
ENDCHAR
STARTCHAR 0495
ENCODING 1173
SWIDTH 540 0
DWIDTH 18 0
BBX 13 23 3 -5
BITMAP
FFF0
FFF0
E000
E000
E000
E000
E000
E000
EF80
FFE0
F0F0
E070
E038
E038
E038
E038
E038
E038
0070
0070
00E0
07C0
0780
ENDCHAR
STARTCHAR 0496
ENCODING 1174
SWIDTH 870 0
DWIDTH 29 0
BBX 27 29 1 -5
BITMAP
701C0700
781C0F00
181C1C00
0C1C1800
0C1C3800
061C3000
061C3000
031C6000
031C6000
019CC000
01DDC000
00FF8000
03FFE000
079CF000
0F1C7800
0E1C3800
1C1C1C00
1C1C1C00
381C0E00
381C0E00
381C0700
701C07E0
701C03E0
E01C03E0
000000E0
000000E0
000000E0
000000E0
000000E0
ENDCHAR
STARTCHAR 0497
ENCODING 1175
SWIDTH 750 0
DWIDTH 25 0
BBX 25 22 1 -4
BITMAP
60380C00
70381C00
30381800
18383000
1C387000
0C386000
0638C000
0739C000
01FF0000
07FFE000
0E38F000
1E387000
1C387800
3C383800
38383C00
78381F80
70381F80
F0380F80
00000380
00000380
00000380
00000380
ENDCHAR
STARTCHAR 0498
ENCODING 1176
SWIDTH 540 0
DWIDTH 18 0
BBX 16 31 1 -7
BITMAP
3FC0
FFF8
C03C
001E
000E
000E
000E
000E
001C
003C
00F0
0FC0
0FF8
007C
001E
000F
0007
0007
0007
0007
000E
C03C
FFF8
3FC0
0180
0100
03C0
00E0
0060
0060
03C0
ENDCHAR
STARTCHAR 0499
ENCODING 1177
SWIDTH 480 0
DWIDTH 16 0
BBX 13 25 1 -7
BITMAP
7F80
FFE0
C1E0
0070
0070
0070
0070
01E0
0FC0
0FC0
00F0
0078
0038
0038
0078
C0F0
FFE0
3F80
0300
0200
0780
01C0
00C0
00C0
0780
ENDCHAR
STARTCHAR 049A
ENCODING 1178
SWIDTH 690 0
DWIDTH 23 0
BBX 19 29 3 -5
BITMAP
E00700
E00F00
E01C00
E01800
E03000
E03000
E07000
E06000
E06000
E0C000
E18000
FE0000
FFC000
E1E000
E0F000
E07800
E03800
E03C00
E01C00
E01E00
E00E00
E00700
E007E0
E003E0
0000E0
0000E0
0000E0
0000E0
0000E0
ENDCHAR
STARTCHAR 049B
ENCODING 1179
SWIDTH 570 0
DWIDTH 19 0
BBX 15 22 3 -4
BITMAP
E038
E078
E0E0
E0C0
E1C0
E180
E380
E700
FE00
FF00
E380
E3C0
E1C0
E0E0
E0F0
E07E
E07E
E03E
000E
000E
000E
000E
ENDCHAR
STARTCHAR 049C
ENCODING 1180
SWIDTH 720 0
DWIDTH 24 0
BBX 20 24 3 0
BITMAP
E000E0
E001E0
E00380
E00300
E30600
E30600
E30C00
E30C00
E31800
E33000
FFE000
FFF800
E33C00
E31E00
E30F00
E30700
E30780
E30380
E30380
E001C0
E001C0
E000E0
E000E0
E000F0
ENDCHAR
STARTCHAR 049D
ENCODING 1181
SWIDTH 660 0
DWIDTH 22 0
BBX 18 18 3 0
BITMAP
E00380
E00780
E00E00
E00C00
E30C00
E31800
E31800
E37000
FFC000
FFF000
E37800
E33C00
E31C00
E30E00
E30F00
E00700
E00380
E003C0
ENDCHAR
STARTCHAR 049E
ENCODING 1182
SWIDTH 660 0
DWIDTH 22 0
BBX 21 24 0 0
BITMAP
1C0070
1C00F0
1C01C0
FFC180
FFC300
1C0300
1C0600
1C0600
1C0E00
1C0C00
1C3800
1FC000
1FF800
1C3E00
1C1F00
1C0F00
1C0780
1C0380
1C01C0
1C01C0
1C00E0
1C00F0
1C0070
1C0078
ENDCHAR
STARTCHAR 049F
ENCODING 1183
SWIDTH 570 0
DWIDTH 19 0
BBX 17 26 1 0
BITMAP
1C0000
1C0000
1C0000
1C0000
1C0000
FFF000
FFF000
1C0000
1C0700
1C0F00
1C1C00
1C1800
1C1800
1C3000
1C3000
1C6000
1FC000
1FF000
1C7000
1C7800
1C3C00
1C1C00
1C1E00
1C0E00
1C0700
1C0780
ENDCHAR
STARTCHAR 04A0
ENCODING 1184
SWIDTH 720 0
DWIDTH 24 0
BBX 23 24 0 0
BITMAP
FF801C
FF803C
038070
038060
0380C0
0380C0
038180
038180
038380
038300
038600
03FC00
03FF00
038780
0383C0
0381C0
0381E0
0380E0
038070
038070
038038
03803C
03801C
03801E
ENDCHAR
STARTCHAR 04A1
ENCODING 1185
SWIDTH 630 0
DWIDTH 21 0
BBX 20 18 0 0
BITMAP
FF00E0
FF01E0
070180
070300
070300
070600
070600
070C00
07F800
07FE00
071E00
070F00
070780
070380
0703C0
0701C0
0700E0
0700F0
ENDCHAR
STARTCHAR 04A2
ENCODING 1186
SWIDTH 750 0
DWIDTH 25 0
BBX 21 29 3 -5
BITMAP
E001C0
E001C0
E001C0
E001C0
E001C0
E001C0
E001C0
E001C0
E001C0
E001C0
E001C0
FFFFC0
FFFFC0
E001C0
E001C0
E001C0
E001C0
E001C0
E001C0
E001C0
E001C0
E001C0
E001F8
E001F8
000038
000038
000038
000038
000038
ENDCHAR
STARTCHAR 04A3
ENCODING 1187
SWIDTH 660 0
DWIDTH 22 0
BBX 18 22 3 -4
BITMAP
E00E00
E00E00
E00E00
E00E00
E00E00
E00E00
E00E00
E00E00
FFFE00
FFFE00
E00E00
E00E00
E00E00
E00E00
E00E00
E00E00
E00FC0
E00FC0
0001C0
0001C0
0001C0
0001C0
ENDCHAR
STARTCHAR 04A4
ENCODING 1188
SWIDTH 840 0
DWIDTH 28 0
BBX 25 24 3 0
BITMAP
E000FF80
E000FF80
E000E000
E000E000
E000E000
E000E000
E000E000
E000E000
E000E000
E000E000
E000E000
FFFFE000
FFFFE000
E000E000
E000E000
E000E000
E000E000
E000E000
E000E000
E000E000
E000E000
E000E000
E000E000
E000E000
ENDCHAR
STARTCHAR 04A5
ENCODING 1189
SWIDTH 690 0
DWIDTH 23 0
BBX 20 18 3 0
BITMAP
E01FF0
E01FF0
E01C00
E01C00
E01C00
E01C00
E01C00
E01C00
FFFC00
FFFC00
E01C00
E01C00
E01C00
E01C00
E01C00
E01C00
E01C00
E01C00
ENDCHAR
STARTCHAR 04A6
ENCODING 1190
SWIDTH 1020 0
DWIDTH 34 0
BBX 30 29 3 -5
BITMAP
FFFF8000
FFFF8000
E0038000
E0038000
E0038000
E0038000
E0038000
E0038000
E0038000
E0038000
E0038000
E0039F80
E003FFE0
E003F0F0
E003C038
E0038038
E003801C
E003801C
E003801C
E003801C
E003801C
E003801C
E003801C
E0038038
00000038
00000070
000000E0
00000FC0
00000F00
ENDCHAR
STARTCHAR 04A7
ENCODING 1191
SWIDTH 870 0
DWIDTH 29 0
BBX 25 23 3 -5
BITMAP
FFFE0000
FFFE0000
E00E0000
E00E0000
E00E0000
E00E0000
E00E0000
E00E0000
E00EF800
E00FFE00
E00F0F00
E00E0700
E00E0380
E00E0380
E00E0380
E00E0380
E00E0380
E00E0380
00000700
00000700
00000E00
00007C00
00007800
ENDCHAR
STARTCHAR 04A8
ENCODING 1192
SWIDTH 780 0
DWIDTH 26 0
BBX 23 28 2 -4
BITMAP
00FE00
07FF00
0F0100
1C0000
380000
7803C0
700FF0
701C78
E01838
E0381C
E0301C
E0301C
E0301C
E0301C
E0301C
E0301C
703838
701838
781C70
380C70
1C0EE0
0F07C0
07FF80
00FFC0
0000E0
000078
00003E
00000E
ENDCHAR
STARTCHAR 04A9
ENCODING 1193
SWIDTH 600 0
DWIDTH 20 0
BBX 18 22 2 -4
BITMAP
07F000
1FF000
3C0000
783E00
707F00
E0E700
E1C380
E1C380
E1C380
E1C380
E1C380
E1C380
61C700
70E700
70EE00
3C7C00
1FF800
07F800
001C00
000F00
0007C0
0000C0
ENDCHAR
STARTCHAR 04AA
ENCODING 1194
SWIDTH 690 0
DWIDTH 23 0
BBX 19 31 2 -7
BITMAP
00FE00
07FFC0
0F01E0
1C0020
380000
780000
700000
700000
E00000
E00000
E00000
E00000
E00000
E00000
E00000
E00000
700000
700000
780000
380000
1E0020
0F01E0
07FFC0
01FE00
003000
002000
007800
001C00
000C00
000C00
007800
ENDCHAR
STARTCHAR 04AB
ENCODING 1195
SWIDTH 510 0
DWIDTH 17 0
BBX 13 25 2 -7
BITMAP
07F0
1FF8
3C18
7800
7000
F000
E000
E000
E000
E000
E000
E000
7000
7000
3800
3C08
1FF8
07E0
00C0
0080
01E0
0070
0030
0030
01E0
ENDCHAR
STARTCHAR 04AC
ENCODING 1196
SWIDTH 630 0
DWIDTH 21 0
BBX 21 29 0 -5
BITMAP
FFFFF8
FFFFF8
007000
007000
007000
007000
007000
007000
007000
007000
007000
007000
007000
007000
007000
007000
007000
007000
007000
007000
007000
007E00
007E00
007E00
000E00
000E00
000E00
000E00
000E00
ENDCHAR
STARTCHAR 04AD
ENCODING 1197
SWIDTH 480 0
DWIDTH 16 0
BBX 15 22 0 -4
BITMAP
FFFE
FFFE
0380
0380
0380
0380
0380
0380
0380
0380
0380
0380
0380
0380
0380
03F0
03F0
03F0
0070
0070
0070
0070
ENDCHAR
STARTCHAR 04AE
ENCODING 1198
SWIDTH 600 0
DWIDTH 20 0
BBX 20 24 0 0
BITMAP
F00070
700060
3800C0
380180
1C0380
1E0300
0E0600
070C00
070C00
039800
01F000
01F000
00E000
00E000
00E000
00E000
00E000
00E000
00E000
00E000
00E000
00E000
00E000
00E000
ENDCHAR
STARTCHAR 04AF
ENCODING 1199
SWIDTH 480 0
DWIDTH 16 0
BBX 15 18 0 0
BITMAP
F006
700C
3818
3818
1C30
1E60
0E60
07C0
0780
0380
0380
0380
0380
0380
0380
0380
0380
0380
ENDCHAR
STARTCHAR 04B0
ENCODING 1200
SWIDTH 630 0
DWIDTH 21 0
BBX 20 24 1 0
BITMAP
F00030
700060
3800C0
380180
1C0180
1E0300
0E0600
070C00
070C00
039800
03F000
01F000
00E000
00E000
00E000
00E000
3FFF80
3FFF80
00E000
00E000
00E000
00E000
00E000
00E000
ENDCHAR
STARTCHAR 04B1
ENCODING 1201
SWIDTH 480 0
DWIDTH 16 0
BBX 15 18 0 0
BITMAP
F006
700C
3818
3818
1C30
1E60
0E60
07C0
0780
0380
0380
0380
7FFC
7FFC
0380
0380
0380
0380
ENDCHAR
STARTCHAR 04B2
ENCODING 1202
SWIDTH 660 0
DWIDTH 22 0
BBX 20 29 1 -5
BITMAP
F00060
7000C0
380180
3C0380
1C0300
0E0600
0F0C00
070C00
039800
03F000
01F000
01E000
00F000
01F000
01F800
033800
061C00
061E00
0C0E00
180700
380780
3003F0
6001F0
C001F0
000070
000070
000070
000070
000070
ENDCHAR
STARTCHAR 04B3
ENCODING 1203
SWIDTH 630 0
DWIDTH 21 0
BBX 19 23 1 -5
BITMAP
F00180
780300
3C0600
1C0C00
0E1800
073000
07B000
03E000
01E000
01E000
037000
067800
063C00
0C1E00
180F00
3007E0
6003E0
C003E0
0000E0
0000E0
0000E0
0000E0
0000E0
ENDCHAR
STARTCHAR 04B4
ENCODING 1204
SWIDTH 900 0
DWIDTH 30 0
BBX 29 29 0 -5
BITMAP
FFFF81C0
FFFF81C0
01C001C0
01C001C0
01C001C0
01C001C0
01C001C0
01C001C0
01C001C0
01C001C0
01C001C0
01C001C0
01C001C0
01C001C0
01C001C0
01C001C0
01C001C0
01C001C0
01C001C0
01C001C0
01C001C0
01C001C0
01FFFFF8
01FFFFF8
00000038
00000038
00000038
00000038
00000038
ENDCHAR
STARTCHAR 04B5
ENCODING 1205
SWIDTH 720 0
DWIDTH 24 0
BBX 23 22 0 -4
BITMAP
FFF870
FFF870
070070
070070
070070
070070
070070
070070
070070
070070
070070
070070
070070
070070
070070
070070
07FFFE
07FFFE
00000E
00000E
00000E
00000E
ENDCHAR
STARTCHAR 04B6
ENCODING 1206
SWIDTH 660 0
DWIDTH 22 0
BBX 20 29 1 -5
BITMAP
E00380
E00380
E00380
E00380
E00380
E00380
E00380
E00380
E00380
E00380
E00380
700380
780F80
3FFF80
0FF380
000380
000380
000380
000380
000380
000380
000380
0003F0
0003F0
000070
000070
000070
000070
000070
ENDCHAR
STARTCHAR 04B7
ENCODING 1207
SWIDTH 540 0
DWIDTH 18 0
BBX 16 22 1 -4
BITMAP
E038
E038
E038
E038
E038
E038
E038
E038
7078
7FF8
1FB8
0038
0038
0038
0038
0038
003F
003F
0007
0007
0007
0007
ENDCHAR
STARTCHAR 04B8
ENCODING 1208
SWIDTH 630 0
DWIDTH 21 0
BBX 17 24 1 0
BITMAP
E00380
E00380
E00380
E00380
E00380
E00380
E00380
E0C380
E0C380
E0C380
E0C380
70C380
78C780
3FFF80
0FF380
00C380
00C380
00C380
00C380
00C380
000380
000380
000380
000380
ENDCHAR
STARTCHAR 04B9
ENCODING 1209
SWIDTH 540 0
DWIDTH 18 0
BBX 14 18 1 0
BITMAP
E01C
E01C
E01C
E01C
E31C
E31C
E31C
E31C
733C
7FFC
1FDC
031C
031C
031C
031C
001C
001C
001C
ENDCHAR
STARTCHAR 04BA
ENCODING 1210
SWIDTH 630 0
DWIDTH 21 0
BBX 17 24 3 0
BITMAP
E00000
E00000
E00000
E00000
E00000
E00000
E00000
E00000
E3F800
EFFE00
FC0F00
F00700
E00380
E00380
E00380
E00380
E00380
E00380
E00380
E00380
E00380
E00380
E00380
E00380
ENDCHAR
STARTCHAR 04BB
ENCODING 1211
SWIDTH 510 0
DWIDTH 17 0
BBX 13 18 3 0
BITMAP
E000
E000
E000
E000
E000
E000
EFC0
FFE0
F070
E038
E038
E038
E038
E038
E038
E038
E038
E038
ENDCHAR
STARTCHAR 04BC
ENCODING 1212
SWIDTH 840 0
DWIDTH 28 0
BBX 26 24 0 0
BITMAP
0003F800
000FFE00
001E0F00
00380700
00700380
E0F00380
E0E001C0
E0E001C0
E1E001C0
71C001C0
7FFFFFC0
1FFFFFC0
01C00000
01C00000
01C00000
01C00000
00E00000
00E00000
00F00000
00780000
003C0040
001F03C0
000FFF80
0001FC00
ENDCHAR
STARTCHAR 04BD
ENCODING 1213
SWIDTH 690 0
DWIDTH 23 0
BBX 21 18 0 0
BITMAP
001F80
007FE0
E0F0E0
E1C070
E1C030
E38038
F38038
7FFFF8
1FFFF8
038000
038000
038000
01C000
01C000
00E000
007818
003FF8
000FE0
ENDCHAR
STARTCHAR 04BE
ENCODING 1214
SWIDTH 840 0
DWIDTH 28 0
BBX 26 30 0 -6
BITMAP
0003F800
000FFE00
001E0F00
00380700
00700380
E0F00380
E0E001C0
E0E001C0
E1E001C0
71C001C0
7FFFFFC0
1FFFFFC0
01C00000
01C00000
01C00000
01C00000
00E00000
00E00000
00F00000
00780000
003C0040
001F03C0
000FFF80
0001BC00
0000C000
00018000
00018000
00018000
0001F800
0000F800
ENDCHAR
STARTCHAR 04BF
ENCODING 1215
SWIDTH 690 0
DWIDTH 23 0
BBX 21 24 0 -6
BITMAP
001F80
007FE0
E0F0E0
E1C070
E1C030
E38038
F38038
7FFFF8
1FFFF8
038000
038000
038000
01C000
01C000
00E000
007818
003FF8
000FE0
000400
000800
001800
001800
001F80
000F80
ENDCHAR
STARTCHAR 04C0
ENCODING 1216
SWIDTH 300 0
DWIDTH 10 0
BBX 3 24 3 0
BITMAP
E0
E0
E0
E0
E0
E0
E0
E0
E0
E0
E0
E0
E0
E0
E0
E0
E0
E0
E0
E0
E0
E0
E0
E0
ENDCHAR
STARTCHAR 04C1
ENCODING 1217
SWIDTH 810 0
DWIDTH 27 0
BBX 25 32 1 0
BITMAP
01C1C000
01C1C000
01C1C000
00E38000
00FF8000
003E0000
00000000
00000000
701C0700
781C0F00
181C1C00
0C1C1800
0C1C3800
061C3000
061C3000
031C6000
031C6000
019CC000
01DDC000
00FF8000
03FFE000
079CF000
0F1C7800
0E1C3800
1C1C1C00
1C1C1C00
381C0E00
381C0E00
381C0E00
701C0700
701C0700
E01C0380
ENDCHAR
STARTCHAR 04C2
ENCODING 1218
SWIDTH 720 0
DWIDTH 24 0
BBX 23 27 0 0
BITMAP
01C1C0
01C1C0
01C1C0
00E380
00FF80
003E00
000000
000000
000000
60380C
70381C
303818
183830
1C3870
0C3860
0638C0
0739C0
01FF00
07FFC0
0E38E0
1E38F0
1C3870
3C3878
383838
78383C
70381C
F0381E
ENDCHAR
STARTCHAR 04C3
ENCODING 1219
SWIDTH 630 0
DWIDTH 21 0
BBX 16 29 3 -5
BITMAP
E007
E00F
E01C
E018
E030
E030
E060
E060
E060
E0C0
E180
FF00
FFF0
E0F8
E03C
E01E
E00E
E007
E007
E007
E007
E007
E007
E00E
000E
001C
003C
01F8
01E0
ENDCHAR
STARTCHAR 04C4
ENCODING 1220
SWIDTH 540 0
DWIDTH 18 0
BBX 13 23 3 -5
BITMAP
E018
E038
E060
E040
E0C0
E0C0
E180
E380
FE00
FFC0
E1E0
E070
E070
E038
E038
E038
E038
E038
0030
0070
00E0
03E0
0380
ENDCHAR
STARTCHAR 04C7
ENCODING 1223
SWIDTH 720 0
DWIDTH 24 0
BBX 18 31 3 -7
BITMAP
E001C0
E001C0
E001C0
E001C0
E001C0
E001C0
E001C0
E001C0
E001C0
E001C0
E001C0
FFFFC0
FFFFC0
E001C0
E001C0
E001C0
E001C0
E001C0
E001C0
E001C0
E001C0
E001C0
E001C0
E001C0
0001C0
0001C0
0001C0
0001C0
000380
003F80
003F00
ENDCHAR
STARTCHAR 04C8
ENCODING 1224
SWIDTH 630 0
DWIDTH 21 0
BBX 15 25 3 -7
BITMAP
E00E
E00E
E00E
E00E
E00E
E00E
E00E
E00E
FFFE
FFFE
E00E
E00E
E00E
E00E
E00E
E00E
E00E
E00E
000E
000E
000E
000E
001C
01FC
01F0
ENDCHAR
STARTCHAR 04CB
ENCODING 1227
SWIDTH 630 0
DWIDTH 21 0
BBX 17 29 1 -5
BITMAP
E00380
E00380
E00380
E00380
E00380
E00380
E00380
E00380
E00380
E00380
E00380
700380
780F80
3FFF80
0FF380
000380
000380
000380
000380
000380
000380
000380
001F80
001F80
001C00
001C00
001C00
001C00
001C00
ENDCHAR
STARTCHAR 04CC
ENCODING 1228
SWIDTH 510 0
DWIDTH 17 0
BBX 13 22 1 -4
BITMAP
E038
E038
E038
E038
E038
E038
E038
E038
7078
7FF8
1FB8
0038
0038
0038
0038
0038
01F8
01F8
01C0
01C0
01C0
01C0
ENDCHAR
STARTCHAR 04D0
ENCODING 1232
SWIDTH 690 0
DWIDTH 23 0
BBX 22 32 0 0
BITMAP
038380
038380
038380
01C700
01FF00
007C00
000000
000000
003000
003000
007800
007800
00DC00
00DC00
00DE00
018E00
018E00
030700
030700
060380
060380
0603C0
0C01C0
0FFFC0
1FFFE0
1800E0
3000F0
300070
300078
600038
600038
C0001C
ENDCHAR
STARTCHAR 04D1
ENCODING 1233
SWIDTH 540 0
DWIDTH 18 0
BBX 16 27 2 0
BITMAP
3838
3838
3838
1C70
1FF0
07C0
0000
0000
0000
07C0
1FF0
3870
2038
0038
0038
0038
07F8
1FF8
7C38
7038
E038
E038
E038
E078
70DC
7F9F
1E0F
ENDCHAR
STARTCHAR 04D2
ENCODING 1234
SWIDTH 690 0
DWIDTH 23 0
BBX 22 29 0 0
BITMAP
038700
038700
038700
000000
000000
003000
003000
007800
007800
00DC00
00DC00
00DE00
018E00
018E00
030700
030700
060380
060380
0603C0
0C01C0
0FFFC0
1FFFE0
1800E0
3000F0
300070
300078
600038
600038
C0001C
ENDCHAR
STARTCHAR 04D3
ENCODING 1235
SWIDTH 540 0
DWIDTH 18 0
BBX 16 24 2 0
BITMAP
3870
3870
3870
0000
0000
0000
07C0
1FF0
3870
2038
0038
0038
0038
07F8
1FF8
7C38
7038
E038
E038
E038
E078
70DC
7F9F
1E0F
ENDCHAR
STARTCHAR 04D4
ENCODING 1236
SWIDTH 900 0
DWIDTH 30 0
BBX 29 24 0 0
BITMAP
0001FFF0
0003FFF0
0003C000
0007C000
000FC000
000DC000
0019C000
0019C000
0031C000
0061C000
0061C000
00C1FFE0
0181FFE0
0181C000
0301C000
07FFC000
07FFC000
0C01C000
1801C000
1801C000
3001C000
6001C000
6001FFF8
C001FFF8
ENDCHAR
STARTCHAR 04D5
ENCODING 1237
SWIDTH 840 0
DWIDTH 28 0
BBX 24 18 2 0
BITMAP
07C3F0
1FFFFC
387E1C
203C0E
003C06
003807
003807
07FFFF
1FFFFF
7C3800
703800
E03800
E03C00
E03C00
E03E00
70EF03
7F87FF
1F01FC
ENDCHAR
STARTCHAR 04D6
ENCODING 1238
SWIDTH 540 0
DWIDTH 18 0
BBX 14 32 3 0
BITMAP
3838
3838
3838
1C70
1FF0
07C0
0000
0000
FFF8
FFF8
E000
E000
E000
E000
E000
E000
E000
E000
E000
FFF0
FFF0
E000
E000
E000
E000
E000
E000
E000
E000
E000
FFFC
FFFC
ENDCHAR
STARTCHAR 04D7
ENCODING 1239
SWIDTH 540 0
DWIDTH 18 0
BBX 14 27 2 0
BITMAP
3838
3838
3838
1C70
1FF0
07C0
0000
0000
0000
07C0
1FF0
3878
7038
701C
E01C
E01C
FFFC
FFFC
E000
E000
E000
7000
7000
3800
3E0C
0FFC
03F0
ENDCHAR
STARTCHAR 04D8
ENCODING 1240
SWIDTH 660 0
DWIDTH 22 0
BBX 18 24 2 0
BITMAP
1FE000
7FF800
F03C00
800E00
000700
000780
000380
000380
0001C0
0001C0
0001C0
FFFFC0
FFFFC0
E001C0
E003C0
E003C0
E00380
600380
700780
700700
380E00
3C3E00
1FF800
07E000
ENDCHAR
STARTCHAR 04D9
ENCODING 1241
SWIDTH 540 0
DWIDTH 18 0
BBX 14 18 2 0
BITMAP
3F00
FFC0
C0F0
0070
0038
0038
001C
001C
FFFC
FFFC
E01C
E01C
E03C
6038
7038
3870
3FE0
0F80
ENDCHAR
STARTCHAR 04DA
ENCODING 1242
SWIDTH 660 0
DWIDTH 22 0
BBX 18 29 2 0
BITMAP
387000
387000
387000
000000
000000
1FE000
7FF800
F03C00
800E00
000700
000780
000380
000380
0001C0
0001C0
0001C0
FFFFC0
FFFFC0
E001C0
E003C0
E003C0
E00380
600380
700780
700700
380E00
3C3E00
1FF800
07E000
ENDCHAR
STARTCHAR 04DB
ENCODING 1243
SWIDTH 540 0
DWIDTH 18 0
BBX 14 24 2 0
BITMAP
70E0
70E0
70E0
0000
0000
0000
3F00
FFC0
C0F0
0070
0038
0038
001C
001C
FFFC
FFFC
E01C
E01C
E03C
6038
7038
3870
3FE0
0F80
ENDCHAR
STARTCHAR 04DC
ENCODING 1244
SWIDTH 810 0
DWIDTH 27 0
BBX 25 29 1 0
BITMAP
01C38000
01C38000
01C38000
00000000
00000000
701C0700
781C0F00
181C1C00
0C1C1800
0C1C3800
061C3000
061C3000
031C6000
031C6000
019CC000
01DDC000
00FF8000
03FFE000
079CF000
0F1C7800
0E1C3800
1C1C1C00
1C1C1C00
381C0E00
381C0E00
381C0E00
701C0700
701C0700
E01C0380
ENDCHAR
STARTCHAR 04DD
ENCODING 1245
SWIDTH 720 0
DWIDTH 24 0
BBX 23 24 0 0
BITMAP
01C380
01C380
01C380
000000
000000
000000
60380C
70381C
303818
183830
1C3870
0C3860
0638C0
0739C0
01FF00
07FFC0
0E38E0
1E38F0
1C3870
3C3878
383838
78383C
70381C
F0381E
ENDCHAR
STARTCHAR 04DE
ENCODING 1246
SWIDTH 540 0
DWIDTH 18 0
BBX 16 29 1 0
BITMAP
70E0
70E0
70E0
0000
0000
3FC0
FFF8
C03C
001E
000E
000E
000E
000E
001C
003C
00F0
0FC0
0FF8
007C
001E
000F
0007
0007
0007
0007
000E
C03C
FFF8
3FC0
ENDCHAR
STARTCHAR 04DF
ENCODING 1247
SWIDTH 480 0
DWIDTH 16 0
BBX 13 24 1 0
BITMAP
70E0
70E0
70E0
0000
0000
0000
7F80
FFE0
C1E0
0070
0070
0070
0070
01E0
0FC0
0FC0
00F0
0078
0038
0038
0078
C0F0
FFE0
3F80
ENDCHAR
STARTCHAR 04E0
ENCODING 1248
SWIDTH 540 0
DWIDTH 18 0
BBX 14 24 2 0
BITMAP
FFF8
FFF8
0038
0070
00C0
0180
0300
0600
0C00
1800
3F80
3FE0
00F0
0078
0038
001C
001C
001C
001C
003C
0038
C0F0
FFE0
3F80
ENDCHAR
STARTCHAR 04E1
ENCODING 1249
SWIDTH 510 0
DWIDTH 17 0
BBX 14 24 1 -6
BITMAP
FFF8
FFF8
0030
0060
00C0
0180
0300
0600
0C00
1800
3E00
3FC0
03F0
0078
0038
001C
001C
001C
001C
001C
0038
C0F0
FFE0
3F80
ENDCHAR
STARTCHAR 04E2
ENCODING 1250
SWIDTH 720 0
DWIDTH 24 0
BBX 18 28 3 0
BITMAP
0FFC00
0FFC00
000000
000000
E001C0
E003C0
E003C0
E007C0
E00FC0
E00DC0
E019C0
E019C0
E031C0
E071C0
E061C0
E0C1C0
E0C1C0
E181C0
E381C0
E301C0
E601C0
E601C0
EC01C0
FC01C0
F801C0
F001C0
F001C0
E001C0
ENDCHAR
STARTCHAR 04E3
ENCODING 1251
SWIDTH 630 0
DWIDTH 21 0
BBX 15 23 3 0
BITMAP
3FF0
3FF0
0000
0000
0000
E00E
E01E
E03E
E03E
E06E
E06E
E0CE
E18E
E18E
E30E
E30E
E60E
EC0E
EC0E
F80E
F80E
F00E
F00E
ENDCHAR
STARTCHAR 04E4
ENCODING 1252
SWIDTH 720 0
DWIDTH 24 0
BBX 18 29 3 0
BITMAP
0E1C00
0E1C00
0E1C00
000000
000000
E001C0
E003C0
E003C0
E007C0
E00FC0
E00DC0
E019C0
E019C0
E031C0
E071C0
E061C0
E0C1C0
E0C1C0
E181C0
E381C0
E301C0
E601C0
E601C0
EC01C0
FC01C0
F801C0
F001C0
F001C0
E001C0
ENDCHAR
STARTCHAR 04E5
ENCODING 1253
SWIDTH 630 0
DWIDTH 21 0
BBX 15 24 3 0
BITMAP
3870
3870
3870
0000
0000
0000
E00E
E01E
E03E
E03E
E06E
E06E
E0CE
E18E
E18E
E30E
E30E
E60E
EC0E
EC0E
F80E
F80E
F00E
F00E
ENDCHAR
STARTCHAR 04E6
ENCODING 1254
SWIDTH 780 0
DWIDTH 26 0
BBX 22 29 2 0
BITMAP
038700
038700
038700
000000
000000
01FE00
07FF80
0F03C0
1C00E0
380070
780078
700038
700038
E0001C
E0001C
E0001C
E0001C
E0001C
E0001C
E0001C
E0001C
700038
700038
780078
380070
1C00E0
0F03C0
07FF80
01FE00
ENDCHAR
STARTCHAR 04E7
ENCODING 1255
SWIDTH 600 0
DWIDTH 20 0
BBX 16 24 2 0
BITMAP
1C38
1C38
1C38
0000
0000
0000
07E0
1FF8
3C3C
700E
700E
E007
E007
E007
E007
E007
E007
E007
E007
700E
700E
3C3C
1FF8
07E0
ENDCHAR
STARTCHAR 04E8
ENCODING 1256
SWIDTH 780 0
DWIDTH 26 0
BBX 22 24 2 0
BITMAP
01FE00
07FF80
0F03C0
1C00E0
380070
700078
700038
700038
E0001C
E0001C
E0001C
FFFFFC
FFFFFC
E0001C
E0001C
E0001C
700038
700038
780078
380070
1C00E0
0F03C0
07FF80
01FE00
ENDCHAR
STARTCHAR 04E9
ENCODING 1257
SWIDTH 600 0
DWIDTH 20 0
BBX 16 18 2 0
BITMAP
07E0
1FF8
3C3C
781E
700E
F00F
E007
E007
FFFF
FFFF
E007
E007
E007
700E
700E
3C3C
1FF8
07E0
ENDCHAR
STARTCHAR 04EA
ENCODING 1258
SWIDTH 780 0
DWIDTH 26 0
BBX 22 29 2 0
BITMAP
038700
038700
038700
000000
000000
01FE00
07FF80
0F03C0
1C00E0
380070
700078
700038
700038
E0001C
E0001C
E0001C
FFFFFC
FFFFFC
E0001C
E0001C
E0001C
700038
700038
780078
380070
1C00E0
0F03C0
07FF80
01FE00
ENDCHAR
STARTCHAR 04EB
ENCODING 1259
SWIDTH 600 0
DWIDTH 20 0
BBX 16 24 2 0
BITMAP
1C38
1C38
1C38
0000
0000
0000
07E0
1FF8
3C3C
781E
700E
F00F
E007
E007
FFFF
FFFF
E007
E007
E007
700E
700E
3C3C
1FF8
07E0
ENDCHAR
STARTCHAR 04EE
ENCODING 1262
SWIDTH 630 0
DWIDTH 21 0
BBX 20 28 1 0
BITMAP
07FE00
07FE00
000000
000000
F00030
700060
7800E0
3800C0
3C01C0
1C0180
0E0300
0E0300
070600
070600
038C00
03DC00
01D800
01F800
00F000
00E000
006000
00C000
00C000
018000
038000
070000
7E0000
780000
ENDCHAR
STARTCHAR 04EF
ENCODING 1263
SWIDTH 540 0
DWIDTH 18 0
BBX 17 29 1 -6
BITMAP
1FF800
1FF800
000000
000000
000000
C00180
600300
600300
300600
300600
380E00
180C00
181C00
0C1800
0C1800
063000
063000
036000
036000
01E000
01C000
01C000
018000
018000
030000
070000
0E0000
7C0000
780000
ENDCHAR
STARTCHAR 04F0
ENCODING 1264
SWIDTH 630 0
DWIDTH 21 0
BBX 20 29 1 0
BITMAP
070E00
070E00
070E00
000000
000000
F00030
700060
7800E0
3800C0
3C01C0
1C0180
0E0300
0E0300
070600
070600
038C00
03DC00
01D800
01F800
00F000
00E000
006000
00C000
00C000
018000
038000
070000
7E0000
780000
ENDCHAR
STARTCHAR 04F1
ENCODING 1265
SWIDTH 540 0
DWIDTH 18 0
BBX 17 30 1 -6
BITMAP
1C3800
1C3800
1C3800
000000
000000
000000
C00180
600300
600300
300600
300600
380E00
180C00
181C00
0C1800
0C1800
063000
063000
036000
036000
01E000
01C000
01C000
018000
018000
030000
070000
0E0000
7C0000
780000
ENDCHAR
STARTCHAR 04F2
ENCODING 1266
SWIDTH 630 0
DWIDTH 21 0
BBX 20 31 1 0
BITMAP
0038E0
0071C0
00E380
01C700
038E00
000000
000000
F00030
700060
7800E0
3800C0
3C01C0
1C0180
0E0300
0E0300
070600
070600
038C00
03DC00
01D800
01F800
00F000
00E000
006000
00C000
00C000
018000
038000
070000
7E0000
780000
ENDCHAR
STARTCHAR 04F3
ENCODING 1267
SWIDTH 540 0
DWIDTH 18 0
BBX 17 32 1 -6
BITMAP
00E380
01C700
038E00
071C00
0E3800
000000
000000
000000
C00180
600300
600300
300600
300600
380E00
180C00
181C00
0C1800
0C1800
063000
063000
036000
036000
01E000
01C000
01C000
018000
018000
030000
070000
0E0000
7C0000
780000
ENDCHAR
STARTCHAR 04F4
ENCODING 1268
SWIDTH 630 0
DWIDTH 21 0
BBX 17 29 1 0
BITMAP
1C3800
1C3800
1C3800
000000
000000
E00380
E00380
E00380
E00380
E00380
E00380
E00380
E00380
E00380
E00380
E00380
700380
780F80
3FFF80
0FF380
000380
000380
000380
000380
000380
000380
000380
000380
000380
ENDCHAR
STARTCHAR 04F5
ENCODING 1269
SWIDTH 510 0
DWIDTH 17 0
BBX 13 24 1 0
BITMAP
3870
3870
3870
0000
0000
0000
E038
E038
E038
E038
E038
E038
E038
E038
7078
7FF8
1FB8
0038
0038
0038
0038
0038
0038
0038
ENDCHAR
STARTCHAR 04F8
ENCODING 1272
SWIDTH 810 0
DWIDTH 27 0
BBX 21 29 3 0
BITMAP
070E00
070E00
070E00
000000
000000
E00038
E00038
E00038
E00038
E00038
E00038
E00038
E00038
E00038
E00038
E00038
FFC038
FFF838
E07C38
E01C38
E00E38
E00E38
E00E38
E00E38
E01E38
E01C38
E07838
FFF038
FFC038
ENDCHAR
STARTCHAR 04F9
ENCODING 1273
SWIDTH 720 0
DWIDTH 24 0
BBX 18 24 3 0
BITMAP
0E1C00
0E1C00
0E1C00
000000
000000
000000
E001C0
E001C0
E001C0
E001C0
E001C0
E001C0
E001C0
E001C0
FF01C0
FFC1C0
E1E1C0
E071C0
E071C0
E071C0
E071C0
E1E1C0
FFC1C0
FF01C0
ENDCHAR
STARTCHAR 0591
ENCODING 1425
SWIDTH 0 0
DWIDTH 0 0
BBX 8 6 6 -8
BITMAP
18
18
3C
66
C3
C3
ENDCHAR
STARTCHAR 0592
ENCODING 1426
SWIDTH 0 0
DWIDTH 0 0
BBX 6 6 6 21
BITMAP
30
30
00
00
CC
CC
ENDCHAR
STARTCHAR 0593
ENCODING 1427
SWIDTH 0 0
DWIDTH 0 0
BBX 7 9 6 21
BITMAP
0E
F0
C0
30
0E
70
C0
F0
0E
ENDCHAR
STARTCHAR 0594
ENCODING 1428
SWIDTH 0 0
DWIDTH 0 0
BBX 2 6 8 21
BITMAP
C0
C0
00
00
C0
C0
ENDCHAR
STARTCHAR 0595
ENCODING 1429
SWIDTH 0 0
DWIDTH 0 0
BBX 6 6 6 21
BITMAP
CC
CC
C0
C0
CC
CC
ENDCHAR
STARTCHAR 0596
ENCODING 1430
SWIDTH 0 0
DWIDTH 0 0
BBX 6 6 8 -8
BITMAP
C0
C0
C0
E0
7C
3C
ENDCHAR
STARTCHAR 0597
ENCODING 1431
SWIDTH 0 0
DWIDTH 0 0
BBX 4 4 7 21
BITMAP
40
F0
F0
40
ENDCHAR
STARTCHAR 0598
ENCODING 1432
SWIDTH 0 0
DWIDTH 0 0
BBX 8 6 6 21
BITMAP
71
F1
99
99
8F
8E
ENDCHAR
STARTCHAR 0599
ENCODING 1433
SWIDTH 0 0
DWIDTH 0 0
BBX 6 8 0 21
BITMAP
F0
F8
1C
0C
0C
0C
0C
0C
ENDCHAR
STARTCHAR 059A
ENCODING 1434
SWIDTH 0 0
DWIDTH 0 0
BBX 8 7 9 -9
BITMAP
01
07
3C
E0
3C
07
01
ENDCHAR
STARTCHAR 059B
ENCODING 1435
SWIDTH 0 0
DWIDTH 0 0
BBX 7 6 7 -8
BITMAP
C6
C6
06
0E
7C
78
ENDCHAR
STARTCHAR 059C
ENCODING 1436
SWIDTH 0 0
DWIDTH 0 0
BBX 6 8 8 21
BITMAP
3C
7C
E0
C0
C0
C0
C0
C0
ENDCHAR
STARTCHAR 059D
ENCODING 1437
SWIDTH 0 0
DWIDTH 0 0
BBX 6 8 14 21
BITMAP
3C
7C
E0
C0
C0
C0
C0
C0
ENDCHAR
STARTCHAR 059E
ENCODING 1438
SWIDTH 0 0
DWIDTH 0 0
BBX 9 8 6 21
BITMAP
7380
7380
C600
C600
C600
C600
C600
C600
ENDCHAR
STARTCHAR 059F
ENCODING 1439
SWIDTH 0 0
DWIDTH 0 0
BBX 18 9 1 21
BITMAP
380700
7C0F80
C618C0
C618C0
C618C0
7E1F80
3F3F00
03F000
012000
ENDCHAR
STARTCHAR 05A0
ENCODING 1440
SWIDTH 0 0
DWIDTH 0 0
BBX 9 9 6 21
BITMAP
0E00
1F00
3180
3180
3180
3F00
7E00
E000
4000
ENDCHAR
STARTCHAR 05A1
ENCODING 1441
SWIDTH 0 0
DWIDTH 0 0
BBX 7 8 3 21
BITMAP
C6
C6
C6
C6
FC
F8
C0
C0
ENDCHAR
STARTCHAR 05A3
ENCODING 1443
SWIDTH 0 0
DWIDTH 0 0
BBX 7 6 6 -8
BITMAP
06
06
06
06
FE
FE
ENDCHAR
STARTCHAR 05A4
ENCODING 1444
SWIDTH 0 0
DWIDTH 0 0
BBX 8 7 5 -9
BITMAP
01
07
3C
E0
3C
07
01
ENDCHAR
STARTCHAR 05A5
ENCODING 1445
SWIDTH 0 0
DWIDTH 0 0
BBX 6 6 6 -8
BITMAP
0C
0C
0C
1C
F8
F0
ENDCHAR
STARTCHAR 05A6
ENCODING 1446
SWIDTH 0 0
DWIDTH 0 0
BBX 9 6 5 -8
BITMAP
3180
3180
3180
3180
E700
E700
ENDCHAR
STARTCHAR 05A7
ENCODING 1447
SWIDTH 0 0
DWIDTH 0 0
BBX 5 6 7 -8
BITMAP
78
80
E0
38
08
F0
ENDCHAR
STARTCHAR 05A8
ENCODING 1448
SWIDTH 0 0
DWIDTH 0 0
BBX 6 8 7 21
BITMAP
F0
F8
1C
0C
0C
0C
0C
0C
ENDCHAR
STARTCHAR 05A9
ENCODING 1449
SWIDTH 0 0
DWIDTH 0 0
BBX 9 9 0 21
BITMAP
3800
7C00
C600
C600
C600
7E00
3F00
0380
0100
ENDCHAR
STARTCHAR 05AA
ENCODING 1450
SWIDTH 0 0
DWIDTH 0 0
BBX 8 6 6 -8
BITMAP
C3
C3
66
3C
18
18
ENDCHAR
STARTCHAR 05AB
ENCODING 1451
SWIDTH 0 0
DWIDTH 0 0
BBX 8 7 5 21
BITMAP
01
07
3C
E0
3C
07
01
ENDCHAR
STARTCHAR 05AC
ENCODING 1452
SWIDTH 0 0
DWIDTH 0 0
BBX 7 6 7 21
BITMAP
06
06
06
06
FE
FE
ENDCHAR
STARTCHAR 05AD
ENCODING 1453
SWIDTH 0 0
DWIDTH 0 0
BBX 6 6 14 -8
BITMAP
C0
C0
C0
E0
7C
3C
ENDCHAR
STARTCHAR 05AE
ENCODING 1454
SWIDTH 0 0
DWIDTH 0 0
BBX 8 6 -4 21
BITMAP
71
F1
99
99
8F
8E
ENDCHAR
STARTCHAR 05AF
ENCODING 1455
SWIDTH 0 0
DWIDTH 0 0
BBX 7 7 5 21
BITMAP
38
44
82
82
82
44
38
ENDCHAR
STARTCHAR 05B0
ENCODING 1456
SWIDTH 0 0
DWIDTH 0 0
BBX 2 6 9 -8
BITMAP
C0
C0
00
00
C0
C0
ENDCHAR
STARTCHAR 05B1
ENCODING 1457
SWIDTH 0 0
DWIDTH 0 0
BBX 10 6 5 -8
BITMAP
CCC0
CCC0
0000
0000
30C0
30C0
ENDCHAR
STARTCHAR 05B2
ENCODING 1458
SWIDTH 0 0
DWIDTH 0 0
BBX 13 6 4 -8
BITMAP
FF98
FF98
0000
0000
0018
0018
ENDCHAR
STARTCHAR 05B3
ENCODING 1459
SWIDTH 0 0
DWIDTH 0 0
BBX 14 6 4 -8
BITMAP
FFCC
FFCC
0C00
0C00
0C0C
0C0C
ENDCHAR
STARTCHAR 05B4
ENCODING 1460
SWIDTH 0 0
DWIDTH 0 0
BBX 2 2 9 -4
BITMAP
C0
C0
ENDCHAR
STARTCHAR 05B5
ENCODING 1461
SWIDTH 0 0
DWIDTH 0 0
BBX 6 2 7 -4
BITMAP
CC
CC
ENDCHAR
STARTCHAR 05B6
ENCODING 1462
SWIDTH 0 0
DWIDTH 0 0
BBX 6 6 7 -8
BITMAP
CC
CC
00
00
30
30
ENDCHAR
STARTCHAR 05B7
ENCODING 1463
SWIDTH 0 0
DWIDTH 0 0
BBX 9 2 6 -4
BITMAP
FF80
FF80
ENDCHAR
STARTCHAR 05B8
ENCODING 1464
SWIDTH 0 0
DWIDTH 0 0
BBX 10 6 6 -8
BITMAP
FFC0
FFC0
0C00
0C00
0C00
0C00
ENDCHAR
STARTCHAR 05B9
ENCODING 1465
SWIDTH 0 0
DWIDTH 0 0
BBX 2 2 -1 21
BITMAP
C0
C0
ENDCHAR
STARTCHAR 05BB
ENCODING 1467
SWIDTH 0 0
DWIDTH 0 0
BBX 10 6 6 -8
BITMAP
C000
C000
0C00
0C00
00C0
00C0
ENDCHAR
STARTCHAR 05BC
ENCODING 1468
SWIDTH 0 0
DWIDTH 0 0
BBX 2 2 8 9
BITMAP
C0
C0
ENDCHAR
STARTCHAR 05BD
ENCODING 1469
SWIDTH 0 0
DWIDTH 0 0
BBX 2 6 9 -8
BITMAP
C0
C0
C0
C0
C0
C0
ENDCHAR
STARTCHAR 05BE
ENCODING 1470
SWIDTH 330 0
DWIDTH 11 0
BBX 7 3 2 16
BITMAP
7E
FE
FC
ENDCHAR
STARTCHAR 05BF
ENCODING 1471
SWIDTH 0 0
DWIDTH 0 0
BBX 9 2 4 21
BITMAP
FF80
FF80
ENDCHAR
STARTCHAR 05C0
ENCODING 1472
SWIDTH 240 0
DWIDTH 8 0
BBX 2 19 3 0
BITMAP
C0
C0
C0
C0
C0
C0
C0
C0
C0
C0
C0
C0
C0
C0
C0
C0
C0
C0
C0
ENDCHAR
STARTCHAR 05C1
ENCODING 1473
SWIDTH 0 0
DWIDTH 0 0
BBX 2 2 20 21
BITMAP
C0
C0
ENDCHAR
STARTCHAR 05C2
ENCODING 1474
SWIDTH 0 0
DWIDTH 0 0
BBX 2 2 2 21
BITMAP
C0
C0
ENDCHAR
STARTCHAR 05C3
ENCODING 1475
SWIDTH 240 0
DWIDTH 8 0
BBX 4 19 2 0
BITMAP
F0
F0
F0
F0
00
00
00
00
00
00
00
00
00
00
00
F0
F0
F0
F0
ENDCHAR
STARTCHAR 05C4
ENCODING 1476
SWIDTH 0 0
DWIDTH 0 0
BBX 2 2 8 21
BITMAP
C0
C0
ENDCHAR
STARTCHAR 05D0
ENCODING 1488
SWIDTH 630 0
DWIDTH 21 0
BBX 17 19 2 0
BITMAP
200700
700700
F80700
3C0700
1E0600
0F0E00
1F8E00
3BDC00
31F800
30F000
707800
607C00
603C00
E01E00
E00F00
E00700
E00780
E00300
E00200
ENDCHAR
STARTCHAR 05D1
ENCODING 1489
SWIDTH 570 0
DWIDTH 19 0
BBX 18 19 0 0
BITMAP
3FF000
3FFE00
7FFE00
000F00
000700
000700
000700
000700
000700
000700
000700
000700
000700
000700
000700
000700
7FFFC0
7FFF80
FFFF80
ENDCHAR
STARTCHAR 05D2
ENCODING 1490
SWIDTH 420 0
DWIDTH 14 0
BBX 11 19 1 0
BITMAP
1000
1C00
3F00
0F00
0700
0780
0380
0380
0380
0380
0380
0380
07C0
0FC0
1FC0
7DC0
F1C0
60E0
40E0
ENDCHAR
STARTCHAR 05D3
ENCODING 1491
SWIDTH 510 0
DWIDTH 17 0
BBX 17 19 0 0
BITMAP
7FFF80
7FFF80
FFFF00
001C00
001C00
001C00
001C00
001C00
001C00
001C00
001C00
001C00
001C00
001C00
001C00
001C00
001C00
001C00
001C00
ENDCHAR
STARTCHAR 05D4
ENCODING 1492
SWIDTH 720 0
DWIDTH 24 0
BBX 19 19 2 0
BITMAP
7FFF00
7FFFC0
FFFFC0
0001E0
0000E0
0000E0
0000E0
0000E0
3800E0
3800E0
3800E0
3800E0
3800E0
3800E0
3800E0
3800E0
3800E0
3800E0
3800E0
ENDCHAR
STARTCHAR 05D5
ENCODING 1493
SWIDTH 330 0
DWIDTH 11 0
BBX 8 19 0 0
BITMAP
70
7C
FE
3E
0F
07
07
07
07
07
07
07
07
07
07
07
07
07
07
ENDCHAR
STARTCHAR 05D6
ENCODING 1494
SWIDTH 330 0
DWIDTH 11 0
BBX 10 19 0 0
BITMAP
4000
F000
FC00
3F00
0FC0
1FC0
1D80
3800
3800
3800
3800
3800
3800
3800
3800
3800
3800
3800
3800
ENDCHAR
STARTCHAR 05D7
ENCODING 1495
SWIDTH 720 0
DWIDTH 24 0
BBX 19 19 2 0
BITMAP
7FFF00
7FFFC0
FFFFC0
3801E0
3800E0
3800E0
3800E0
3800E0
3800E0
3800E0
3800E0
3800E0
3800E0
3800E0
3800E0
3800E0
3800E0
3800E0
3800E0
ENDCHAR
STARTCHAR 05D8
ENCODING 1496
SWIDTH 630 0
DWIDTH 21 0
BBX 17 19 2 0
BITMAP
607C00
E07E00
E0FF00
E00F00
E00780
E00380
E00380
600380
700380
700380
700700
700700
700E00
701C00
703C00
31F800
3FE000
3F8000
3C0000
ENDCHAR
STARTCHAR 05D9
ENCODING 1497
SWIDTH 300 0
DWIDTH 10 0
BBX 7 12 0 7
BITMAP
60
78
FC
3E
0E
0E
0E
0E
0E
0E
1C
1C
ENDCHAR
STARTCHAR 05DA
ENCODING 1498
SWIDTH 510 0
DWIDTH 17 0
BBX 14 24 0 -5
BITMAP
7FFC
7FFC
FFFC
001C
001C
001C
001C
001C
001C
001C
001C
001C
001C
001C
001C
001C
001C
001C
001C
001C
001C
001C
001C
001C
ENDCHAR
STARTCHAR 05DB
ENCODING 1499
SWIDTH 570 0
DWIDTH 19 0
BBX 15 19 1 0
BITMAP
3FE0
3FF8
7FF8
007C
001C
001E
000E
000E
000E
000E
000E
000E
001C
001C
001C
0038
7FF8
FFF8
FFF0
ENDCHAR
STARTCHAR 05DC
ENCODING 1500
SWIDTH 540 0
DWIDTH 18 0
BBX 14 26 2 0
BITMAP
6000
E000
E000
E000
E000
E000
E000
FFE0
FFF8
FFFC
007C
001C
001C
001C
001C
0018
0038
0038
0070
0060
00E0
03C0
0F80
3E00
3C00
6000
ENDCHAR
STARTCHAR 05DD
ENCODING 1501
SWIDTH 690 0
DWIDTH 23 0
BBX 18 19 2 0
BITMAP
7FFE00
7FFF80
FFFF80
3803C0
3801C0
3801C0
3801C0
3801C0
3801C0
3801C0
3801C0
3801C0
3801C0
3801C0
3801C0
3801C0
3FFFC0
3FFF80
3FFF80
ENDCHAR
STARTCHAR 05DE
ENCODING 1502
SWIDTH 690 0
DWIDTH 23 0
BBX 19 19 1 0
BITMAP
203E00
F0FF00
79FF80
3BC780
1F83C0
0F01C0
0F01C0
0E01C0
0E01C0
0E00E0
1C00E0
1C00E0
1C00E0
1C00E0
3800E0
3800E0
383FE0
707FE0
707FC0
ENDCHAR
STARTCHAR 05DF
ENCODING 1503
SWIDTH 300 0
DWIDTH 10 0
BBX 7 24 0 -5
BITMAP
60
70
FC
3E
1E
0E
0E
0E
0E
0E
0E
0E
0E
0E
0E
0E
0E
0E
0E
0E
0E
0E
0E
0E
ENDCHAR
STARTCHAR 05E0
ENCODING 1504
SWIDTH 420 0
DWIDTH 14 0
BBX 11 19 0 0
BITMAP
0600
0700
0FC0
03E0
01E0
00E0
00E0
00E0
00E0
00E0
00E0
00E0
00E0
00E0
00E0
00E0
7FE0
7FC0
FFC0
ENDCHAR
STARTCHAR 05E1
ENCODING 1505
SWIDTH 660 0
DWIDTH 22 0
BBX 20 19 0 0
BITMAP
7FFF80
7FFFE0
FFFFF0
3800F0
380070
380070
380070
1C0070
1C0060
1C00E0
1C00E0
1C01C0
1C03C0
1C0780
1C0F00
0E3E00
0FF800
0FF000
0F0000
ENDCHAR
STARTCHAR 05E2
ENCODING 1506
SWIDTH 600 0
DWIDTH 20 0
BBX 19 21 -1 -2
BITMAP
0C00E0
1C00E0
1C00E0
0E00E0
0E00E0
0E00E0
0E00E0
0701C0
0701C0
0701C0
070180
038380
038700
038F00
03DE00
01FC00
01F800
07E000
7FC000
7F0000
F00000
ENDCHAR
STARTCHAR 05E3
ENCODING 1507
SWIDTH 510 0
DWIDTH 17 0
BBX 14 24 0 -5
BITMAP
3000
3F00
7FE0
7FF8
E1FC
E03C
E01C
F01C
FC1C
781C
381C
001C
001C
001C
001C
001C
001C
001C
001C
001C
001C
001C
001C
001C
ENDCHAR
STARTCHAR 05E4
ENCODING 1508
SWIDTH 570 0
DWIDTH 19 0
BBX 15 19 1 0
BITMAP
1800
1F80
3FF0
3FFC
70FE
701E
700E
780E
7E0E
3C0E
1C0E
000E
000E
000E
000E
000E
7FFE
7FFC
FFFC
ENDCHAR
STARTCHAR 05E5
ENCODING 1509
SWIDTH 480 0
DWIDTH 16 0
BBX 15 24 0 -5
BITMAP
600E
F00E
700E
700E
381C
381C
1C3C
1C78
0E70
0FE0
0FC0
0780
0700
0700
0700
0700
0700
0700
0700
0700
0700
0700
0700
0700
ENDCHAR
STARTCHAR 05E6
ENCODING 1510
SWIDTH 570 0
DWIDTH 19 0
BBX 17 19 0 0
BITMAP
100380
780380
380380
3C0380
1C0300
1E0700
0E0700
070E00
079C00
03FC00
01F800
00F000
00F800
007C00
001E00
000F00
7FFF80
7FFF00
FFFF00
ENDCHAR
STARTCHAR 05E7
ENCODING 1511
SWIDTH 660 0
DWIDTH 22 0
BBX 18 24 2 -5
BITMAP
7FFE00
7FFF80
FFFFC0
0003C0
0001C0
0001C0
0001C0
0001C0
3801C0
380380
380380
380700
380700
380E00
381C00
387800
38F000
38C000
390000
380000
380000
380000
380000
380000
ENDCHAR
STARTCHAR 05E8
ENCODING 1512
SWIDTH 510 0
DWIDTH 17 0
BBX 13 19 1 0
BITMAP
7FC0
7FF0
FFF0
0078
0038
0038
0038
0038
0038
0038
0038
0038
0038
0038
0038
0038
0038
0038
0038
ENDCHAR
STARTCHAR 05E9
ENCODING 1513
SWIDTH 720 0
DWIDTH 24 0
BBX 20 19 2 0
BITMAP
60E070
E0E070
E0E070
E0E070
E0E070
E0E070
E0E070
71C0E0
71C0E0
71C0E0
7781C0
7F01C0
7C0380
700700
701E00
387C00
3FF800
3FE000
3E0000
ENDCHAR
STARTCHAR 05EA
ENCODING 1514
SWIDTH 690 0
DWIDTH 23 0
BBX 20 19 0 0
BITMAP
1FFF80
1FFFE0
3FFFE0
0E00F0
0E0070
0E0070
0E0070
0E0070
0E0070
0E0070
0E0070
0E0070
070070
070070
070070
038070
7F8070
7F0070
FF0070
ENDCHAR
STARTCHAR 05F0
ENCODING 1520
SWIDTH 600 0
DWIDTH 20 0
BBX 17 19 0 0
BITMAP
703800
7C3E00
FE7F00
3E1F00
0F0780
070380
070380
070380
070380
070380
070380
070380
070380
070380
070380
070380
070380
070380
070380
ENDCHAR
STARTCHAR 05F1
ENCODING 1521
SWIDTH 600 0
DWIDTH 20 0
BBX 17 19 0 0
BITMAP
603800
783E00
FC7F00
3E1F00
0E0780
0E0380
0E0380
0E0380
0E0380
0E0380
1C0380
1C0380
000380
000380
000380
000380
000380
000380
000380
ENDCHAR
STARTCHAR 05F2
ENCODING 1522
SWIDTH 600 0
DWIDTH 20 0
BBX 17 12 0 7
BITMAP
601800
781E00
FC3F00
3E0F80
0E0380
0E0380
0E0380
0E0380
0E0380
0E0380
1C0700
1C0700
ENDCHAR
STARTCHAR 05F3
ENCODING 1523
SWIDTH 270 0
DWIDTH 9 0
BBX 6 8 1 13
BITMAP
3C
38
38
70
70
60
E0
C0
ENDCHAR
STARTCHAR 05F4
ENCODING 1524
SWIDTH 480 0
DWIDTH 16 0
BBX 13 8 1 13
BITMAP
3C78
3870
3870
70E0
70E0
60C0
E1C0
C180
ENDCHAR
STARTCHAR 060C
ENCODING 1548
SWIDTH 300 0
DWIDTH 10 0
BBX 4 9 3 0
BITMAP
30
70
E0
E0
E0
F0
F0
F0
F0
ENDCHAR
STARTCHAR 061B
ENCODING 1563
SWIDTH 300 0
DWIDTH 10 0
BBX 3 19 3 0
BITMAP
20
60
C0
C0
C0
E0
E0
E0
00
00
00
00
00
00
00
00
E0
E0
E0
ENDCHAR
STARTCHAR 061F
ENCODING 1567
SWIDTH 420 0
DWIDTH 14 0
BBX 10 24 2 0
BITMAP
1F80
3FC0
7FC0
F040
E000
F000
F000
7800
7C00
3E00
1E00
0F00
0700
0700
0700
0700
0700
0700
0000
0000
0000
0700
0700
0700
ENDCHAR
STARTCHAR 0621
ENCODING 1569
SWIDTH 420 0
DWIDTH 14 0
BBX 10 14 2 0
BITMAP
03C0
1FC0
3FC0
7C00
F000
E000
F000
7C00
3FC0
0FC0
3FC0
FF00
F800
C000
ENDCHAR
STARTCHAR 0622
ENCODING 1570
SWIDTH 300 0
DWIDTH 10 0
BBX 10 32 0 0
BITMAP
7840
FFC0
8780
0000
0000
1C00
1C00
1C00
1C00
1C00
1C00
1C00
1C00
1C00
1C00
1C00
1C00
1C00
1C00
1C00
1C00
1C00
1C00
1C00
1C00
1C00
1C00
1C00
1C00
1C00
1C00
1C00
ENDCHAR
ENDFONT
